M48
; DRILL file {KiCad 7.0.6} date Mon Jul 31 17:00:52 2023
; FORMAT={-:-/ absolute / metric / decimal}
; #@! TF.CreationDate,2023-07-31T17:00:52-04:00
; #@! TF.GenerationSoftware,Kicad,Pcbnew,7.0.6
; #@! TF.FileFunction,Plated,1,2,PTH
FMAT,2
METRIC
; #@! TA.AperFunction,Plated,PTH,ViaDrill
T1C0.400
; #@! TA.AperFunction,Plated,PTH,ComponentDrill
T2C0.600
; #@! TA.AperFunction,Plated,PTH,ComponentDrill
T3C0.750
; #@! TA.AperFunction,Plated,PTH,ComponentDrill
T4C1.000
%
G90
G05
T1
X37.364Y-52.782
X37.364Y-33.732
X39.745Y-71.832
X42.126Y-90.882
X57.863Y-33.149
X60.268Y-52.637
X67.401Y-72.706
X76.771Y-35.471
X79.177Y-54.959
X84.006Y-94.178
X86.309Y-75.028
X95.679Y-37.792
X98.084Y-57.281
X105.217Y-77.35
X114.587Y-40.114
X116.993Y-59.602
X124.125Y-79.671
X125.868Y-88.975
X125.868Y-87.486
X125.868Y-90.463
X125.968Y-104.129
X131.675Y-47.067
X132.661Y-65.46
X133.257Y-47.067
X134.208Y-48.258
X134.798Y-63.972
X134.798Y-66.948
X135.158Y-47.067
X135.936Y-51.532
X135.936Y-58.676
X137.126Y-41.114
X137.542Y-53.257
X137.792Y-57.783
X138.317Y-41.114
X138.369Y-85.998
X140.996Y-49.746
X141.411Y-53.507
X141.889Y-62.843
X142.186Y-49.746
X143.197Y-44.509
X147.597Y-104.453
X148.787Y-104.453
X149.69Y-44.509
X154.48Y-81.424
X154.563Y-43.028
X156.229Y-66.948
X156.229Y-63.972
X156.527Y-106.649
X158.26Y-65.46
X160.694Y-85.998
X160.694Y-87.486
X160.694Y-88.975
X160.694Y-104.155
X161.612Y-61.355
X161.884Y-104.155
X173.388Y-79.102
X173.471Y-40.706
X180.52Y-59.034
X181.093Y-102.387
X192.296Y-76.781
X192.379Y-38.384
X194.694Y-95.919
X199.428Y-56.712
X211.204Y-74.459
X211.287Y-36.063
X216.276Y-95.883
X218.336Y-54.39
X233.992Y-90.882
X233.992Y-33.732
X236.373Y-71.832
X238.754Y-52.782
T3
X151.307Y-53.845
X151.307Y-61.95
X153.307Y-53.845
X153.307Y-61.95
T4
X214.991Y-98.723
X214.991Y-101.263
X217.531Y-98.723
X217.531Y-101.263
X220.071Y-98.723
X220.071Y-101.263
T2
X142.12Y-37.206G85X142.12Y-37.806
G05
X142.12Y-41.136G85X142.12Y-42.236
G05
X150.76Y-37.206G85X150.76Y-37.806
G05
X150.76Y-41.136G85X150.76Y-42.236
G05
T0
M30
