%TF.GenerationSoftware,KiCad,Pcbnew,7.0.6*%
%TF.CreationDate,2023-07-31T17:00:54-04:00*%
%TF.ProjectId,Birdie,42697264-6965-42e6-9b69-6361645f7063,rev?*%
%TF.SameCoordinates,Original*%
%TF.FileFunction,Drillmap*%
%TF.FilePolarity,Positive*%
%FSLAX45Y45*%
G04 Gerber Fmt 4.5, Leading zero omitted, Abs format (unit mm)*
G04 Created by KiCad (PCBNEW 7.0.6) date 2023-07-31 17:00:54*
%MOMM*%
%LPD*%
G01*
G04 APERTURE LIST*
%ADD10C,0.100000*%
%ADD11C,0.200000*%
%ADD12C,0.040000*%
%ADD13C,0.060000*%
%ADD14C,0.075000*%
G04 APERTURE END LIST*
D10*
X22919805Y-2682670D02*
X25239180Y-2682670D01*
X25239180Y-10309356D02*
G75*
G03*
X25539180Y-10009355I-1J300001D01*
G01*
X3572576Y-10309355D02*
X5891951Y-10309355D01*
X3572576Y-2689355D02*
X6368201Y-2689355D01*
X15120253Y-3647019D02*
X22919805Y-2682670D01*
X25539180Y-2982670D02*
X25539180Y-10009355D01*
X3572576Y-2689352D02*
G75*
G03*
X3272577Y-2989354I3J-300003D01*
G01*
X14167753Y-3647019D02*
X15120253Y-3647019D01*
X15596503Y-11267019D02*
X23396055Y-10309354D01*
X14167753Y-3647019D02*
X6368201Y-2689355D01*
X25239180Y-10309354D02*
X23396055Y-10309354D01*
X3272570Y-10009354D02*
G75*
G03*
X3572576Y-10309355I300000J-1D01*
G01*
X13691503Y-11267019D02*
X5891951Y-10309355D01*
X3272577Y-2989354D02*
X3272576Y-10009354D01*
X25539174Y-2982670D02*
G75*
G03*
X25239180Y-2682670I-299995J5D01*
G01*
X13691503Y-11267019D02*
X15596503Y-11267019D01*
D11*
D12*
X3716359Y-5258233D02*
X3756359Y-5298233D01*
X3756359Y-5258233D02*
X3716359Y-5298233D01*
X3716359Y-3353233D02*
X3756359Y-3393233D01*
X3756359Y-3353233D02*
X3716359Y-3393233D01*
X3954484Y-7163232D02*
X3994484Y-7203232D01*
X3994484Y-7163232D02*
X3954484Y-7203232D01*
X4192609Y-9068233D02*
X4232609Y-9108233D01*
X4232609Y-9068233D02*
X4192609Y-9108233D01*
X5766310Y-3294907D02*
X5806310Y-3334907D01*
X5806310Y-3294907D02*
X5766310Y-3334907D01*
X6006849Y-5243748D02*
X6046849Y-5283748D01*
X6046849Y-5243748D02*
X6006849Y-5283748D01*
X6720088Y-7250629D02*
X6760088Y-7290629D01*
X6760088Y-7250629D02*
X6720088Y-7290629D01*
X7657111Y-3527068D02*
X7697111Y-3567068D01*
X7697111Y-3527068D02*
X7657111Y-3567068D01*
X7897650Y-5475909D02*
X7937650Y-5515909D01*
X7937650Y-5475909D02*
X7897650Y-5515909D01*
X8380553Y-9397806D02*
X8420553Y-9437806D01*
X8420553Y-9397806D02*
X8380553Y-9437806D01*
X8610889Y-7482790D02*
X8650889Y-7522790D01*
X8650889Y-7482790D02*
X8610889Y-7522790D01*
X9547911Y-3759230D02*
X9587911Y-3799230D01*
X9587911Y-3759230D02*
X9547911Y-3799230D01*
X9788450Y-5708070D02*
X9828450Y-5748070D01*
X9828450Y-5708070D02*
X9788450Y-5748070D01*
X10501689Y-7714950D02*
X10541689Y-7754950D01*
X10541689Y-7714950D02*
X10501689Y-7754950D01*
X11438712Y-3991390D02*
X11478712Y-4031390D01*
X11478712Y-3991390D02*
X11438712Y-4031390D01*
X11679250Y-5940231D02*
X11719250Y-5980231D01*
X11719250Y-5940231D02*
X11679250Y-5980231D01*
X12392490Y-7947111D02*
X12432490Y-7987111D01*
X12432490Y-7947111D02*
X12392490Y-7987111D01*
X12566788Y-8877470D02*
X12606788Y-8917470D01*
X12606788Y-8877470D02*
X12566788Y-8917470D01*
X12566788Y-8728641D02*
X12606788Y-8768641D01*
X12606788Y-8728641D02*
X12566788Y-8768641D01*
X12566788Y-9026298D02*
X12606788Y-9066298D01*
X12606788Y-9026298D02*
X12566788Y-9066298D01*
X12576814Y-10392868D02*
X12616814Y-10432868D01*
X12616814Y-10392868D02*
X12576814Y-10432868D01*
X13147485Y-4686736D02*
X13187485Y-4726736D01*
X13187485Y-4686736D02*
X13147485Y-4726736D01*
X13246143Y-6525979D02*
X13286143Y-6565979D01*
X13286143Y-6525979D02*
X13246143Y-6565979D01*
X13305674Y-4686736D02*
X13345674Y-4726736D01*
X13345674Y-4686736D02*
X13305674Y-4726736D01*
X13400837Y-4805798D02*
X13440837Y-4845798D01*
X13440837Y-4805798D02*
X13400837Y-4845798D01*
X13459759Y-6377151D02*
X13499759Y-6417151D01*
X13499759Y-6377151D02*
X13459759Y-6417151D01*
X13459759Y-6674808D02*
X13499759Y-6714808D01*
X13499759Y-6674808D02*
X13459759Y-6714808D01*
X13495837Y-4686736D02*
X13535837Y-4726736D01*
X13535837Y-4686736D02*
X13495837Y-4726736D01*
X13573566Y-5133221D02*
X13613566Y-5173221D01*
X13613566Y-5133221D02*
X13573566Y-5173221D01*
X13573566Y-5847598D02*
X13613566Y-5887598D01*
X13613566Y-5847598D02*
X13573566Y-5887598D01*
X13692629Y-4091422D02*
X13732629Y-4131422D01*
X13732629Y-4091422D02*
X13692629Y-4131422D01*
X13734187Y-5305675D02*
X13774187Y-5345675D01*
X13774187Y-5305675D02*
X13734187Y-5345675D01*
X13759187Y-5758301D02*
X13799187Y-5798301D01*
X13799187Y-5758301D02*
X13759187Y-5798301D01*
X13811691Y-4091422D02*
X13851691Y-4131422D01*
X13851691Y-4091422D02*
X13811691Y-4131422D01*
X13816947Y-8579813D02*
X13856947Y-8619813D01*
X13856947Y-8579813D02*
X13816947Y-8619813D01*
X14079583Y-4954627D02*
X14119583Y-4994627D01*
X14119583Y-4954627D02*
X14079583Y-4994627D01*
X14121141Y-5330675D02*
X14161141Y-5370675D01*
X14161141Y-5330675D02*
X14121141Y-5370675D01*
X14168880Y-6264318D02*
X14208880Y-6304318D01*
X14208880Y-6264318D02*
X14168880Y-6304318D01*
X14198645Y-4954627D02*
X14238645Y-4994627D01*
X14238645Y-4954627D02*
X14198645Y-4994627D01*
X14299735Y-4430938D02*
X14339735Y-4470938D01*
X14339735Y-4430938D02*
X14299735Y-4470938D01*
X14739684Y-10425286D02*
X14779684Y-10465286D01*
X14779684Y-10425286D02*
X14739684Y-10465286D01*
X14858747Y-10425286D02*
X14898747Y-10465286D01*
X14898747Y-10425286D02*
X14858747Y-10465286D01*
X14949003Y-4430938D02*
X14989003Y-4470938D01*
X14989003Y-4430938D02*
X14949003Y-4470938D01*
X15427963Y-8122393D02*
X15467963Y-8162393D01*
X15467963Y-8122393D02*
X15427963Y-8162393D01*
X15436340Y-4282752D02*
X15476340Y-4322752D01*
X15476340Y-4282752D02*
X15436340Y-4322752D01*
X15602889Y-6674808D02*
X15642889Y-6714808D01*
X15642889Y-6674808D02*
X15602889Y-6714808D01*
X15602889Y-6377151D02*
X15642889Y-6417151D01*
X15642889Y-6377151D02*
X15602889Y-6417151D01*
X15632655Y-10644867D02*
X15672655Y-10684867D01*
X15672655Y-10644867D02*
X15632655Y-10684867D01*
X15805993Y-6525979D02*
X15845993Y-6565979D01*
X15845993Y-6525979D02*
X15805993Y-6565979D01*
X16049375Y-8579813D02*
X16089375Y-8619813D01*
X16089375Y-8579813D02*
X16049375Y-8619813D01*
X16049375Y-8728641D02*
X16089375Y-8768641D01*
X16089375Y-8728641D02*
X16049375Y-8768641D01*
X16049375Y-8877470D02*
X16089375Y-8917470D01*
X16089375Y-8877470D02*
X16049375Y-8917470D01*
X16049375Y-10395520D02*
X16089375Y-10435520D01*
X16089375Y-10395520D02*
X16049375Y-10435520D01*
X16141202Y-6115513D02*
X16181202Y-6155513D01*
X16181202Y-6115513D02*
X16141202Y-6155513D01*
X16168438Y-10395520D02*
X16208438Y-10435520D01*
X16208438Y-10395520D02*
X16168438Y-10435520D01*
X17318764Y-7890233D02*
X17358764Y-7930233D01*
X17358764Y-7890233D02*
X17318764Y-7930233D01*
X17327141Y-4050591D02*
X17367141Y-4090591D01*
X17367141Y-4050591D02*
X17327141Y-4090591D01*
X18032002Y-5883352D02*
X18072002Y-5923352D01*
X18072002Y-5883352D02*
X18032002Y-5923352D01*
X18089293Y-10218747D02*
X18129293Y-10258747D01*
X18129293Y-10218747D02*
X18089293Y-10258747D01*
X19209564Y-7658071D02*
X19249564Y-7698071D01*
X19249564Y-7658071D02*
X19209564Y-7698071D01*
X19217941Y-3818430D02*
X19257941Y-3858430D01*
X19257941Y-3818430D02*
X19217941Y-3858430D01*
X19449354Y-9571926D02*
X19489354Y-9611926D01*
X19489354Y-9571926D02*
X19449354Y-9611926D01*
X19922803Y-5651190D02*
X19962803Y-5691190D01*
X19962803Y-5651190D02*
X19922803Y-5691190D01*
X21100364Y-7425910D02*
X21140364Y-7465910D01*
X21140364Y-7425910D02*
X21100364Y-7465910D01*
X21108742Y-3586269D02*
X21148742Y-3626269D01*
X21148742Y-3586269D02*
X21108742Y-3626269D01*
X21607624Y-9568294D02*
X21647624Y-9608294D01*
X21647624Y-9568294D02*
X21607624Y-9608294D01*
X21813603Y-5419029D02*
X21853603Y-5459029D01*
X21853603Y-5419029D02*
X21813603Y-5459029D01*
X23379160Y-9068233D02*
X23419160Y-9108233D01*
X23419160Y-9068233D02*
X23379160Y-9108233D01*
X23379160Y-3353233D02*
X23419160Y-3393233D01*
X23419160Y-3353233D02*
X23379160Y-3393233D01*
X23617285Y-7163233D02*
X23657285Y-7203233D01*
X23657285Y-7163233D02*
X23617285Y-7203233D01*
X23855410Y-5258233D02*
X23895410Y-5298233D01*
X23895410Y-5258233D02*
X23855410Y-5298233D01*
D13*
X14242003Y-3750624D02*
G75*
G03*
X14242003Y-3750624I-30000J0D01*
G01*
D11*
X14182003Y-3720624D02*
X14182003Y-3780624D01*
X14182003Y-3780624D02*
G75*
G03*
X14242003Y-3780624I30000J0D01*
G01*
X14242003Y-3780624D02*
X14242003Y-3720624D01*
X14242003Y-3720624D02*
G75*
G03*
X14182003Y-3720624I-30000J0D01*
G01*
D13*
X14242003Y-4168624D02*
G75*
G03*
X14242003Y-4168624I-30000J0D01*
G01*
D11*
X14182003Y-4113624D02*
X14182003Y-4223624D01*
X14182003Y-4223624D02*
G75*
G03*
X14242003Y-4223624I30000J0D01*
G01*
X14242003Y-4223624D02*
X14242003Y-4113624D01*
X14242003Y-4113624D02*
G75*
G03*
X14182003Y-4113624I-30000J0D01*
G01*
D13*
X15106003Y-3750624D02*
G75*
G03*
X15106003Y-3750624I-30000J0D01*
G01*
D11*
X15046003Y-3720624D02*
X15046003Y-3780624D01*
X15046003Y-3780624D02*
G75*
G03*
X15106003Y-3780624I30000J0D01*
G01*
X15106003Y-3780624D02*
X15106003Y-3720624D01*
X15106003Y-3720624D02*
G75*
G03*
X15046003Y-3720624I-30000J0D01*
G01*
D13*
X15106003Y-4168624D02*
G75*
G03*
X15106003Y-4168624I-30000J0D01*
G01*
D11*
X15046003Y-4113624D02*
X15046003Y-4223624D01*
X15046003Y-4223624D02*
G75*
G03*
X15106003Y-4223624I30000J0D01*
G01*
X15106003Y-4223624D02*
X15106003Y-4113624D01*
X15106003Y-4113624D02*
G75*
G03*
X15046003Y-4113624I-30000J0D01*
G01*
D14*
X15130679Y-5346972D02*
X15130679Y-5421972D01*
X15093179Y-5384472D02*
X15168179Y-5384472D01*
X15130679Y-6157521D02*
X15130679Y-6232521D01*
X15093179Y-6195021D02*
X15168179Y-6195021D01*
X15330679Y-5346972D02*
X15330679Y-5421972D01*
X15293179Y-5384472D02*
X15368179Y-5384472D01*
X15330679Y-6157521D02*
X15330679Y-6232521D01*
X15293179Y-6195021D02*
X15368179Y-6195021D01*
D10*
X21534479Y-9907656D02*
X21534479Y-9836945D01*
X21463768Y-9836945D01*
X21463768Y-9907656D01*
X21534479Y-9907656D01*
X21534479Y-10161656D02*
X21534479Y-10090945D01*
X21463768Y-10090945D01*
X21463768Y-10161656D01*
X21534479Y-10161656D01*
X21788479Y-9907656D02*
X21788479Y-9836945D01*
X21717768Y-9836945D01*
X21717768Y-9907656D01*
X21788479Y-9907656D01*
X21788479Y-10161656D02*
X21788479Y-10090945D01*
X21717768Y-10090945D01*
X21717768Y-10161656D01*
X21788479Y-10161656D01*
X22042479Y-9907656D02*
X22042479Y-9836945D01*
X21971768Y-9836945D01*
X21971768Y-9907656D01*
X22042479Y-9907656D01*
X22042479Y-10161656D02*
X22042479Y-10090945D01*
X21971768Y-10090945D01*
X21971768Y-10161656D01*
X22042479Y-10161656D01*
D11*
X3528347Y-11583503D02*
X3528347Y-11383503D01*
X3528347Y-11383503D02*
X3575966Y-11383503D01*
X3575966Y-11383503D02*
X3604537Y-11393027D01*
X3604537Y-11393027D02*
X3623585Y-11412074D01*
X3623585Y-11412074D02*
X3633109Y-11431122D01*
X3633109Y-11431122D02*
X3642632Y-11469217D01*
X3642632Y-11469217D02*
X3642632Y-11497789D01*
X3642632Y-11497789D02*
X3633109Y-11535884D01*
X3633109Y-11535884D02*
X3623585Y-11554931D01*
X3623585Y-11554931D02*
X3604537Y-11573979D01*
X3604537Y-11573979D02*
X3575966Y-11583503D01*
X3575966Y-11583503D02*
X3528347Y-11583503D01*
X3728347Y-11583503D02*
X3728347Y-11450169D01*
X3728347Y-11488265D02*
X3737871Y-11469217D01*
X3737871Y-11469217D02*
X3747394Y-11459693D01*
X3747394Y-11459693D02*
X3766442Y-11450169D01*
X3766442Y-11450169D02*
X3785490Y-11450169D01*
X3852156Y-11583503D02*
X3852156Y-11450169D01*
X3852156Y-11383503D02*
X3842632Y-11393027D01*
X3842632Y-11393027D02*
X3852156Y-11402550D01*
X3852156Y-11402550D02*
X3861680Y-11393027D01*
X3861680Y-11393027D02*
X3852156Y-11383503D01*
X3852156Y-11383503D02*
X3852156Y-11402550D01*
X3975966Y-11583503D02*
X3956918Y-11573979D01*
X3956918Y-11573979D02*
X3947394Y-11554931D01*
X3947394Y-11554931D02*
X3947394Y-11383503D01*
X4080728Y-11583503D02*
X4061680Y-11573979D01*
X4061680Y-11573979D02*
X4052156Y-11554931D01*
X4052156Y-11554931D02*
X4052156Y-11383503D01*
X4309299Y-11583503D02*
X4309299Y-11383503D01*
X4309299Y-11383503D02*
X4375966Y-11526360D01*
X4375966Y-11526360D02*
X4442633Y-11383503D01*
X4442633Y-11383503D02*
X4442633Y-11583503D01*
X4623585Y-11583503D02*
X4623585Y-11478741D01*
X4623585Y-11478741D02*
X4614061Y-11459693D01*
X4614061Y-11459693D02*
X4595014Y-11450169D01*
X4595014Y-11450169D02*
X4556918Y-11450169D01*
X4556918Y-11450169D02*
X4537871Y-11459693D01*
X4623585Y-11573979D02*
X4604537Y-11583503D01*
X4604537Y-11583503D02*
X4556918Y-11583503D01*
X4556918Y-11583503D02*
X4537871Y-11573979D01*
X4537871Y-11573979D02*
X4528347Y-11554931D01*
X4528347Y-11554931D02*
X4528347Y-11535884D01*
X4528347Y-11535884D02*
X4537871Y-11516836D01*
X4537871Y-11516836D02*
X4556918Y-11507312D01*
X4556918Y-11507312D02*
X4604537Y-11507312D01*
X4604537Y-11507312D02*
X4623585Y-11497789D01*
X4718823Y-11450169D02*
X4718823Y-11650169D01*
X4718823Y-11459693D02*
X4737871Y-11450169D01*
X4737871Y-11450169D02*
X4775966Y-11450169D01*
X4775966Y-11450169D02*
X4795014Y-11459693D01*
X4795014Y-11459693D02*
X4804537Y-11469217D01*
X4804537Y-11469217D02*
X4814061Y-11488265D01*
X4814061Y-11488265D02*
X4814061Y-11545408D01*
X4814061Y-11545408D02*
X4804537Y-11564455D01*
X4804537Y-11564455D02*
X4795014Y-11573979D01*
X4795014Y-11573979D02*
X4775966Y-11583503D01*
X4775966Y-11583503D02*
X4737871Y-11583503D01*
X4737871Y-11583503D02*
X4718823Y-11573979D01*
X4899775Y-11564455D02*
X4909299Y-11573979D01*
X4909299Y-11573979D02*
X4899775Y-11583503D01*
X4899775Y-11583503D02*
X4890252Y-11573979D01*
X4890252Y-11573979D02*
X4899775Y-11564455D01*
X4899775Y-11564455D02*
X4899775Y-11583503D01*
X4899775Y-11459693D02*
X4909299Y-11469217D01*
X4909299Y-11469217D02*
X4899775Y-11478741D01*
X4899775Y-11478741D02*
X4890252Y-11469217D01*
X4890252Y-11469217D02*
X4899775Y-11459693D01*
X4899775Y-11459693D02*
X4899775Y-11478741D01*
D12*
X3227570Y-11892019D02*
X3267570Y-11932019D01*
X3267570Y-11892019D02*
X3227570Y-11932019D01*
D11*
X3566442Y-11803503D02*
X3585490Y-11803503D01*
X3585490Y-11803503D02*
X3604537Y-11813027D01*
X3604537Y-11813027D02*
X3614061Y-11822550D01*
X3614061Y-11822550D02*
X3623585Y-11841598D01*
X3623585Y-11841598D02*
X3633109Y-11879693D01*
X3633109Y-11879693D02*
X3633109Y-11927312D01*
X3633109Y-11927312D02*
X3623585Y-11965408D01*
X3623585Y-11965408D02*
X3614061Y-11984455D01*
X3614061Y-11984455D02*
X3604537Y-11993979D01*
X3604537Y-11993979D02*
X3585490Y-12003503D01*
X3585490Y-12003503D02*
X3566442Y-12003503D01*
X3566442Y-12003503D02*
X3547394Y-11993979D01*
X3547394Y-11993979D02*
X3537871Y-11984455D01*
X3537871Y-11984455D02*
X3528347Y-11965408D01*
X3528347Y-11965408D02*
X3518823Y-11927312D01*
X3518823Y-11927312D02*
X3518823Y-11879693D01*
X3518823Y-11879693D02*
X3528347Y-11841598D01*
X3528347Y-11841598D02*
X3537871Y-11822550D01*
X3537871Y-11822550D02*
X3547394Y-11813027D01*
X3547394Y-11813027D02*
X3566442Y-11803503D01*
X3718823Y-11984455D02*
X3728347Y-11993979D01*
X3728347Y-11993979D02*
X3718823Y-12003503D01*
X3718823Y-12003503D02*
X3709299Y-11993979D01*
X3709299Y-11993979D02*
X3718823Y-11984455D01*
X3718823Y-11984455D02*
X3718823Y-12003503D01*
X3899775Y-11870169D02*
X3899775Y-12003503D01*
X3852156Y-11793979D02*
X3804537Y-11936836D01*
X3804537Y-11936836D02*
X3928347Y-11936836D01*
X4042632Y-11803503D02*
X4061680Y-11803503D01*
X4061680Y-11803503D02*
X4080728Y-11813027D01*
X4080728Y-11813027D02*
X4090252Y-11822550D01*
X4090252Y-11822550D02*
X4099775Y-11841598D01*
X4099775Y-11841598D02*
X4109299Y-11879693D01*
X4109299Y-11879693D02*
X4109299Y-11927312D01*
X4109299Y-11927312D02*
X4099775Y-11965408D01*
X4099775Y-11965408D02*
X4090252Y-11984455D01*
X4090252Y-11984455D02*
X4080728Y-11993979D01*
X4080728Y-11993979D02*
X4061680Y-12003503D01*
X4061680Y-12003503D02*
X4042632Y-12003503D01*
X4042632Y-12003503D02*
X4023585Y-11993979D01*
X4023585Y-11993979D02*
X4014061Y-11984455D01*
X4014061Y-11984455D02*
X4004537Y-11965408D01*
X4004537Y-11965408D02*
X3995013Y-11927312D01*
X3995013Y-11927312D02*
X3995013Y-11879693D01*
X3995013Y-11879693D02*
X4004537Y-11841598D01*
X4004537Y-11841598D02*
X4014061Y-11822550D01*
X4014061Y-11822550D02*
X4023585Y-11813027D01*
X4023585Y-11813027D02*
X4042632Y-11803503D01*
X4233109Y-11803503D02*
X4252156Y-11803503D01*
X4252156Y-11803503D02*
X4271204Y-11813027D01*
X4271204Y-11813027D02*
X4280728Y-11822550D01*
X4280728Y-11822550D02*
X4290252Y-11841598D01*
X4290252Y-11841598D02*
X4299775Y-11879693D01*
X4299775Y-11879693D02*
X4299775Y-11927312D01*
X4299775Y-11927312D02*
X4290252Y-11965408D01*
X4290252Y-11965408D02*
X4280728Y-11984455D01*
X4280728Y-11984455D02*
X4271204Y-11993979D01*
X4271204Y-11993979D02*
X4252156Y-12003503D01*
X4252156Y-12003503D02*
X4233109Y-12003503D01*
X4233109Y-12003503D02*
X4214061Y-11993979D01*
X4214061Y-11993979D02*
X4204537Y-11984455D01*
X4204537Y-11984455D02*
X4195014Y-11965408D01*
X4195014Y-11965408D02*
X4185490Y-11927312D01*
X4185490Y-11927312D02*
X4185490Y-11879693D01*
X4185490Y-11879693D02*
X4195014Y-11841598D01*
X4195014Y-11841598D02*
X4204537Y-11822550D01*
X4204537Y-11822550D02*
X4214061Y-11813027D01*
X4214061Y-11813027D02*
X4233109Y-11803503D01*
X4385490Y-12003503D02*
X4385490Y-11870169D01*
X4385490Y-11889217D02*
X4395014Y-11879693D01*
X4395014Y-11879693D02*
X4414061Y-11870169D01*
X4414061Y-11870169D02*
X4442633Y-11870169D01*
X4442633Y-11870169D02*
X4461680Y-11879693D01*
X4461680Y-11879693D02*
X4471204Y-11898741D01*
X4471204Y-11898741D02*
X4471204Y-12003503D01*
X4471204Y-11898741D02*
X4480728Y-11879693D01*
X4480728Y-11879693D02*
X4499775Y-11870169D01*
X4499775Y-11870169D02*
X4528347Y-11870169D01*
X4528347Y-11870169D02*
X4547395Y-11879693D01*
X4547395Y-11879693D02*
X4556918Y-11898741D01*
X4556918Y-11898741D02*
X4556918Y-12003503D01*
X4652156Y-12003503D02*
X4652156Y-11870169D01*
X4652156Y-11889217D02*
X4661680Y-11879693D01*
X4661680Y-11879693D02*
X4680728Y-11870169D01*
X4680728Y-11870169D02*
X4709299Y-11870169D01*
X4709299Y-11870169D02*
X4728347Y-11879693D01*
X4728347Y-11879693D02*
X4737871Y-11898741D01*
X4737871Y-11898741D02*
X4737871Y-12003503D01*
X4737871Y-11898741D02*
X4747395Y-11879693D01*
X4747395Y-11879693D02*
X4766442Y-11870169D01*
X4766442Y-11870169D02*
X4795014Y-11870169D01*
X4795014Y-11870169D02*
X4814061Y-11879693D01*
X4814061Y-11879693D02*
X4823585Y-11898741D01*
X4823585Y-11898741D02*
X4823585Y-12003503D01*
X5214061Y-11793979D02*
X5042633Y-12051122D01*
X5471204Y-11803503D02*
X5490252Y-11803503D01*
X5490252Y-11803503D02*
X5509299Y-11813027D01*
X5509299Y-11813027D02*
X5518823Y-11822550D01*
X5518823Y-11822550D02*
X5528347Y-11841598D01*
X5528347Y-11841598D02*
X5537871Y-11879693D01*
X5537871Y-11879693D02*
X5537871Y-11927312D01*
X5537871Y-11927312D02*
X5528347Y-11965408D01*
X5528347Y-11965408D02*
X5518823Y-11984455D01*
X5518823Y-11984455D02*
X5509299Y-11993979D01*
X5509299Y-11993979D02*
X5490252Y-12003503D01*
X5490252Y-12003503D02*
X5471204Y-12003503D01*
X5471204Y-12003503D02*
X5452157Y-11993979D01*
X5452157Y-11993979D02*
X5442633Y-11984455D01*
X5442633Y-11984455D02*
X5433109Y-11965408D01*
X5433109Y-11965408D02*
X5423585Y-11927312D01*
X5423585Y-11927312D02*
X5423585Y-11879693D01*
X5423585Y-11879693D02*
X5433109Y-11841598D01*
X5433109Y-11841598D02*
X5442633Y-11822550D01*
X5442633Y-11822550D02*
X5452157Y-11813027D01*
X5452157Y-11813027D02*
X5471204Y-11803503D01*
X5623585Y-11984455D02*
X5633109Y-11993979D01*
X5633109Y-11993979D02*
X5623585Y-12003503D01*
X5623585Y-12003503D02*
X5614061Y-11993979D01*
X5614061Y-11993979D02*
X5623585Y-11984455D01*
X5623585Y-11984455D02*
X5623585Y-12003503D01*
X5756918Y-11803503D02*
X5775966Y-11803503D01*
X5775966Y-11803503D02*
X5795014Y-11813027D01*
X5795014Y-11813027D02*
X5804537Y-11822550D01*
X5804537Y-11822550D02*
X5814061Y-11841598D01*
X5814061Y-11841598D02*
X5823585Y-11879693D01*
X5823585Y-11879693D02*
X5823585Y-11927312D01*
X5823585Y-11927312D02*
X5814061Y-11965408D01*
X5814061Y-11965408D02*
X5804537Y-11984455D01*
X5804537Y-11984455D02*
X5795014Y-11993979D01*
X5795014Y-11993979D02*
X5775966Y-12003503D01*
X5775966Y-12003503D02*
X5756918Y-12003503D01*
X5756918Y-12003503D02*
X5737871Y-11993979D01*
X5737871Y-11993979D02*
X5728347Y-11984455D01*
X5728347Y-11984455D02*
X5718823Y-11965408D01*
X5718823Y-11965408D02*
X5709299Y-11927312D01*
X5709299Y-11927312D02*
X5709299Y-11879693D01*
X5709299Y-11879693D02*
X5718823Y-11841598D01*
X5718823Y-11841598D02*
X5728347Y-11822550D01*
X5728347Y-11822550D02*
X5737871Y-11813027D01*
X5737871Y-11813027D02*
X5756918Y-11803503D01*
X6014061Y-12003503D02*
X5899776Y-12003503D01*
X5956918Y-12003503D02*
X5956918Y-11803503D01*
X5956918Y-11803503D02*
X5937871Y-11832074D01*
X5937871Y-11832074D02*
X5918823Y-11851122D01*
X5918823Y-11851122D02*
X5899776Y-11860646D01*
X6195014Y-11803503D02*
X6099776Y-11803503D01*
X6099776Y-11803503D02*
X6090252Y-11898741D01*
X6090252Y-11898741D02*
X6099776Y-11889217D01*
X6099776Y-11889217D02*
X6118823Y-11879693D01*
X6118823Y-11879693D02*
X6166442Y-11879693D01*
X6166442Y-11879693D02*
X6185490Y-11889217D01*
X6185490Y-11889217D02*
X6195014Y-11898741D01*
X6195014Y-11898741D02*
X6204537Y-11917789D01*
X6204537Y-11917789D02*
X6204537Y-11965408D01*
X6204537Y-11965408D02*
X6195014Y-11984455D01*
X6195014Y-11984455D02*
X6185490Y-11993979D01*
X6185490Y-11993979D02*
X6166442Y-12003503D01*
X6166442Y-12003503D02*
X6118823Y-12003503D01*
X6118823Y-12003503D02*
X6099776Y-11993979D01*
X6099776Y-11993979D02*
X6090252Y-11984455D01*
X6271204Y-11803503D02*
X6404537Y-11803503D01*
X6404537Y-11803503D02*
X6318823Y-12003503D01*
X6471204Y-11803503D02*
X6471204Y-11841598D01*
X6547395Y-11803503D02*
X6547395Y-11841598D01*
X6842633Y-12079693D02*
X6833109Y-12070169D01*
X6833109Y-12070169D02*
X6814061Y-12041598D01*
X6814061Y-12041598D02*
X6804538Y-12022550D01*
X6804538Y-12022550D02*
X6795014Y-11993979D01*
X6795014Y-11993979D02*
X6785490Y-11946360D01*
X6785490Y-11946360D02*
X6785490Y-11908265D01*
X6785490Y-11908265D02*
X6795014Y-11860646D01*
X6795014Y-11860646D02*
X6804538Y-11832074D01*
X6804538Y-11832074D02*
X6814061Y-11813027D01*
X6814061Y-11813027D02*
X6833109Y-11784455D01*
X6833109Y-11784455D02*
X6842633Y-11774931D01*
X6899776Y-11803503D02*
X7033109Y-11803503D01*
X7033109Y-11803503D02*
X6947395Y-12003503D01*
X7214061Y-12003503D02*
X7099776Y-12003503D01*
X7156918Y-12003503D02*
X7156918Y-11803503D01*
X7156918Y-11803503D02*
X7137871Y-11832074D01*
X7137871Y-11832074D02*
X7118823Y-11851122D01*
X7118823Y-11851122D02*
X7099776Y-11860646D01*
X7452157Y-12003503D02*
X7452157Y-11803503D01*
X7537871Y-12003503D02*
X7537871Y-11898741D01*
X7537871Y-11898741D02*
X7528347Y-11879693D01*
X7528347Y-11879693D02*
X7509300Y-11870169D01*
X7509300Y-11870169D02*
X7480728Y-11870169D01*
X7480728Y-11870169D02*
X7461680Y-11879693D01*
X7461680Y-11879693D02*
X7452157Y-11889217D01*
X7661680Y-12003503D02*
X7642633Y-11993979D01*
X7642633Y-11993979D02*
X7633109Y-11984455D01*
X7633109Y-11984455D02*
X7623585Y-11965408D01*
X7623585Y-11965408D02*
X7623585Y-11908265D01*
X7623585Y-11908265D02*
X7633109Y-11889217D01*
X7633109Y-11889217D02*
X7642633Y-11879693D01*
X7642633Y-11879693D02*
X7661680Y-11870169D01*
X7661680Y-11870169D02*
X7690252Y-11870169D01*
X7690252Y-11870169D02*
X7709300Y-11879693D01*
X7709300Y-11879693D02*
X7718823Y-11889217D01*
X7718823Y-11889217D02*
X7728347Y-11908265D01*
X7728347Y-11908265D02*
X7728347Y-11965408D01*
X7728347Y-11965408D02*
X7718823Y-11984455D01*
X7718823Y-11984455D02*
X7709300Y-11993979D01*
X7709300Y-11993979D02*
X7690252Y-12003503D01*
X7690252Y-12003503D02*
X7661680Y-12003503D01*
X7842633Y-12003503D02*
X7823585Y-11993979D01*
X7823585Y-11993979D02*
X7814061Y-11974931D01*
X7814061Y-11974931D02*
X7814061Y-11803503D01*
X7995014Y-11993979D02*
X7975966Y-12003503D01*
X7975966Y-12003503D02*
X7937871Y-12003503D01*
X7937871Y-12003503D02*
X7918823Y-11993979D01*
X7918823Y-11993979D02*
X7909300Y-11974931D01*
X7909300Y-11974931D02*
X7909300Y-11898741D01*
X7909300Y-11898741D02*
X7918823Y-11879693D01*
X7918823Y-11879693D02*
X7937871Y-11870169D01*
X7937871Y-11870169D02*
X7975966Y-11870169D01*
X7975966Y-11870169D02*
X7995014Y-11879693D01*
X7995014Y-11879693D02*
X8004538Y-11898741D01*
X8004538Y-11898741D02*
X8004538Y-11917789D01*
X8004538Y-11917789D02*
X7909300Y-11936836D01*
X8080728Y-11993979D02*
X8099776Y-12003503D01*
X8099776Y-12003503D02*
X8137871Y-12003503D01*
X8137871Y-12003503D02*
X8156919Y-11993979D01*
X8156919Y-11993979D02*
X8166442Y-11974931D01*
X8166442Y-11974931D02*
X8166442Y-11965408D01*
X8166442Y-11965408D02*
X8156919Y-11946360D01*
X8156919Y-11946360D02*
X8137871Y-11936836D01*
X8137871Y-11936836D02*
X8109300Y-11936836D01*
X8109300Y-11936836D02*
X8090252Y-11927312D01*
X8090252Y-11927312D02*
X8080728Y-11908265D01*
X8080728Y-11908265D02*
X8080728Y-11898741D01*
X8080728Y-11898741D02*
X8090252Y-11879693D01*
X8090252Y-11879693D02*
X8109300Y-11870169D01*
X8109300Y-11870169D02*
X8137871Y-11870169D01*
X8137871Y-11870169D02*
X8156919Y-11879693D01*
X8233109Y-12079693D02*
X8242633Y-12070169D01*
X8242633Y-12070169D02*
X8261681Y-12041598D01*
X8261681Y-12041598D02*
X8271204Y-12022550D01*
X8271204Y-12022550D02*
X8280728Y-11993979D01*
X8280728Y-11993979D02*
X8290252Y-11946360D01*
X8290252Y-11946360D02*
X8290252Y-11908265D01*
X8290252Y-11908265D02*
X8280728Y-11860646D01*
X8280728Y-11860646D02*
X8271204Y-11832074D01*
X8271204Y-11832074D02*
X8261681Y-11813027D01*
X8261681Y-11813027D02*
X8242633Y-11784455D01*
X8242633Y-11784455D02*
X8233109Y-11774931D01*
D13*
X3267570Y-12176019D02*
G75*
G03*
X3267570Y-12176019I-30000J0D01*
G01*
D11*
X3566442Y-12067503D02*
X3585490Y-12067503D01*
X3585490Y-12067503D02*
X3604537Y-12077027D01*
X3604537Y-12077027D02*
X3614061Y-12086550D01*
X3614061Y-12086550D02*
X3623585Y-12105598D01*
X3623585Y-12105598D02*
X3633109Y-12143693D01*
X3633109Y-12143693D02*
X3633109Y-12191312D01*
X3633109Y-12191312D02*
X3623585Y-12229408D01*
X3623585Y-12229408D02*
X3614061Y-12248455D01*
X3614061Y-12248455D02*
X3604537Y-12257979D01*
X3604537Y-12257979D02*
X3585490Y-12267503D01*
X3585490Y-12267503D02*
X3566442Y-12267503D01*
X3566442Y-12267503D02*
X3547394Y-12257979D01*
X3547394Y-12257979D02*
X3537871Y-12248455D01*
X3537871Y-12248455D02*
X3528347Y-12229408D01*
X3528347Y-12229408D02*
X3518823Y-12191312D01*
X3518823Y-12191312D02*
X3518823Y-12143693D01*
X3518823Y-12143693D02*
X3528347Y-12105598D01*
X3528347Y-12105598D02*
X3537871Y-12086550D01*
X3537871Y-12086550D02*
X3547394Y-12077027D01*
X3547394Y-12077027D02*
X3566442Y-12067503D01*
X3718823Y-12248455D02*
X3728347Y-12257979D01*
X3728347Y-12257979D02*
X3718823Y-12267503D01*
X3718823Y-12267503D02*
X3709299Y-12257979D01*
X3709299Y-12257979D02*
X3718823Y-12248455D01*
X3718823Y-12248455D02*
X3718823Y-12267503D01*
X3899775Y-12067503D02*
X3861680Y-12067503D01*
X3861680Y-12067503D02*
X3842632Y-12077027D01*
X3842632Y-12077027D02*
X3833109Y-12086550D01*
X3833109Y-12086550D02*
X3814061Y-12115122D01*
X3814061Y-12115122D02*
X3804537Y-12153217D01*
X3804537Y-12153217D02*
X3804537Y-12229408D01*
X3804537Y-12229408D02*
X3814061Y-12248455D01*
X3814061Y-12248455D02*
X3823585Y-12257979D01*
X3823585Y-12257979D02*
X3842632Y-12267503D01*
X3842632Y-12267503D02*
X3880728Y-12267503D01*
X3880728Y-12267503D02*
X3899775Y-12257979D01*
X3899775Y-12257979D02*
X3909299Y-12248455D01*
X3909299Y-12248455D02*
X3918823Y-12229408D01*
X3918823Y-12229408D02*
X3918823Y-12181789D01*
X3918823Y-12181789D02*
X3909299Y-12162741D01*
X3909299Y-12162741D02*
X3899775Y-12153217D01*
X3899775Y-12153217D02*
X3880728Y-12143693D01*
X3880728Y-12143693D02*
X3842632Y-12143693D01*
X3842632Y-12143693D02*
X3823585Y-12153217D01*
X3823585Y-12153217D02*
X3814061Y-12162741D01*
X3814061Y-12162741D02*
X3804537Y-12181789D01*
X4042632Y-12067503D02*
X4061680Y-12067503D01*
X4061680Y-12067503D02*
X4080728Y-12077027D01*
X4080728Y-12077027D02*
X4090252Y-12086550D01*
X4090252Y-12086550D02*
X4099775Y-12105598D01*
X4099775Y-12105598D02*
X4109299Y-12143693D01*
X4109299Y-12143693D02*
X4109299Y-12191312D01*
X4109299Y-12191312D02*
X4099775Y-12229408D01*
X4099775Y-12229408D02*
X4090252Y-12248455D01*
X4090252Y-12248455D02*
X4080728Y-12257979D01*
X4080728Y-12257979D02*
X4061680Y-12267503D01*
X4061680Y-12267503D02*
X4042632Y-12267503D01*
X4042632Y-12267503D02*
X4023585Y-12257979D01*
X4023585Y-12257979D02*
X4014061Y-12248455D01*
X4014061Y-12248455D02*
X4004537Y-12229408D01*
X4004537Y-12229408D02*
X3995013Y-12191312D01*
X3995013Y-12191312D02*
X3995013Y-12143693D01*
X3995013Y-12143693D02*
X4004537Y-12105598D01*
X4004537Y-12105598D02*
X4014061Y-12086550D01*
X4014061Y-12086550D02*
X4023585Y-12077027D01*
X4023585Y-12077027D02*
X4042632Y-12067503D01*
X4233109Y-12067503D02*
X4252156Y-12067503D01*
X4252156Y-12067503D02*
X4271204Y-12077027D01*
X4271204Y-12077027D02*
X4280728Y-12086550D01*
X4280728Y-12086550D02*
X4290252Y-12105598D01*
X4290252Y-12105598D02*
X4299775Y-12143693D01*
X4299775Y-12143693D02*
X4299775Y-12191312D01*
X4299775Y-12191312D02*
X4290252Y-12229408D01*
X4290252Y-12229408D02*
X4280728Y-12248455D01*
X4280728Y-12248455D02*
X4271204Y-12257979D01*
X4271204Y-12257979D02*
X4252156Y-12267503D01*
X4252156Y-12267503D02*
X4233109Y-12267503D01*
X4233109Y-12267503D02*
X4214061Y-12257979D01*
X4214061Y-12257979D02*
X4204537Y-12248455D01*
X4204537Y-12248455D02*
X4195014Y-12229408D01*
X4195014Y-12229408D02*
X4185490Y-12191312D01*
X4185490Y-12191312D02*
X4185490Y-12143693D01*
X4185490Y-12143693D02*
X4195014Y-12105598D01*
X4195014Y-12105598D02*
X4204537Y-12086550D01*
X4204537Y-12086550D02*
X4214061Y-12077027D01*
X4214061Y-12077027D02*
X4233109Y-12067503D01*
X4385490Y-12267503D02*
X4385490Y-12134169D01*
X4385490Y-12153217D02*
X4395014Y-12143693D01*
X4395014Y-12143693D02*
X4414061Y-12134169D01*
X4414061Y-12134169D02*
X4442633Y-12134169D01*
X4442633Y-12134169D02*
X4461680Y-12143693D01*
X4461680Y-12143693D02*
X4471204Y-12162741D01*
X4471204Y-12162741D02*
X4471204Y-12267503D01*
X4471204Y-12162741D02*
X4480728Y-12143693D01*
X4480728Y-12143693D02*
X4499775Y-12134169D01*
X4499775Y-12134169D02*
X4528347Y-12134169D01*
X4528347Y-12134169D02*
X4547395Y-12143693D01*
X4547395Y-12143693D02*
X4556918Y-12162741D01*
X4556918Y-12162741D02*
X4556918Y-12267503D01*
X4652156Y-12267503D02*
X4652156Y-12134169D01*
X4652156Y-12153217D02*
X4661680Y-12143693D01*
X4661680Y-12143693D02*
X4680728Y-12134169D01*
X4680728Y-12134169D02*
X4709299Y-12134169D01*
X4709299Y-12134169D02*
X4728347Y-12143693D01*
X4728347Y-12143693D02*
X4737871Y-12162741D01*
X4737871Y-12162741D02*
X4737871Y-12267503D01*
X4737871Y-12162741D02*
X4747395Y-12143693D01*
X4747395Y-12143693D02*
X4766442Y-12134169D01*
X4766442Y-12134169D02*
X4795014Y-12134169D01*
X4795014Y-12134169D02*
X4814061Y-12143693D01*
X4814061Y-12143693D02*
X4823585Y-12162741D01*
X4823585Y-12162741D02*
X4823585Y-12267503D01*
X5214061Y-12057979D02*
X5042633Y-12315122D01*
X5471204Y-12067503D02*
X5490252Y-12067503D01*
X5490252Y-12067503D02*
X5509299Y-12077027D01*
X5509299Y-12077027D02*
X5518823Y-12086550D01*
X5518823Y-12086550D02*
X5528347Y-12105598D01*
X5528347Y-12105598D02*
X5537871Y-12143693D01*
X5537871Y-12143693D02*
X5537871Y-12191312D01*
X5537871Y-12191312D02*
X5528347Y-12229408D01*
X5528347Y-12229408D02*
X5518823Y-12248455D01*
X5518823Y-12248455D02*
X5509299Y-12257979D01*
X5509299Y-12257979D02*
X5490252Y-12267503D01*
X5490252Y-12267503D02*
X5471204Y-12267503D01*
X5471204Y-12267503D02*
X5452157Y-12257979D01*
X5452157Y-12257979D02*
X5442633Y-12248455D01*
X5442633Y-12248455D02*
X5433109Y-12229408D01*
X5433109Y-12229408D02*
X5423585Y-12191312D01*
X5423585Y-12191312D02*
X5423585Y-12143693D01*
X5423585Y-12143693D02*
X5433109Y-12105598D01*
X5433109Y-12105598D02*
X5442633Y-12086550D01*
X5442633Y-12086550D02*
X5452157Y-12077027D01*
X5452157Y-12077027D02*
X5471204Y-12067503D01*
X5623585Y-12248455D02*
X5633109Y-12257979D01*
X5633109Y-12257979D02*
X5623585Y-12267503D01*
X5623585Y-12267503D02*
X5614061Y-12257979D01*
X5614061Y-12257979D02*
X5623585Y-12248455D01*
X5623585Y-12248455D02*
X5623585Y-12267503D01*
X5756918Y-12067503D02*
X5775966Y-12067503D01*
X5775966Y-12067503D02*
X5795014Y-12077027D01*
X5795014Y-12077027D02*
X5804537Y-12086550D01*
X5804537Y-12086550D02*
X5814061Y-12105598D01*
X5814061Y-12105598D02*
X5823585Y-12143693D01*
X5823585Y-12143693D02*
X5823585Y-12191312D01*
X5823585Y-12191312D02*
X5814061Y-12229408D01*
X5814061Y-12229408D02*
X5804537Y-12248455D01*
X5804537Y-12248455D02*
X5795014Y-12257979D01*
X5795014Y-12257979D02*
X5775966Y-12267503D01*
X5775966Y-12267503D02*
X5756918Y-12267503D01*
X5756918Y-12267503D02*
X5737871Y-12257979D01*
X5737871Y-12257979D02*
X5728347Y-12248455D01*
X5728347Y-12248455D02*
X5718823Y-12229408D01*
X5718823Y-12229408D02*
X5709299Y-12191312D01*
X5709299Y-12191312D02*
X5709299Y-12143693D01*
X5709299Y-12143693D02*
X5718823Y-12105598D01*
X5718823Y-12105598D02*
X5728347Y-12086550D01*
X5728347Y-12086550D02*
X5737871Y-12077027D01*
X5737871Y-12077027D02*
X5756918Y-12067503D01*
X5899776Y-12086550D02*
X5909299Y-12077027D01*
X5909299Y-12077027D02*
X5928347Y-12067503D01*
X5928347Y-12067503D02*
X5975966Y-12067503D01*
X5975966Y-12067503D02*
X5995014Y-12077027D01*
X5995014Y-12077027D02*
X6004537Y-12086550D01*
X6004537Y-12086550D02*
X6014061Y-12105598D01*
X6014061Y-12105598D02*
X6014061Y-12124646D01*
X6014061Y-12124646D02*
X6004537Y-12153217D01*
X6004537Y-12153217D02*
X5890252Y-12267503D01*
X5890252Y-12267503D02*
X6014061Y-12267503D01*
X6080728Y-12067503D02*
X6204537Y-12067503D01*
X6204537Y-12067503D02*
X6137871Y-12143693D01*
X6137871Y-12143693D02*
X6166442Y-12143693D01*
X6166442Y-12143693D02*
X6185490Y-12153217D01*
X6185490Y-12153217D02*
X6195014Y-12162741D01*
X6195014Y-12162741D02*
X6204537Y-12181789D01*
X6204537Y-12181789D02*
X6204537Y-12229408D01*
X6204537Y-12229408D02*
X6195014Y-12248455D01*
X6195014Y-12248455D02*
X6185490Y-12257979D01*
X6185490Y-12257979D02*
X6166442Y-12267503D01*
X6166442Y-12267503D02*
X6109299Y-12267503D01*
X6109299Y-12267503D02*
X6090252Y-12257979D01*
X6090252Y-12257979D02*
X6080728Y-12248455D01*
X6375966Y-12067503D02*
X6337871Y-12067503D01*
X6337871Y-12067503D02*
X6318823Y-12077027D01*
X6318823Y-12077027D02*
X6309299Y-12086550D01*
X6309299Y-12086550D02*
X6290252Y-12115122D01*
X6290252Y-12115122D02*
X6280728Y-12153217D01*
X6280728Y-12153217D02*
X6280728Y-12229408D01*
X6280728Y-12229408D02*
X6290252Y-12248455D01*
X6290252Y-12248455D02*
X6299776Y-12257979D01*
X6299776Y-12257979D02*
X6318823Y-12267503D01*
X6318823Y-12267503D02*
X6356918Y-12267503D01*
X6356918Y-12267503D02*
X6375966Y-12257979D01*
X6375966Y-12257979D02*
X6385490Y-12248455D01*
X6385490Y-12248455D02*
X6395014Y-12229408D01*
X6395014Y-12229408D02*
X6395014Y-12181789D01*
X6395014Y-12181789D02*
X6385490Y-12162741D01*
X6385490Y-12162741D02*
X6375966Y-12153217D01*
X6375966Y-12153217D02*
X6356918Y-12143693D01*
X6356918Y-12143693D02*
X6318823Y-12143693D01*
X6318823Y-12143693D02*
X6299776Y-12153217D01*
X6299776Y-12153217D02*
X6290252Y-12162741D01*
X6290252Y-12162741D02*
X6280728Y-12181789D01*
X6471204Y-12067503D02*
X6471204Y-12105598D01*
X6547395Y-12067503D02*
X6547395Y-12105598D01*
X6842633Y-12343693D02*
X6833109Y-12334169D01*
X6833109Y-12334169D02*
X6814061Y-12305598D01*
X6814061Y-12305598D02*
X6804538Y-12286550D01*
X6804538Y-12286550D02*
X6795014Y-12257979D01*
X6795014Y-12257979D02*
X6785490Y-12210360D01*
X6785490Y-12210360D02*
X6785490Y-12172265D01*
X6785490Y-12172265D02*
X6795014Y-12124646D01*
X6795014Y-12124646D02*
X6804538Y-12096074D01*
X6804538Y-12096074D02*
X6814061Y-12077027D01*
X6814061Y-12077027D02*
X6833109Y-12048455D01*
X6833109Y-12048455D02*
X6842633Y-12038931D01*
X6956918Y-12067503D02*
X6975966Y-12067503D01*
X6975966Y-12067503D02*
X6995014Y-12077027D01*
X6995014Y-12077027D02*
X7004538Y-12086550D01*
X7004538Y-12086550D02*
X7014061Y-12105598D01*
X7014061Y-12105598D02*
X7023585Y-12143693D01*
X7023585Y-12143693D02*
X7023585Y-12191312D01*
X7023585Y-12191312D02*
X7014061Y-12229408D01*
X7014061Y-12229408D02*
X7004538Y-12248455D01*
X7004538Y-12248455D02*
X6995014Y-12257979D01*
X6995014Y-12257979D02*
X6975966Y-12267503D01*
X6975966Y-12267503D02*
X6956918Y-12267503D01*
X6956918Y-12267503D02*
X6937871Y-12257979D01*
X6937871Y-12257979D02*
X6928347Y-12248455D01*
X6928347Y-12248455D02*
X6918823Y-12229408D01*
X6918823Y-12229408D02*
X6909299Y-12191312D01*
X6909299Y-12191312D02*
X6909299Y-12143693D01*
X6909299Y-12143693D02*
X6918823Y-12105598D01*
X6918823Y-12105598D02*
X6928347Y-12086550D01*
X6928347Y-12086550D02*
X6937871Y-12077027D01*
X6937871Y-12077027D02*
X6956918Y-12067503D01*
X7261680Y-12267503D02*
X7261680Y-12067503D01*
X7347395Y-12267503D02*
X7347395Y-12162741D01*
X7347395Y-12162741D02*
X7337871Y-12143693D01*
X7337871Y-12143693D02*
X7318823Y-12134169D01*
X7318823Y-12134169D02*
X7290252Y-12134169D01*
X7290252Y-12134169D02*
X7271204Y-12143693D01*
X7271204Y-12143693D02*
X7261680Y-12153217D01*
X7471204Y-12267503D02*
X7452157Y-12257979D01*
X7452157Y-12257979D02*
X7442633Y-12248455D01*
X7442633Y-12248455D02*
X7433109Y-12229408D01*
X7433109Y-12229408D02*
X7433109Y-12172265D01*
X7433109Y-12172265D02*
X7442633Y-12153217D01*
X7442633Y-12153217D02*
X7452157Y-12143693D01*
X7452157Y-12143693D02*
X7471204Y-12134169D01*
X7471204Y-12134169D02*
X7499776Y-12134169D01*
X7499776Y-12134169D02*
X7518823Y-12143693D01*
X7518823Y-12143693D02*
X7528347Y-12153217D01*
X7528347Y-12153217D02*
X7537871Y-12172265D01*
X7537871Y-12172265D02*
X7537871Y-12229408D01*
X7537871Y-12229408D02*
X7528347Y-12248455D01*
X7528347Y-12248455D02*
X7518823Y-12257979D01*
X7518823Y-12257979D02*
X7499776Y-12267503D01*
X7499776Y-12267503D02*
X7471204Y-12267503D01*
X7652157Y-12267503D02*
X7633109Y-12257979D01*
X7633109Y-12257979D02*
X7623585Y-12238931D01*
X7623585Y-12238931D02*
X7623585Y-12067503D01*
X7804538Y-12257979D02*
X7785490Y-12267503D01*
X7785490Y-12267503D02*
X7747395Y-12267503D01*
X7747395Y-12267503D02*
X7728347Y-12257979D01*
X7728347Y-12257979D02*
X7718823Y-12238931D01*
X7718823Y-12238931D02*
X7718823Y-12162741D01*
X7718823Y-12162741D02*
X7728347Y-12143693D01*
X7728347Y-12143693D02*
X7747395Y-12134169D01*
X7747395Y-12134169D02*
X7785490Y-12134169D01*
X7785490Y-12134169D02*
X7804538Y-12143693D01*
X7804538Y-12143693D02*
X7814061Y-12162741D01*
X7814061Y-12162741D02*
X7814061Y-12181789D01*
X7814061Y-12181789D02*
X7718823Y-12200836D01*
X7890252Y-12257979D02*
X7909300Y-12267503D01*
X7909300Y-12267503D02*
X7947395Y-12267503D01*
X7947395Y-12267503D02*
X7966442Y-12257979D01*
X7966442Y-12257979D02*
X7975966Y-12238931D01*
X7975966Y-12238931D02*
X7975966Y-12229408D01*
X7975966Y-12229408D02*
X7966442Y-12210360D01*
X7966442Y-12210360D02*
X7947395Y-12200836D01*
X7947395Y-12200836D02*
X7918823Y-12200836D01*
X7918823Y-12200836D02*
X7899776Y-12191312D01*
X7899776Y-12191312D02*
X7890252Y-12172265D01*
X7890252Y-12172265D02*
X7890252Y-12162741D01*
X7890252Y-12162741D02*
X7899776Y-12143693D01*
X7899776Y-12143693D02*
X7918823Y-12134169D01*
X7918823Y-12134169D02*
X7947395Y-12134169D01*
X7947395Y-12134169D02*
X7966442Y-12143693D01*
X8214062Y-12191312D02*
X8366443Y-12191312D01*
X8290252Y-12267503D02*
X8290252Y-12115122D01*
X8699776Y-12134169D02*
X8699776Y-12267503D01*
X8652157Y-12057979D02*
X8604538Y-12200836D01*
X8604538Y-12200836D02*
X8728347Y-12200836D01*
X8947395Y-12257979D02*
X8966443Y-12267503D01*
X8966443Y-12267503D02*
X9004538Y-12267503D01*
X9004538Y-12267503D02*
X9023586Y-12257979D01*
X9023586Y-12257979D02*
X9033109Y-12238931D01*
X9033109Y-12238931D02*
X9033109Y-12229408D01*
X9033109Y-12229408D02*
X9023586Y-12210360D01*
X9023586Y-12210360D02*
X9004538Y-12200836D01*
X9004538Y-12200836D02*
X8975966Y-12200836D01*
X8975966Y-12200836D02*
X8956919Y-12191312D01*
X8956919Y-12191312D02*
X8947395Y-12172265D01*
X8947395Y-12172265D02*
X8947395Y-12162741D01*
X8947395Y-12162741D02*
X8956919Y-12143693D01*
X8956919Y-12143693D02*
X8975966Y-12134169D01*
X8975966Y-12134169D02*
X9004538Y-12134169D01*
X9004538Y-12134169D02*
X9023586Y-12143693D01*
X9147395Y-12267503D02*
X9128347Y-12257979D01*
X9128347Y-12257979D02*
X9118824Y-12238931D01*
X9118824Y-12238931D02*
X9118824Y-12067503D01*
X9252157Y-12267503D02*
X9233109Y-12257979D01*
X9233109Y-12257979D02*
X9223586Y-12248455D01*
X9223586Y-12248455D02*
X9214062Y-12229408D01*
X9214062Y-12229408D02*
X9214062Y-12172265D01*
X9214062Y-12172265D02*
X9223586Y-12153217D01*
X9223586Y-12153217D02*
X9233109Y-12143693D01*
X9233109Y-12143693D02*
X9252157Y-12134169D01*
X9252157Y-12134169D02*
X9280728Y-12134169D01*
X9280728Y-12134169D02*
X9299776Y-12143693D01*
X9299776Y-12143693D02*
X9309300Y-12153217D01*
X9309300Y-12153217D02*
X9318824Y-12172265D01*
X9318824Y-12172265D02*
X9318824Y-12229408D01*
X9318824Y-12229408D02*
X9309300Y-12248455D01*
X9309300Y-12248455D02*
X9299776Y-12257979D01*
X9299776Y-12257979D02*
X9280728Y-12267503D01*
X9280728Y-12267503D02*
X9252157Y-12267503D01*
X9375967Y-12134169D02*
X9452157Y-12134169D01*
X9404538Y-12067503D02*
X9404538Y-12238931D01*
X9404538Y-12238931D02*
X9414062Y-12257979D01*
X9414062Y-12257979D02*
X9433109Y-12267503D01*
X9433109Y-12267503D02*
X9452157Y-12267503D01*
X9509300Y-12257979D02*
X9528347Y-12267503D01*
X9528347Y-12267503D02*
X9566443Y-12267503D01*
X9566443Y-12267503D02*
X9585490Y-12257979D01*
X9585490Y-12257979D02*
X9595014Y-12238931D01*
X9595014Y-12238931D02*
X9595014Y-12229408D01*
X9595014Y-12229408D02*
X9585490Y-12210360D01*
X9585490Y-12210360D02*
X9566443Y-12200836D01*
X9566443Y-12200836D02*
X9537871Y-12200836D01*
X9537871Y-12200836D02*
X9518824Y-12191312D01*
X9518824Y-12191312D02*
X9509300Y-12172265D01*
X9509300Y-12172265D02*
X9509300Y-12162741D01*
X9509300Y-12162741D02*
X9518824Y-12143693D01*
X9518824Y-12143693D02*
X9537871Y-12134169D01*
X9537871Y-12134169D02*
X9566443Y-12134169D01*
X9566443Y-12134169D02*
X9585490Y-12143693D01*
X9661681Y-12343693D02*
X9671205Y-12334169D01*
X9671205Y-12334169D02*
X9690252Y-12305598D01*
X9690252Y-12305598D02*
X9699776Y-12286550D01*
X9699776Y-12286550D02*
X9709300Y-12257979D01*
X9709300Y-12257979D02*
X9718824Y-12210360D01*
X9718824Y-12210360D02*
X9718824Y-12172265D01*
X9718824Y-12172265D02*
X9709300Y-12124646D01*
X9709300Y-12124646D02*
X9699776Y-12096074D01*
X9699776Y-12096074D02*
X9690252Y-12077027D01*
X9690252Y-12077027D02*
X9671205Y-12048455D01*
X9671205Y-12048455D02*
X9661681Y-12038931D01*
D14*
X3230070Y-12402519D02*
X3230070Y-12477519D01*
X3192570Y-12440019D02*
X3267570Y-12440019D01*
D11*
X3566442Y-12331503D02*
X3585490Y-12331503D01*
X3585490Y-12331503D02*
X3604537Y-12341027D01*
X3604537Y-12341027D02*
X3614061Y-12350550D01*
X3614061Y-12350550D02*
X3623585Y-12369598D01*
X3623585Y-12369598D02*
X3633109Y-12407693D01*
X3633109Y-12407693D02*
X3633109Y-12455312D01*
X3633109Y-12455312D02*
X3623585Y-12493408D01*
X3623585Y-12493408D02*
X3614061Y-12512455D01*
X3614061Y-12512455D02*
X3604537Y-12521979D01*
X3604537Y-12521979D02*
X3585490Y-12531503D01*
X3585490Y-12531503D02*
X3566442Y-12531503D01*
X3566442Y-12531503D02*
X3547394Y-12521979D01*
X3547394Y-12521979D02*
X3537871Y-12512455D01*
X3537871Y-12512455D02*
X3528347Y-12493408D01*
X3528347Y-12493408D02*
X3518823Y-12455312D01*
X3518823Y-12455312D02*
X3518823Y-12407693D01*
X3518823Y-12407693D02*
X3528347Y-12369598D01*
X3528347Y-12369598D02*
X3537871Y-12350550D01*
X3537871Y-12350550D02*
X3547394Y-12341027D01*
X3547394Y-12341027D02*
X3566442Y-12331503D01*
X3718823Y-12512455D02*
X3728347Y-12521979D01*
X3728347Y-12521979D02*
X3718823Y-12531503D01*
X3718823Y-12531503D02*
X3709299Y-12521979D01*
X3709299Y-12521979D02*
X3718823Y-12512455D01*
X3718823Y-12512455D02*
X3718823Y-12531503D01*
X3795013Y-12331503D02*
X3928347Y-12331503D01*
X3928347Y-12331503D02*
X3842632Y-12531503D01*
X4099775Y-12331503D02*
X4004537Y-12331503D01*
X4004537Y-12331503D02*
X3995013Y-12426741D01*
X3995013Y-12426741D02*
X4004537Y-12417217D01*
X4004537Y-12417217D02*
X4023585Y-12407693D01*
X4023585Y-12407693D02*
X4071204Y-12407693D01*
X4071204Y-12407693D02*
X4090252Y-12417217D01*
X4090252Y-12417217D02*
X4099775Y-12426741D01*
X4099775Y-12426741D02*
X4109299Y-12445789D01*
X4109299Y-12445789D02*
X4109299Y-12493408D01*
X4109299Y-12493408D02*
X4099775Y-12512455D01*
X4099775Y-12512455D02*
X4090252Y-12521979D01*
X4090252Y-12521979D02*
X4071204Y-12531503D01*
X4071204Y-12531503D02*
X4023585Y-12531503D01*
X4023585Y-12531503D02*
X4004537Y-12521979D01*
X4004537Y-12521979D02*
X3995013Y-12512455D01*
X4233109Y-12331503D02*
X4252156Y-12331503D01*
X4252156Y-12331503D02*
X4271204Y-12341027D01*
X4271204Y-12341027D02*
X4280728Y-12350550D01*
X4280728Y-12350550D02*
X4290252Y-12369598D01*
X4290252Y-12369598D02*
X4299775Y-12407693D01*
X4299775Y-12407693D02*
X4299775Y-12455312D01*
X4299775Y-12455312D02*
X4290252Y-12493408D01*
X4290252Y-12493408D02*
X4280728Y-12512455D01*
X4280728Y-12512455D02*
X4271204Y-12521979D01*
X4271204Y-12521979D02*
X4252156Y-12531503D01*
X4252156Y-12531503D02*
X4233109Y-12531503D01*
X4233109Y-12531503D02*
X4214061Y-12521979D01*
X4214061Y-12521979D02*
X4204537Y-12512455D01*
X4204537Y-12512455D02*
X4195014Y-12493408D01*
X4195014Y-12493408D02*
X4185490Y-12455312D01*
X4185490Y-12455312D02*
X4185490Y-12407693D01*
X4185490Y-12407693D02*
X4195014Y-12369598D01*
X4195014Y-12369598D02*
X4204537Y-12350550D01*
X4204537Y-12350550D02*
X4214061Y-12341027D01*
X4214061Y-12341027D02*
X4233109Y-12331503D01*
X4385490Y-12531503D02*
X4385490Y-12398169D01*
X4385490Y-12417217D02*
X4395014Y-12407693D01*
X4395014Y-12407693D02*
X4414061Y-12398169D01*
X4414061Y-12398169D02*
X4442633Y-12398169D01*
X4442633Y-12398169D02*
X4461680Y-12407693D01*
X4461680Y-12407693D02*
X4471204Y-12426741D01*
X4471204Y-12426741D02*
X4471204Y-12531503D01*
X4471204Y-12426741D02*
X4480728Y-12407693D01*
X4480728Y-12407693D02*
X4499775Y-12398169D01*
X4499775Y-12398169D02*
X4528347Y-12398169D01*
X4528347Y-12398169D02*
X4547395Y-12407693D01*
X4547395Y-12407693D02*
X4556918Y-12426741D01*
X4556918Y-12426741D02*
X4556918Y-12531503D01*
X4652156Y-12531503D02*
X4652156Y-12398169D01*
X4652156Y-12417217D02*
X4661680Y-12407693D01*
X4661680Y-12407693D02*
X4680728Y-12398169D01*
X4680728Y-12398169D02*
X4709299Y-12398169D01*
X4709299Y-12398169D02*
X4728347Y-12407693D01*
X4728347Y-12407693D02*
X4737871Y-12426741D01*
X4737871Y-12426741D02*
X4737871Y-12531503D01*
X4737871Y-12426741D02*
X4747395Y-12407693D01*
X4747395Y-12407693D02*
X4766442Y-12398169D01*
X4766442Y-12398169D02*
X4795014Y-12398169D01*
X4795014Y-12398169D02*
X4814061Y-12407693D01*
X4814061Y-12407693D02*
X4823585Y-12426741D01*
X4823585Y-12426741D02*
X4823585Y-12531503D01*
X5214061Y-12321979D02*
X5042633Y-12579122D01*
X5471204Y-12331503D02*
X5490252Y-12331503D01*
X5490252Y-12331503D02*
X5509299Y-12341027D01*
X5509299Y-12341027D02*
X5518823Y-12350550D01*
X5518823Y-12350550D02*
X5528347Y-12369598D01*
X5528347Y-12369598D02*
X5537871Y-12407693D01*
X5537871Y-12407693D02*
X5537871Y-12455312D01*
X5537871Y-12455312D02*
X5528347Y-12493408D01*
X5528347Y-12493408D02*
X5518823Y-12512455D01*
X5518823Y-12512455D02*
X5509299Y-12521979D01*
X5509299Y-12521979D02*
X5490252Y-12531503D01*
X5490252Y-12531503D02*
X5471204Y-12531503D01*
X5471204Y-12531503D02*
X5452157Y-12521979D01*
X5452157Y-12521979D02*
X5442633Y-12512455D01*
X5442633Y-12512455D02*
X5433109Y-12493408D01*
X5433109Y-12493408D02*
X5423585Y-12455312D01*
X5423585Y-12455312D02*
X5423585Y-12407693D01*
X5423585Y-12407693D02*
X5433109Y-12369598D01*
X5433109Y-12369598D02*
X5442633Y-12350550D01*
X5442633Y-12350550D02*
X5452157Y-12341027D01*
X5452157Y-12341027D02*
X5471204Y-12331503D01*
X5623585Y-12512455D02*
X5633109Y-12521979D01*
X5633109Y-12521979D02*
X5623585Y-12531503D01*
X5623585Y-12531503D02*
X5614061Y-12521979D01*
X5614061Y-12521979D02*
X5623585Y-12512455D01*
X5623585Y-12512455D02*
X5623585Y-12531503D01*
X5756918Y-12331503D02*
X5775966Y-12331503D01*
X5775966Y-12331503D02*
X5795014Y-12341027D01*
X5795014Y-12341027D02*
X5804537Y-12350550D01*
X5804537Y-12350550D02*
X5814061Y-12369598D01*
X5814061Y-12369598D02*
X5823585Y-12407693D01*
X5823585Y-12407693D02*
X5823585Y-12455312D01*
X5823585Y-12455312D02*
X5814061Y-12493408D01*
X5814061Y-12493408D02*
X5804537Y-12512455D01*
X5804537Y-12512455D02*
X5795014Y-12521979D01*
X5795014Y-12521979D02*
X5775966Y-12531503D01*
X5775966Y-12531503D02*
X5756918Y-12531503D01*
X5756918Y-12531503D02*
X5737871Y-12521979D01*
X5737871Y-12521979D02*
X5728347Y-12512455D01*
X5728347Y-12512455D02*
X5718823Y-12493408D01*
X5718823Y-12493408D02*
X5709299Y-12455312D01*
X5709299Y-12455312D02*
X5709299Y-12407693D01*
X5709299Y-12407693D02*
X5718823Y-12369598D01*
X5718823Y-12369598D02*
X5728347Y-12350550D01*
X5728347Y-12350550D02*
X5737871Y-12341027D01*
X5737871Y-12341027D02*
X5756918Y-12331503D01*
X5899776Y-12350550D02*
X5909299Y-12341027D01*
X5909299Y-12341027D02*
X5928347Y-12331503D01*
X5928347Y-12331503D02*
X5975966Y-12331503D01*
X5975966Y-12331503D02*
X5995014Y-12341027D01*
X5995014Y-12341027D02*
X6004537Y-12350550D01*
X6004537Y-12350550D02*
X6014061Y-12369598D01*
X6014061Y-12369598D02*
X6014061Y-12388646D01*
X6014061Y-12388646D02*
X6004537Y-12417217D01*
X6004537Y-12417217D02*
X5890252Y-12531503D01*
X5890252Y-12531503D02*
X6014061Y-12531503D01*
X6109299Y-12531503D02*
X6147395Y-12531503D01*
X6147395Y-12531503D02*
X6166442Y-12521979D01*
X6166442Y-12521979D02*
X6175966Y-12512455D01*
X6175966Y-12512455D02*
X6195014Y-12483884D01*
X6195014Y-12483884D02*
X6204537Y-12445789D01*
X6204537Y-12445789D02*
X6204537Y-12369598D01*
X6204537Y-12369598D02*
X6195014Y-12350550D01*
X6195014Y-12350550D02*
X6185490Y-12341027D01*
X6185490Y-12341027D02*
X6166442Y-12331503D01*
X6166442Y-12331503D02*
X6128347Y-12331503D01*
X6128347Y-12331503D02*
X6109299Y-12341027D01*
X6109299Y-12341027D02*
X6099776Y-12350550D01*
X6099776Y-12350550D02*
X6090252Y-12369598D01*
X6090252Y-12369598D02*
X6090252Y-12417217D01*
X6090252Y-12417217D02*
X6099776Y-12436265D01*
X6099776Y-12436265D02*
X6109299Y-12445789D01*
X6109299Y-12445789D02*
X6128347Y-12455312D01*
X6128347Y-12455312D02*
X6166442Y-12455312D01*
X6166442Y-12455312D02*
X6185490Y-12445789D01*
X6185490Y-12445789D02*
X6195014Y-12436265D01*
X6195014Y-12436265D02*
X6204537Y-12417217D01*
X6385490Y-12331503D02*
X6290252Y-12331503D01*
X6290252Y-12331503D02*
X6280728Y-12426741D01*
X6280728Y-12426741D02*
X6290252Y-12417217D01*
X6290252Y-12417217D02*
X6309299Y-12407693D01*
X6309299Y-12407693D02*
X6356918Y-12407693D01*
X6356918Y-12407693D02*
X6375966Y-12417217D01*
X6375966Y-12417217D02*
X6385490Y-12426741D01*
X6385490Y-12426741D02*
X6395014Y-12445789D01*
X6395014Y-12445789D02*
X6395014Y-12493408D01*
X6395014Y-12493408D02*
X6385490Y-12512455D01*
X6385490Y-12512455D02*
X6375966Y-12521979D01*
X6375966Y-12521979D02*
X6356918Y-12531503D01*
X6356918Y-12531503D02*
X6309299Y-12531503D01*
X6309299Y-12531503D02*
X6290252Y-12521979D01*
X6290252Y-12521979D02*
X6280728Y-12512455D01*
X6471204Y-12331503D02*
X6471204Y-12369598D01*
X6547395Y-12331503D02*
X6547395Y-12369598D01*
X6842633Y-12607693D02*
X6833109Y-12598169D01*
X6833109Y-12598169D02*
X6814061Y-12569598D01*
X6814061Y-12569598D02*
X6804538Y-12550550D01*
X6804538Y-12550550D02*
X6795014Y-12521979D01*
X6795014Y-12521979D02*
X6785490Y-12474360D01*
X6785490Y-12474360D02*
X6785490Y-12436265D01*
X6785490Y-12436265D02*
X6795014Y-12388646D01*
X6795014Y-12388646D02*
X6804538Y-12360074D01*
X6804538Y-12360074D02*
X6814061Y-12341027D01*
X6814061Y-12341027D02*
X6833109Y-12312455D01*
X6833109Y-12312455D02*
X6842633Y-12302931D01*
X7004538Y-12398169D02*
X7004538Y-12531503D01*
X6956918Y-12321979D02*
X6909299Y-12464836D01*
X6909299Y-12464836D02*
X7033109Y-12464836D01*
X7261680Y-12531503D02*
X7261680Y-12331503D01*
X7347395Y-12531503D02*
X7347395Y-12426741D01*
X7347395Y-12426741D02*
X7337871Y-12407693D01*
X7337871Y-12407693D02*
X7318823Y-12398169D01*
X7318823Y-12398169D02*
X7290252Y-12398169D01*
X7290252Y-12398169D02*
X7271204Y-12407693D01*
X7271204Y-12407693D02*
X7261680Y-12417217D01*
X7471204Y-12531503D02*
X7452157Y-12521979D01*
X7452157Y-12521979D02*
X7442633Y-12512455D01*
X7442633Y-12512455D02*
X7433109Y-12493408D01*
X7433109Y-12493408D02*
X7433109Y-12436265D01*
X7433109Y-12436265D02*
X7442633Y-12417217D01*
X7442633Y-12417217D02*
X7452157Y-12407693D01*
X7452157Y-12407693D02*
X7471204Y-12398169D01*
X7471204Y-12398169D02*
X7499776Y-12398169D01*
X7499776Y-12398169D02*
X7518823Y-12407693D01*
X7518823Y-12407693D02*
X7528347Y-12417217D01*
X7528347Y-12417217D02*
X7537871Y-12436265D01*
X7537871Y-12436265D02*
X7537871Y-12493408D01*
X7537871Y-12493408D02*
X7528347Y-12512455D01*
X7528347Y-12512455D02*
X7518823Y-12521979D01*
X7518823Y-12521979D02*
X7499776Y-12531503D01*
X7499776Y-12531503D02*
X7471204Y-12531503D01*
X7652157Y-12531503D02*
X7633109Y-12521979D01*
X7633109Y-12521979D02*
X7623585Y-12502931D01*
X7623585Y-12502931D02*
X7623585Y-12331503D01*
X7804538Y-12521979D02*
X7785490Y-12531503D01*
X7785490Y-12531503D02*
X7747395Y-12531503D01*
X7747395Y-12531503D02*
X7728347Y-12521979D01*
X7728347Y-12521979D02*
X7718823Y-12502931D01*
X7718823Y-12502931D02*
X7718823Y-12426741D01*
X7718823Y-12426741D02*
X7728347Y-12407693D01*
X7728347Y-12407693D02*
X7747395Y-12398169D01*
X7747395Y-12398169D02*
X7785490Y-12398169D01*
X7785490Y-12398169D02*
X7804538Y-12407693D01*
X7804538Y-12407693D02*
X7814061Y-12426741D01*
X7814061Y-12426741D02*
X7814061Y-12445789D01*
X7814061Y-12445789D02*
X7718823Y-12464836D01*
X7890252Y-12521979D02*
X7909300Y-12531503D01*
X7909300Y-12531503D02*
X7947395Y-12531503D01*
X7947395Y-12531503D02*
X7966442Y-12521979D01*
X7966442Y-12521979D02*
X7975966Y-12502931D01*
X7975966Y-12502931D02*
X7975966Y-12493408D01*
X7975966Y-12493408D02*
X7966442Y-12474360D01*
X7966442Y-12474360D02*
X7947395Y-12464836D01*
X7947395Y-12464836D02*
X7918823Y-12464836D01*
X7918823Y-12464836D02*
X7899776Y-12455312D01*
X7899776Y-12455312D02*
X7890252Y-12436265D01*
X7890252Y-12436265D02*
X7890252Y-12426741D01*
X7890252Y-12426741D02*
X7899776Y-12407693D01*
X7899776Y-12407693D02*
X7918823Y-12398169D01*
X7918823Y-12398169D02*
X7947395Y-12398169D01*
X7947395Y-12398169D02*
X7966442Y-12407693D01*
X8042633Y-12607693D02*
X8052157Y-12598169D01*
X8052157Y-12598169D02*
X8071204Y-12569598D01*
X8071204Y-12569598D02*
X8080728Y-12550550D01*
X8080728Y-12550550D02*
X8090252Y-12521979D01*
X8090252Y-12521979D02*
X8099776Y-12474360D01*
X8099776Y-12474360D02*
X8099776Y-12436265D01*
X8099776Y-12436265D02*
X8090252Y-12388646D01*
X8090252Y-12388646D02*
X8080728Y-12360074D01*
X8080728Y-12360074D02*
X8071204Y-12341027D01*
X8071204Y-12341027D02*
X8052157Y-12312455D01*
X8052157Y-12312455D02*
X8042633Y-12302931D01*
D10*
X3252926Y-12739375D02*
X3252926Y-12668663D01*
X3182214Y-12668663D01*
X3182214Y-12739375D01*
X3252926Y-12739375D01*
D11*
X3633109Y-12795503D02*
X3518823Y-12795503D01*
X3575966Y-12795503D02*
X3575966Y-12595503D01*
X3575966Y-12595503D02*
X3556918Y-12624074D01*
X3556918Y-12624074D02*
X3537871Y-12643122D01*
X3537871Y-12643122D02*
X3518823Y-12652646D01*
X3718823Y-12776455D02*
X3728347Y-12785979D01*
X3728347Y-12785979D02*
X3718823Y-12795503D01*
X3718823Y-12795503D02*
X3709299Y-12785979D01*
X3709299Y-12785979D02*
X3718823Y-12776455D01*
X3718823Y-12776455D02*
X3718823Y-12795503D01*
X3852156Y-12595503D02*
X3871204Y-12595503D01*
X3871204Y-12595503D02*
X3890252Y-12605027D01*
X3890252Y-12605027D02*
X3899775Y-12614550D01*
X3899775Y-12614550D02*
X3909299Y-12633598D01*
X3909299Y-12633598D02*
X3918823Y-12671693D01*
X3918823Y-12671693D02*
X3918823Y-12719312D01*
X3918823Y-12719312D02*
X3909299Y-12757408D01*
X3909299Y-12757408D02*
X3899775Y-12776455D01*
X3899775Y-12776455D02*
X3890252Y-12785979D01*
X3890252Y-12785979D02*
X3871204Y-12795503D01*
X3871204Y-12795503D02*
X3852156Y-12795503D01*
X3852156Y-12795503D02*
X3833109Y-12785979D01*
X3833109Y-12785979D02*
X3823585Y-12776455D01*
X3823585Y-12776455D02*
X3814061Y-12757408D01*
X3814061Y-12757408D02*
X3804537Y-12719312D01*
X3804537Y-12719312D02*
X3804537Y-12671693D01*
X3804537Y-12671693D02*
X3814061Y-12633598D01*
X3814061Y-12633598D02*
X3823585Y-12614550D01*
X3823585Y-12614550D02*
X3833109Y-12605027D01*
X3833109Y-12605027D02*
X3852156Y-12595503D01*
X4042632Y-12595503D02*
X4061680Y-12595503D01*
X4061680Y-12595503D02*
X4080728Y-12605027D01*
X4080728Y-12605027D02*
X4090252Y-12614550D01*
X4090252Y-12614550D02*
X4099775Y-12633598D01*
X4099775Y-12633598D02*
X4109299Y-12671693D01*
X4109299Y-12671693D02*
X4109299Y-12719312D01*
X4109299Y-12719312D02*
X4099775Y-12757408D01*
X4099775Y-12757408D02*
X4090252Y-12776455D01*
X4090252Y-12776455D02*
X4080728Y-12785979D01*
X4080728Y-12785979D02*
X4061680Y-12795503D01*
X4061680Y-12795503D02*
X4042632Y-12795503D01*
X4042632Y-12795503D02*
X4023585Y-12785979D01*
X4023585Y-12785979D02*
X4014061Y-12776455D01*
X4014061Y-12776455D02*
X4004537Y-12757408D01*
X4004537Y-12757408D02*
X3995013Y-12719312D01*
X3995013Y-12719312D02*
X3995013Y-12671693D01*
X3995013Y-12671693D02*
X4004537Y-12633598D01*
X4004537Y-12633598D02*
X4014061Y-12614550D01*
X4014061Y-12614550D02*
X4023585Y-12605027D01*
X4023585Y-12605027D02*
X4042632Y-12595503D01*
X4233109Y-12595503D02*
X4252156Y-12595503D01*
X4252156Y-12595503D02*
X4271204Y-12605027D01*
X4271204Y-12605027D02*
X4280728Y-12614550D01*
X4280728Y-12614550D02*
X4290252Y-12633598D01*
X4290252Y-12633598D02*
X4299775Y-12671693D01*
X4299775Y-12671693D02*
X4299775Y-12719312D01*
X4299775Y-12719312D02*
X4290252Y-12757408D01*
X4290252Y-12757408D02*
X4280728Y-12776455D01*
X4280728Y-12776455D02*
X4271204Y-12785979D01*
X4271204Y-12785979D02*
X4252156Y-12795503D01*
X4252156Y-12795503D02*
X4233109Y-12795503D01*
X4233109Y-12795503D02*
X4214061Y-12785979D01*
X4214061Y-12785979D02*
X4204537Y-12776455D01*
X4204537Y-12776455D02*
X4195014Y-12757408D01*
X4195014Y-12757408D02*
X4185490Y-12719312D01*
X4185490Y-12719312D02*
X4185490Y-12671693D01*
X4185490Y-12671693D02*
X4195014Y-12633598D01*
X4195014Y-12633598D02*
X4204537Y-12614550D01*
X4204537Y-12614550D02*
X4214061Y-12605027D01*
X4214061Y-12605027D02*
X4233109Y-12595503D01*
X4385490Y-12795503D02*
X4385490Y-12662169D01*
X4385490Y-12681217D02*
X4395014Y-12671693D01*
X4395014Y-12671693D02*
X4414061Y-12662169D01*
X4414061Y-12662169D02*
X4442633Y-12662169D01*
X4442633Y-12662169D02*
X4461680Y-12671693D01*
X4461680Y-12671693D02*
X4471204Y-12690741D01*
X4471204Y-12690741D02*
X4471204Y-12795503D01*
X4471204Y-12690741D02*
X4480728Y-12671693D01*
X4480728Y-12671693D02*
X4499775Y-12662169D01*
X4499775Y-12662169D02*
X4528347Y-12662169D01*
X4528347Y-12662169D02*
X4547395Y-12671693D01*
X4547395Y-12671693D02*
X4556918Y-12690741D01*
X4556918Y-12690741D02*
X4556918Y-12795503D01*
X4652156Y-12795503D02*
X4652156Y-12662169D01*
X4652156Y-12681217D02*
X4661680Y-12671693D01*
X4661680Y-12671693D02*
X4680728Y-12662169D01*
X4680728Y-12662169D02*
X4709299Y-12662169D01*
X4709299Y-12662169D02*
X4728347Y-12671693D01*
X4728347Y-12671693D02*
X4737871Y-12690741D01*
X4737871Y-12690741D02*
X4737871Y-12795503D01*
X4737871Y-12690741D02*
X4747395Y-12671693D01*
X4747395Y-12671693D02*
X4766442Y-12662169D01*
X4766442Y-12662169D02*
X4795014Y-12662169D01*
X4795014Y-12662169D02*
X4814061Y-12671693D01*
X4814061Y-12671693D02*
X4823585Y-12690741D01*
X4823585Y-12690741D02*
X4823585Y-12795503D01*
X5214061Y-12585979D02*
X5042633Y-12843122D01*
X5471204Y-12595503D02*
X5490252Y-12595503D01*
X5490252Y-12595503D02*
X5509299Y-12605027D01*
X5509299Y-12605027D02*
X5518823Y-12614550D01*
X5518823Y-12614550D02*
X5528347Y-12633598D01*
X5528347Y-12633598D02*
X5537871Y-12671693D01*
X5537871Y-12671693D02*
X5537871Y-12719312D01*
X5537871Y-12719312D02*
X5528347Y-12757408D01*
X5528347Y-12757408D02*
X5518823Y-12776455D01*
X5518823Y-12776455D02*
X5509299Y-12785979D01*
X5509299Y-12785979D02*
X5490252Y-12795503D01*
X5490252Y-12795503D02*
X5471204Y-12795503D01*
X5471204Y-12795503D02*
X5452157Y-12785979D01*
X5452157Y-12785979D02*
X5442633Y-12776455D01*
X5442633Y-12776455D02*
X5433109Y-12757408D01*
X5433109Y-12757408D02*
X5423585Y-12719312D01*
X5423585Y-12719312D02*
X5423585Y-12671693D01*
X5423585Y-12671693D02*
X5433109Y-12633598D01*
X5433109Y-12633598D02*
X5442633Y-12614550D01*
X5442633Y-12614550D02*
X5452157Y-12605027D01*
X5452157Y-12605027D02*
X5471204Y-12595503D01*
X5623585Y-12776455D02*
X5633109Y-12785979D01*
X5633109Y-12785979D02*
X5623585Y-12795503D01*
X5623585Y-12795503D02*
X5614061Y-12785979D01*
X5614061Y-12785979D02*
X5623585Y-12776455D01*
X5623585Y-12776455D02*
X5623585Y-12795503D01*
X5756918Y-12595503D02*
X5775966Y-12595503D01*
X5775966Y-12595503D02*
X5795014Y-12605027D01*
X5795014Y-12605027D02*
X5804537Y-12614550D01*
X5804537Y-12614550D02*
X5814061Y-12633598D01*
X5814061Y-12633598D02*
X5823585Y-12671693D01*
X5823585Y-12671693D02*
X5823585Y-12719312D01*
X5823585Y-12719312D02*
X5814061Y-12757408D01*
X5814061Y-12757408D02*
X5804537Y-12776455D01*
X5804537Y-12776455D02*
X5795014Y-12785979D01*
X5795014Y-12785979D02*
X5775966Y-12795503D01*
X5775966Y-12795503D02*
X5756918Y-12795503D01*
X5756918Y-12795503D02*
X5737871Y-12785979D01*
X5737871Y-12785979D02*
X5728347Y-12776455D01*
X5728347Y-12776455D02*
X5718823Y-12757408D01*
X5718823Y-12757408D02*
X5709299Y-12719312D01*
X5709299Y-12719312D02*
X5709299Y-12671693D01*
X5709299Y-12671693D02*
X5718823Y-12633598D01*
X5718823Y-12633598D02*
X5728347Y-12614550D01*
X5728347Y-12614550D02*
X5737871Y-12605027D01*
X5737871Y-12605027D02*
X5756918Y-12595503D01*
X5890252Y-12595503D02*
X6014061Y-12595503D01*
X6014061Y-12595503D02*
X5947395Y-12671693D01*
X5947395Y-12671693D02*
X5975966Y-12671693D01*
X5975966Y-12671693D02*
X5995014Y-12681217D01*
X5995014Y-12681217D02*
X6004537Y-12690741D01*
X6004537Y-12690741D02*
X6014061Y-12709789D01*
X6014061Y-12709789D02*
X6014061Y-12757408D01*
X6014061Y-12757408D02*
X6004537Y-12776455D01*
X6004537Y-12776455D02*
X5995014Y-12785979D01*
X5995014Y-12785979D02*
X5975966Y-12795503D01*
X5975966Y-12795503D02*
X5918823Y-12795503D01*
X5918823Y-12795503D02*
X5899776Y-12785979D01*
X5899776Y-12785979D02*
X5890252Y-12776455D01*
X6109299Y-12795503D02*
X6147395Y-12795503D01*
X6147395Y-12795503D02*
X6166442Y-12785979D01*
X6166442Y-12785979D02*
X6175966Y-12776455D01*
X6175966Y-12776455D02*
X6195014Y-12747884D01*
X6195014Y-12747884D02*
X6204537Y-12709789D01*
X6204537Y-12709789D02*
X6204537Y-12633598D01*
X6204537Y-12633598D02*
X6195014Y-12614550D01*
X6195014Y-12614550D02*
X6185490Y-12605027D01*
X6185490Y-12605027D02*
X6166442Y-12595503D01*
X6166442Y-12595503D02*
X6128347Y-12595503D01*
X6128347Y-12595503D02*
X6109299Y-12605027D01*
X6109299Y-12605027D02*
X6099776Y-12614550D01*
X6099776Y-12614550D02*
X6090252Y-12633598D01*
X6090252Y-12633598D02*
X6090252Y-12681217D01*
X6090252Y-12681217D02*
X6099776Y-12700265D01*
X6099776Y-12700265D02*
X6109299Y-12709789D01*
X6109299Y-12709789D02*
X6128347Y-12719312D01*
X6128347Y-12719312D02*
X6166442Y-12719312D01*
X6166442Y-12719312D02*
X6185490Y-12709789D01*
X6185490Y-12709789D02*
X6195014Y-12700265D01*
X6195014Y-12700265D02*
X6204537Y-12681217D01*
X6375966Y-12662169D02*
X6375966Y-12795503D01*
X6328347Y-12585979D02*
X6280728Y-12728836D01*
X6280728Y-12728836D02*
X6404537Y-12728836D01*
X6471204Y-12595503D02*
X6471204Y-12633598D01*
X6547395Y-12595503D02*
X6547395Y-12633598D01*
X6842633Y-12871693D02*
X6833109Y-12862169D01*
X6833109Y-12862169D02*
X6814061Y-12833598D01*
X6814061Y-12833598D02*
X6804538Y-12814550D01*
X6804538Y-12814550D02*
X6795014Y-12785979D01*
X6795014Y-12785979D02*
X6785490Y-12738360D01*
X6785490Y-12738360D02*
X6785490Y-12700265D01*
X6785490Y-12700265D02*
X6795014Y-12652646D01*
X6795014Y-12652646D02*
X6804538Y-12624074D01*
X6804538Y-12624074D02*
X6814061Y-12605027D01*
X6814061Y-12605027D02*
X6833109Y-12576455D01*
X6833109Y-12576455D02*
X6842633Y-12566931D01*
X7004538Y-12595503D02*
X6966442Y-12595503D01*
X6966442Y-12595503D02*
X6947395Y-12605027D01*
X6947395Y-12605027D02*
X6937871Y-12614550D01*
X6937871Y-12614550D02*
X6918823Y-12643122D01*
X6918823Y-12643122D02*
X6909299Y-12681217D01*
X6909299Y-12681217D02*
X6909299Y-12757408D01*
X6909299Y-12757408D02*
X6918823Y-12776455D01*
X6918823Y-12776455D02*
X6928347Y-12785979D01*
X6928347Y-12785979D02*
X6947395Y-12795503D01*
X6947395Y-12795503D02*
X6985490Y-12795503D01*
X6985490Y-12795503D02*
X7004538Y-12785979D01*
X7004538Y-12785979D02*
X7014061Y-12776455D01*
X7014061Y-12776455D02*
X7023585Y-12757408D01*
X7023585Y-12757408D02*
X7023585Y-12709789D01*
X7023585Y-12709789D02*
X7014061Y-12690741D01*
X7014061Y-12690741D02*
X7004538Y-12681217D01*
X7004538Y-12681217D02*
X6985490Y-12671693D01*
X6985490Y-12671693D02*
X6947395Y-12671693D01*
X6947395Y-12671693D02*
X6928347Y-12681217D01*
X6928347Y-12681217D02*
X6918823Y-12690741D01*
X6918823Y-12690741D02*
X6909299Y-12709789D01*
X7261680Y-12795503D02*
X7261680Y-12595503D01*
X7347395Y-12795503D02*
X7347395Y-12690741D01*
X7347395Y-12690741D02*
X7337871Y-12671693D01*
X7337871Y-12671693D02*
X7318823Y-12662169D01*
X7318823Y-12662169D02*
X7290252Y-12662169D01*
X7290252Y-12662169D02*
X7271204Y-12671693D01*
X7271204Y-12671693D02*
X7261680Y-12681217D01*
X7471204Y-12795503D02*
X7452157Y-12785979D01*
X7452157Y-12785979D02*
X7442633Y-12776455D01*
X7442633Y-12776455D02*
X7433109Y-12757408D01*
X7433109Y-12757408D02*
X7433109Y-12700265D01*
X7433109Y-12700265D02*
X7442633Y-12681217D01*
X7442633Y-12681217D02*
X7452157Y-12671693D01*
X7452157Y-12671693D02*
X7471204Y-12662169D01*
X7471204Y-12662169D02*
X7499776Y-12662169D01*
X7499776Y-12662169D02*
X7518823Y-12671693D01*
X7518823Y-12671693D02*
X7528347Y-12681217D01*
X7528347Y-12681217D02*
X7537871Y-12700265D01*
X7537871Y-12700265D02*
X7537871Y-12757408D01*
X7537871Y-12757408D02*
X7528347Y-12776455D01*
X7528347Y-12776455D02*
X7518823Y-12785979D01*
X7518823Y-12785979D02*
X7499776Y-12795503D01*
X7499776Y-12795503D02*
X7471204Y-12795503D01*
X7652157Y-12795503D02*
X7633109Y-12785979D01*
X7633109Y-12785979D02*
X7623585Y-12766931D01*
X7623585Y-12766931D02*
X7623585Y-12595503D01*
X7804538Y-12785979D02*
X7785490Y-12795503D01*
X7785490Y-12795503D02*
X7747395Y-12795503D01*
X7747395Y-12795503D02*
X7728347Y-12785979D01*
X7728347Y-12785979D02*
X7718823Y-12766931D01*
X7718823Y-12766931D02*
X7718823Y-12690741D01*
X7718823Y-12690741D02*
X7728347Y-12671693D01*
X7728347Y-12671693D02*
X7747395Y-12662169D01*
X7747395Y-12662169D02*
X7785490Y-12662169D01*
X7785490Y-12662169D02*
X7804538Y-12671693D01*
X7804538Y-12671693D02*
X7814061Y-12690741D01*
X7814061Y-12690741D02*
X7814061Y-12709789D01*
X7814061Y-12709789D02*
X7718823Y-12728836D01*
X7890252Y-12785979D02*
X7909300Y-12795503D01*
X7909300Y-12795503D02*
X7947395Y-12795503D01*
X7947395Y-12795503D02*
X7966442Y-12785979D01*
X7966442Y-12785979D02*
X7975966Y-12766931D01*
X7975966Y-12766931D02*
X7975966Y-12757408D01*
X7975966Y-12757408D02*
X7966442Y-12738360D01*
X7966442Y-12738360D02*
X7947395Y-12728836D01*
X7947395Y-12728836D02*
X7918823Y-12728836D01*
X7918823Y-12728836D02*
X7899776Y-12719312D01*
X7899776Y-12719312D02*
X7890252Y-12700265D01*
X7890252Y-12700265D02*
X7890252Y-12690741D01*
X7890252Y-12690741D02*
X7899776Y-12671693D01*
X7899776Y-12671693D02*
X7918823Y-12662169D01*
X7918823Y-12662169D02*
X7947395Y-12662169D01*
X7947395Y-12662169D02*
X7966442Y-12671693D01*
X8042633Y-12871693D02*
X8052157Y-12862169D01*
X8052157Y-12862169D02*
X8071204Y-12833598D01*
X8071204Y-12833598D02*
X8080728Y-12814550D01*
X8080728Y-12814550D02*
X8090252Y-12785979D01*
X8090252Y-12785979D02*
X8099776Y-12738360D01*
X8099776Y-12738360D02*
X8099776Y-12700265D01*
X8099776Y-12700265D02*
X8090252Y-12652646D01*
X8090252Y-12652646D02*
X8080728Y-12624074D01*
X8080728Y-12624074D02*
X8071204Y-12605027D01*
X8071204Y-12605027D02*
X8052157Y-12576455D01*
X8052157Y-12576455D02*
X8042633Y-12566931D01*
M02*
