M48
; DRILL file {KiCad 7.0.6} date Mon Jul 31 17:00:52 2023
; FORMAT={-:-/ absolute / metric / decimal}
; #@! TF.CreationDate,2023-07-31T17:00:52-04:00
; #@! TF.GenerationSoftware,Kicad,Pcbnew,7.0.6
; #@! TF.FileFunction,NonPlated,1,2,NPTH
FMAT,2
METRIC
; #@! TA.AperFunction,NonPlated,NPTH,ComponentDrill
T1C0.650
; #@! TA.AperFunction,NonPlated,NPTH,ComponentDrill
T2C0.900
; #@! TA.AperFunction,NonPlated,NPTH,ComponentDrill
T3C0.991
; #@! TA.AperFunction,NonPlated,NPTH,ComponentDrill
T4C1.750
; #@! TA.AperFunction,NonPlated,NPTH,ComponentDrill
T5C3.000
; #@! TA.AperFunction,NonPlated,NPTH,ComponentDrill
T6C3.048
; #@! TA.AperFunction,NonPlated,NPTH,ComponentDrill
T7C3.988
%
G90
G05
T1
X143.55Y-41.156
X149.33Y-41.156
T2
X132.634Y-36.954
X135.611Y-37.32
T3
X215.006Y-92.424
X215.006Y-94.456
X220.086Y-93.44
T4
X39.475Y-36.352
X39.475Y-55.402
X41.856Y-74.452
X44.237Y-93.502
X49.635Y-36.352
X49.635Y-55.402
X52.016Y-74.452
X54.397Y-93.502
X59.64Y-36.006
X62.045Y-55.495
X69.177Y-75.563
X69.724Y-37.244
X72.129Y-56.733
X78.548Y-38.328
X79.262Y-76.802
X80.953Y-57.816
X85.764Y-96.793
X88.085Y-77.885
X88.632Y-39.566
X91.037Y-59.054
X95.848Y-98.031
X97.456Y-40.649
X98.17Y-79.123
X99.861Y-60.138
X106.993Y-80.207
X107.54Y-41.888
X109.945Y-61.376
X114.126Y-100.275
X116.364Y-42.971
X117.078Y-81.445
X118.769Y-62.459
X123.58Y-101.436
X124.21Y-101.514
X125.901Y-82.528
X126.448Y-44.209
X128.853Y-63.698
X133.664Y-102.674
X135.986Y-83.766
X156.894Y-83.766
X156.978Y-45.37
X159.216Y-102.674
X164.027Y-63.698
X166.979Y-82.528
X167.063Y-44.132
X168.67Y-101.514
X169.3Y-101.436
X174.111Y-62.459
X175.802Y-81.445
X175.886Y-43.048
X178.754Y-100.275
X182.935Y-61.376
X185.887Y-80.207
X185.971Y-41.81
X193.019Y-60.138
X194.71Y-79.123
X194.794Y-40.727
X197.032Y-98.031
X201.843Y-59.054
X204.795Y-77.885
X204.879Y-39.489
X207.116Y-96.793
X211.927Y-57.816
X213.619Y-76.802
X213.702Y-38.405
X220.751Y-56.733
X223.703Y-75.563
X223.787Y-37.167
X230.835Y-55.495
X236.103Y-93.502
X236.103Y-36.352
X238.484Y-74.452
X240.865Y-55.402
X246.263Y-93.502
X246.263Y-36.352
X248.644Y-74.452
X251.025Y-55.402
T5
X40.745Y-33.812
X40.745Y-52.862
X43.126Y-71.912
X45.507Y-90.962
X47.095Y-31.272
X47.095Y-50.322
X49.476Y-69.372
X51.857Y-88.422
X61.21Y-33.64
X63.615Y-53.128
X67.822Y-31.893
X70.227Y-51.381
X70.747Y-73.197
X77.36Y-71.45
X80.118Y-35.962
X82.523Y-55.45
X86.73Y-34.214
X87.334Y-94.427
X89.135Y-53.703
X89.655Y-75.519
X93.946Y-92.68
X96.268Y-73.772
X99.026Y-38.283
X101.431Y-57.772
X105.638Y-36.536
X108.043Y-56.024
X108.563Y-77.84
X115.176Y-76.093
X116.028Y-105.627
X117.934Y-40.605
X120.339Y-60.093
X122.64Y-103.88
X124.546Y-38.858
X125.15Y-99.07
X126.951Y-58.346
X127.471Y-80.162
X131.762Y-97.323
X134.084Y-78.415
X157.845Y-81.091
X157.929Y-42.694
X160.167Y-99.999
X163.839Y-77.796
X163.922Y-39.399
X164.978Y-61.022
X166.16Y-96.704
X170.971Y-57.727
X171.81Y-106.246
X176.753Y-78.769
X176.837Y-40.373
X177.803Y-102.951
X182.747Y-75.474
X182.83Y-37.078
X183.886Y-58.7
X189.879Y-55.405
X195.661Y-76.447
X195.745Y-38.051
X197.983Y-95.355
X201.655Y-73.152
X201.738Y-34.756
X202.794Y-56.379
X203.976Y-92.06
X208.787Y-53.084
X214.569Y-74.126
X214.653Y-35.729
X220.563Y-70.831
X220.646Y-32.434
X221.702Y-54.057
X227.695Y-50.762
X237.373Y-90.962
X237.373Y-33.812
X239.754Y-71.912
X242.135Y-52.862
X243.723Y-88.422
X243.723Y-31.272
X246.104Y-69.372
X248.485Y-50.322
T6
X106.468Y-106.373
X130.166Y-109.282
X162.714Y-109.282
X186.413Y-106.373
T7
X44.555Y-36.352
X44.555Y-55.402
X46.936Y-74.452
X49.317Y-93.502
X64.682Y-36.625
X67.087Y-56.114
X74.219Y-76.183
X83.59Y-38.947
X85.995Y-58.435
X90.806Y-97.412
X93.127Y-78.504
X102.498Y-41.269
X104.903Y-60.757
X108.325Y-91.246
X112.035Y-80.826
X119.168Y-100.895
X121.406Y-43.59
X123.811Y-63.079
X128.622Y-102.055
X130.943Y-83.147
X132.023Y-94.156
X160.857Y-94.156
X161.937Y-83.147
X162.02Y-44.751
X164.258Y-102.055
X169.069Y-63.079
X173.712Y-100.895
X180.845Y-80.826
X180.928Y-42.429
X184.555Y-91.246
X187.977Y-60.757
X199.753Y-78.504
X199.836Y-40.108
X202.074Y-97.412
X206.885Y-58.435
X218.661Y-76.183
X218.744Y-37.786
X225.793Y-56.114
X241.183Y-93.502
X241.183Y-36.352
X243.564Y-74.452
X245.945Y-55.402
T0
M30
