%TF.GenerationSoftware,KiCad,Pcbnew,7.0.6*%
%TF.CreationDate,2023-07-31T17:00:54-04:00*%
%TF.ProjectId,Birdie,42697264-6965-42e6-9b69-6361645f7063,rev?*%
%TF.SameCoordinates,Original*%
%TF.FileFunction,Drillmap*%
%TF.FilePolarity,Positive*%
%FSLAX45Y45*%
G04 Gerber Fmt 4.5, Leading zero omitted, Abs format (unit mm)*
G04 Created by KiCad (PCBNEW 7.0.6) date 2023-07-31 17:00:54*
%MOMM*%
%LPD*%
G01*
G04 APERTURE LIST*
%ADD10C,0.100000*%
%ADD11C,0.200000*%
%ADD12C,0.065000*%
%ADD13C,0.090000*%
%ADD14C,0.099060*%
%ADD15C,0.175000*%
%ADD16C,0.300000*%
%ADD17C,0.304800*%
%ADD18C,0.398780*%
G04 APERTURE END LIST*
D10*
X22919805Y-2682670D02*
X25239180Y-2682670D01*
X25239180Y-10309356D02*
G75*
G03*
X25539180Y-10009355I-1J300001D01*
G01*
X3572576Y-10309355D02*
X5891951Y-10309355D01*
X3572576Y-2689355D02*
X6368201Y-2689355D01*
X15120253Y-3647019D02*
X22919805Y-2682670D01*
X25539180Y-2982670D02*
X25539180Y-10009355D01*
X3572576Y-2689352D02*
G75*
G03*
X3272577Y-2989354I3J-300003D01*
G01*
X14167753Y-3647019D02*
X15120253Y-3647019D01*
X15596503Y-11267019D02*
X23396055Y-10309354D01*
X14167753Y-3647019D02*
X6368201Y-2689355D01*
X25239180Y-10309354D02*
X23396055Y-10309354D01*
X3272570Y-10009354D02*
G75*
G03*
X3572576Y-10309355I300000J-1D01*
G01*
X13691503Y-11267019D02*
X5891951Y-10309355D01*
X3272577Y-2989354D02*
X3272576Y-10009354D01*
X25539174Y-2982670D02*
G75*
G03*
X25239180Y-2682670I-299995J5D01*
G01*
X13691503Y-11267019D02*
X15596503Y-11267019D01*
D11*
D12*
X14322503Y-4083124D02*
X14387503Y-4148124D01*
X14387503Y-4083124D02*
X14322503Y-4148124D01*
X14900503Y-4083124D02*
X14965503Y-4148124D01*
X14965503Y-4083124D02*
X14900503Y-4148124D01*
D13*
X13308375Y-3695418D02*
G75*
G03*
X13308375Y-3695418I-45000J0D01*
G01*
X13606138Y-3731979D02*
G75*
G03*
X13606138Y-3731979I-45000J0D01*
G01*
D14*
X21500624Y-9192825D02*
X21500624Y-9291885D01*
X21451094Y-9242355D02*
X21550154Y-9242355D01*
X21500624Y-9396025D02*
X21500624Y-9495085D01*
X21451094Y-9445555D02*
X21550154Y-9445555D01*
X22008624Y-9294425D02*
X22008624Y-9393485D01*
X21959094Y-9343955D02*
X22058154Y-9343955D01*
D15*
X4009368Y-3697043D02*
X4009368Y-3573298D01*
X3885623Y-3573298D01*
X3885623Y-3697043D01*
X4009368Y-3697043D01*
X4009369Y-5602043D02*
X4009369Y-5478298D01*
X3885624Y-5478298D01*
X3885624Y-5602043D01*
X4009369Y-5602043D01*
X4247493Y-7507043D02*
X4247493Y-7383298D01*
X4123748Y-7383298D01*
X4123748Y-7507043D01*
X4247493Y-7507043D01*
X4485618Y-9412043D02*
X4485618Y-9288298D01*
X4361874Y-9288298D01*
X4361874Y-9412043D01*
X4485618Y-9412043D01*
X5025368Y-3697043D02*
X5025368Y-3573298D01*
X4901624Y-3573298D01*
X4901624Y-3697043D01*
X5025368Y-3697043D01*
X5025369Y-5602043D02*
X5025369Y-5478298D01*
X4901624Y-5478298D01*
X4901624Y-5602043D01*
X5025369Y-5602043D01*
X5263493Y-7507043D02*
X5263493Y-7383298D01*
X5139749Y-7383298D01*
X5139749Y-7507043D01*
X5263493Y-7507043D01*
X5501618Y-9412043D02*
X5501618Y-9288298D01*
X5377874Y-9288298D01*
X5377874Y-9412043D01*
X5501618Y-9412043D01*
X6025824Y-3662496D02*
X6025824Y-3538751D01*
X5902079Y-3538751D01*
X5902079Y-3662496D01*
X6025824Y-3662496D01*
X6266364Y-5611336D02*
X6266364Y-5487591D01*
X6142619Y-5487591D01*
X6142619Y-5611336D01*
X6266364Y-5611336D01*
X6979603Y-7618217D02*
X6979603Y-7494472D01*
X6855858Y-7494472D01*
X6855858Y-7618217D01*
X6979603Y-7618217D01*
X7034250Y-3786315D02*
X7034250Y-3662570D01*
X6910506Y-3662570D01*
X6910506Y-3786315D01*
X7034250Y-3786315D01*
X7274791Y-5735155D02*
X7274791Y-5611410D01*
X7151046Y-5611410D01*
X7151046Y-5735155D01*
X7274791Y-5735155D01*
X7916625Y-3894656D02*
X7916625Y-3770911D01*
X7792880Y-3770911D01*
X7792880Y-3894656D01*
X7916625Y-3894656D01*
X7988030Y-7742036D02*
X7988030Y-7618291D01*
X7864285Y-7618291D01*
X7864285Y-7742036D01*
X7988030Y-7742036D01*
X8157164Y-5843498D02*
X8157164Y-5719753D01*
X8033420Y-5719753D01*
X8033420Y-5843498D01*
X8157164Y-5843498D01*
X8638242Y-9741179D02*
X8638242Y-9617434D01*
X8514497Y-9617434D01*
X8514497Y-9741179D01*
X8638242Y-9741179D01*
X8870403Y-7850378D02*
X8870403Y-7726633D01*
X8746658Y-7726633D01*
X8746658Y-7850378D01*
X8870403Y-7850378D01*
X8925052Y-4018475D02*
X8925052Y-3894731D01*
X8801307Y-3894731D01*
X8801307Y-4018475D01*
X8925052Y-4018475D01*
X9165591Y-5967317D02*
X9165591Y-5843572D01*
X9041847Y-5843572D01*
X9041847Y-5967317D01*
X9165591Y-5967317D01*
X9646669Y-9864998D02*
X9646669Y-9741253D01*
X9522924Y-9741253D01*
X9522924Y-9864998D01*
X9646669Y-9864998D01*
X9807425Y-4126818D02*
X9807425Y-4003073D01*
X9683681Y-4003073D01*
X9683681Y-4126818D01*
X9807425Y-4126818D01*
X9878830Y-7974197D02*
X9878830Y-7850453D01*
X9755085Y-7850453D01*
X9755085Y-7974197D01*
X9878830Y-7974197D01*
X10047964Y-6075659D02*
X10047964Y-5951914D01*
X9924219Y-5951914D01*
X9924219Y-6075659D01*
X10047964Y-6075659D01*
X10761203Y-8082540D02*
X10761203Y-7958795D01*
X10637459Y-7958795D01*
X10637459Y-8082540D01*
X10761203Y-8082540D01*
X10815852Y-4250637D02*
X10815852Y-4126892D01*
X10692107Y-4126892D01*
X10692107Y-4250637D01*
X10815852Y-4250637D01*
X11056391Y-6199478D02*
X11056391Y-6075733D01*
X10932646Y-6075733D01*
X10932646Y-6199478D01*
X11056391Y-6199478D01*
X11474442Y-10089421D02*
X11474442Y-9965676D01*
X11350697Y-9965676D01*
X11350697Y-10089421D01*
X11474442Y-10089421D01*
X11698226Y-4358979D02*
X11698226Y-4235234D01*
X11574481Y-4235234D01*
X11574481Y-4358979D01*
X11698226Y-4358979D01*
X11769630Y-8206359D02*
X11769630Y-8082614D01*
X11645885Y-8082614D01*
X11645885Y-8206359D01*
X11769630Y-8206359D01*
X11938765Y-6307819D02*
X11938765Y-6184074D01*
X11815020Y-6184074D01*
X11815020Y-6307819D01*
X11938765Y-6307819D01*
X12419843Y-10205501D02*
X12419843Y-10081756D01*
X12296098Y-10081756D01*
X12296098Y-10205501D01*
X12419843Y-10205501D01*
X12482869Y-10213240D02*
X12482869Y-10089495D01*
X12359124Y-10089495D01*
X12359124Y-10213240D01*
X12482869Y-10213240D01*
X12652004Y-8314701D02*
X12652004Y-8190956D01*
X12528259Y-8190956D01*
X12528259Y-8314701D01*
X12652004Y-8314701D01*
X12706652Y-4482798D02*
X12706652Y-4359053D01*
X12582908Y-4359053D01*
X12582908Y-4482798D01*
X12706652Y-4482798D01*
X12947191Y-6431638D02*
X12947191Y-6307894D01*
X12823447Y-6307894D01*
X12823447Y-6431638D01*
X12947191Y-6431638D01*
X13428269Y-10329320D02*
X13428269Y-10205576D01*
X13304525Y-10205576D01*
X13304525Y-10329320D01*
X13428269Y-10329320D01*
X13660430Y-8438520D02*
X13660430Y-8314775D01*
X13536686Y-8314775D01*
X13536686Y-8438520D01*
X13660430Y-8438520D01*
X15751321Y-8438520D02*
X15751321Y-8314775D01*
X15627576Y-8314775D01*
X15627576Y-8438520D01*
X15751321Y-8438520D01*
X15759699Y-4598879D02*
X15759699Y-4475134D01*
X15635954Y-4475134D01*
X15635954Y-4598879D01*
X15759699Y-4598879D01*
X15983482Y-10329320D02*
X15983482Y-10205575D01*
X15859737Y-10205575D01*
X15859737Y-10329320D01*
X15983482Y-10329320D01*
X16464560Y-6431638D02*
X16464560Y-6307893D01*
X16340815Y-6307893D01*
X16340815Y-6431638D01*
X16464560Y-6431638D01*
X16759748Y-8314700D02*
X16759748Y-8190955D01*
X16636003Y-8190955D01*
X16636003Y-8314700D01*
X16759748Y-8314700D01*
X16768126Y-4475060D02*
X16768126Y-4351315D01*
X16644381Y-4351315D01*
X16644381Y-4475060D01*
X16768126Y-4475060D01*
X16928882Y-10213240D02*
X16928882Y-10089495D01*
X16805137Y-10089495D01*
X16805137Y-10213240D01*
X16928882Y-10213240D01*
X16991908Y-10205501D02*
X16991908Y-10081756D01*
X16868164Y-10081756D01*
X16868164Y-10205501D01*
X16991908Y-10205501D01*
X17472987Y-6307819D02*
X17472987Y-6184074D01*
X17349242Y-6184074D01*
X17349242Y-6307819D01*
X17472987Y-6307819D01*
X17642121Y-8206358D02*
X17642121Y-8082614D01*
X17518377Y-8082614D01*
X17518377Y-8206358D01*
X17642121Y-8206358D01*
X17650499Y-4366718D02*
X17650499Y-4242973D01*
X17526755Y-4242973D01*
X17526755Y-4366718D01*
X17650499Y-4366718D01*
X17937309Y-10089420D02*
X17937309Y-9965676D01*
X17813564Y-9965676D01*
X17813564Y-10089420D01*
X17937309Y-10089420D01*
X18355360Y-6199477D02*
X18355360Y-6075733D01*
X18231615Y-6075733D01*
X18231615Y-6199477D01*
X18355360Y-6199477D01*
X18650548Y-8082539D02*
X18650548Y-7958794D01*
X18526803Y-7958794D01*
X18526803Y-8082539D01*
X18650548Y-8082539D01*
X18658926Y-4242899D02*
X18658926Y-4119154D01*
X18535181Y-4119154D01*
X18535181Y-4242899D01*
X18658926Y-4242899D01*
X19363787Y-6075658D02*
X19363787Y-5951913D01*
X19240042Y-5951913D01*
X19240042Y-6075658D01*
X19363787Y-6075658D01*
X19532922Y-7974198D02*
X19532922Y-7850453D01*
X19409177Y-7850453D01*
X19409177Y-7974198D01*
X19532922Y-7974198D01*
X19541300Y-4134556D02*
X19541300Y-4010811D01*
X19417555Y-4010811D01*
X19417555Y-4134556D01*
X19541300Y-4134556D01*
X19765083Y-9864998D02*
X19765083Y-9741253D01*
X19641338Y-9741253D01*
X19641338Y-9864998D01*
X19765083Y-9864998D01*
X20246160Y-5967317D02*
X20246160Y-5843572D01*
X20122415Y-5843572D01*
X20122415Y-5967317D01*
X20246160Y-5967317D01*
X20541349Y-7850379D02*
X20541349Y-7726634D01*
X20417604Y-7726634D01*
X20417604Y-7850379D01*
X20541349Y-7850379D01*
X20549727Y-4010737D02*
X20549727Y-3886992D01*
X20425982Y-3886992D01*
X20425982Y-4010737D01*
X20549727Y-4010737D01*
X20773510Y-9741179D02*
X20773510Y-9617434D01*
X20649765Y-9617434D01*
X20649765Y-9741179D01*
X20773510Y-9741179D01*
X21254587Y-5843497D02*
X21254587Y-5719753D01*
X21130842Y-5719753D01*
X21130842Y-5843497D01*
X21254587Y-5843497D01*
X21423723Y-7742036D02*
X21423723Y-7618291D01*
X21299978Y-7618291D01*
X21299978Y-7742036D01*
X21423723Y-7742036D01*
X21432100Y-3902395D02*
X21432100Y-3778650D01*
X21308355Y-3778650D01*
X21308355Y-3902395D01*
X21432100Y-3902395D01*
X22136962Y-5735156D02*
X22136962Y-5611411D01*
X22013217Y-5611411D01*
X22013217Y-5735156D01*
X22136962Y-5735156D01*
X22432149Y-7618217D02*
X22432149Y-7494472D01*
X22308405Y-7494472D01*
X22308405Y-7618217D01*
X22432149Y-7618217D01*
X22440527Y-3778576D02*
X22440527Y-3654831D01*
X22316782Y-3654831D01*
X22316782Y-3778576D01*
X22440527Y-3778576D01*
X23145388Y-5611336D02*
X23145388Y-5487592D01*
X23021643Y-5487592D01*
X23021643Y-5611336D01*
X23145388Y-5611336D01*
X23672170Y-9412043D02*
X23672170Y-9288298D01*
X23548425Y-9288298D01*
X23548425Y-9412043D01*
X23672170Y-9412043D01*
X23672170Y-3697042D02*
X23672170Y-3573298D01*
X23548425Y-3573298D01*
X23548425Y-3697042D01*
X23672170Y-3697042D01*
X23910295Y-7507043D02*
X23910295Y-7383298D01*
X23786550Y-7383298D01*
X23786550Y-7507043D01*
X23910295Y-7507043D01*
X24148420Y-5602043D02*
X24148420Y-5478298D01*
X24024675Y-5478298D01*
X24024675Y-5602043D01*
X24148420Y-5602043D01*
X24688170Y-9412043D02*
X24688170Y-9288298D01*
X24564425Y-9288298D01*
X24564425Y-9412043D01*
X24688170Y-9412043D01*
X24688170Y-3697042D02*
X24688170Y-3573298D01*
X24564425Y-3573298D01*
X24564425Y-3697042D01*
X24688170Y-3697042D01*
X24926295Y-7507043D02*
X24926295Y-7383298D01*
X24802550Y-7383298D01*
X24802550Y-7507043D01*
X24926295Y-7507043D01*
X25164420Y-5602043D02*
X25164420Y-5478298D01*
X25040675Y-5478298D01*
X25040675Y-5602043D01*
X25164420Y-5602043D01*
D16*
X4074496Y-3531170D02*
X4224496Y-3381170D01*
X4074496Y-3231170D01*
X3924496Y-3381170D01*
X4074496Y-3531170D01*
X4074496Y-5436170D02*
X4224496Y-5286170D01*
X4074496Y-5136170D01*
X3924496Y-5286170D01*
X4074496Y-5436170D01*
X4312621Y-7341171D02*
X4462621Y-7191171D01*
X4312621Y-7041171D01*
X4162621Y-7191171D01*
X4312621Y-7341171D01*
X4550746Y-9246171D02*
X4700746Y-9096171D01*
X4550746Y-8946171D01*
X4400746Y-9096171D01*
X4550746Y-9246171D01*
X4709496Y-3277170D02*
X4859496Y-3127170D01*
X4709496Y-2977170D01*
X4559496Y-3127170D01*
X4709496Y-3277170D01*
X4709496Y-5182170D02*
X4859496Y-5032170D01*
X4709496Y-4882170D01*
X4559496Y-5032170D01*
X4709496Y-5182170D01*
X4947621Y-7087171D02*
X5097621Y-6937171D01*
X4947621Y-6787171D01*
X4797621Y-6937171D01*
X4947621Y-7087171D01*
X5185746Y-8992171D02*
X5335746Y-8842171D01*
X5185746Y-8692171D01*
X5035746Y-8842171D01*
X5185746Y-8992171D01*
X6120959Y-3513994D02*
X6270959Y-3363994D01*
X6120959Y-3213994D01*
X5970959Y-3363994D01*
X6120959Y-3513994D01*
X6361500Y-5462834D02*
X6511500Y-5312834D01*
X6361500Y-5162834D01*
X6211500Y-5312834D01*
X6361500Y-5462834D01*
X6782181Y-3339274D02*
X6932181Y-3189274D01*
X6782181Y-3039274D01*
X6632181Y-3189274D01*
X6782181Y-3339274D01*
X7022721Y-5288115D02*
X7172721Y-5138115D01*
X7022721Y-4988115D01*
X6872721Y-5138115D01*
X7022721Y-5288115D01*
X7074738Y-7469715D02*
X7224738Y-7319715D01*
X7074738Y-7169715D01*
X6924738Y-7319715D01*
X7074738Y-7469715D01*
X7735960Y-7294995D02*
X7885960Y-7144995D01*
X7735960Y-6994995D01*
X7585960Y-7144995D01*
X7735960Y-7294995D01*
X8011760Y-3746155D02*
X8161760Y-3596155D01*
X8011760Y-3446155D01*
X7861760Y-3596155D01*
X8011760Y-3746155D01*
X8252300Y-5694996D02*
X8402300Y-5544996D01*
X8252300Y-5394996D01*
X8102300Y-5544996D01*
X8252300Y-5694996D01*
X8672982Y-3571435D02*
X8822982Y-3421435D01*
X8672982Y-3271435D01*
X8522982Y-3421435D01*
X8672982Y-3571435D01*
X8733377Y-9592677D02*
X8883377Y-9442677D01*
X8733377Y-9292677D01*
X8583377Y-9442677D01*
X8733377Y-9592677D01*
X8913522Y-5520276D02*
X9063522Y-5370276D01*
X8913522Y-5220276D01*
X8763522Y-5370276D01*
X8913522Y-5520276D01*
X8965539Y-7701876D02*
X9115539Y-7551876D01*
X8965539Y-7401876D01*
X8815539Y-7551876D01*
X8965539Y-7701876D01*
X9394599Y-9417957D02*
X9544599Y-9267957D01*
X9394599Y-9117957D01*
X9244599Y-9267957D01*
X9394599Y-9417957D01*
X9626760Y-7527157D02*
X9776760Y-7377157D01*
X9626760Y-7227157D01*
X9476760Y-7377157D01*
X9626760Y-7527157D01*
X9902561Y-3978316D02*
X10052561Y-3828316D01*
X9902561Y-3678316D01*
X9752561Y-3828316D01*
X9902561Y-3978316D01*
X10143100Y-5927157D02*
X10293100Y-5777157D01*
X10143100Y-5627157D01*
X9993100Y-5777157D01*
X10143100Y-5927157D01*
X10563783Y-3803596D02*
X10713783Y-3653596D01*
X10563783Y-3503596D01*
X10413783Y-3653596D01*
X10563783Y-3803596D01*
X10804321Y-5752437D02*
X10954321Y-5602437D01*
X10804321Y-5452437D01*
X10654321Y-5602437D01*
X10804321Y-5752437D01*
X10856339Y-7934038D02*
X11006339Y-7784038D01*
X10856339Y-7634038D01*
X10706339Y-7784038D01*
X10856339Y-7934038D01*
X11517561Y-7759318D02*
X11667561Y-7609318D01*
X11517561Y-7459318D01*
X11367561Y-7609318D01*
X11517561Y-7759318D01*
X11602767Y-10712716D02*
X11752767Y-10562716D01*
X11602767Y-10412716D01*
X11452767Y-10562716D01*
X11602767Y-10712716D01*
X11793361Y-4210477D02*
X11943361Y-4060477D01*
X11793361Y-3910477D01*
X11643361Y-4060477D01*
X11793361Y-4210477D01*
X12033900Y-6159318D02*
X12183900Y-6009318D01*
X12033900Y-5859318D01*
X11883900Y-6009318D01*
X12033900Y-6159318D01*
X12263988Y-10537997D02*
X12413988Y-10387997D01*
X12263988Y-10237997D01*
X12113988Y-10387997D01*
X12263988Y-10537997D01*
X12454583Y-4035757D02*
X12604583Y-3885757D01*
X12454583Y-3735757D01*
X12304583Y-3885757D01*
X12454583Y-4035757D01*
X12514978Y-10056999D02*
X12664978Y-9906999D01*
X12514978Y-9756999D01*
X12364978Y-9906999D01*
X12514978Y-10056999D01*
X12695122Y-5984598D02*
X12845122Y-5834598D01*
X12695122Y-5684598D01*
X12545122Y-5834598D01*
X12695122Y-5984598D01*
X12747139Y-8166199D02*
X12897139Y-8016199D01*
X12747139Y-7866199D01*
X12597139Y-8016199D01*
X12747139Y-8166199D01*
X13176200Y-9882280D02*
X13326200Y-9732280D01*
X13176200Y-9582280D01*
X13026200Y-9732280D01*
X13176200Y-9882280D01*
X13408361Y-7991479D02*
X13558361Y-7841479D01*
X13408361Y-7691479D01*
X13258361Y-7841479D01*
X13408361Y-7991479D01*
X15784547Y-8259063D02*
X15934547Y-8109063D01*
X15784547Y-7959063D01*
X15634547Y-8109063D01*
X15784547Y-8259063D01*
X15792925Y-4419422D02*
X15942925Y-4269422D01*
X15792925Y-4119422D01*
X15642925Y-4269422D01*
X15792925Y-4419422D01*
X16016708Y-10149864D02*
X16166708Y-9999864D01*
X16016708Y-9849864D01*
X15866708Y-9999864D01*
X16016708Y-10149864D01*
X16383859Y-7929569D02*
X16533859Y-7779569D01*
X16383859Y-7629569D01*
X16233859Y-7779569D01*
X16383859Y-7929569D01*
X16392237Y-4089929D02*
X16542237Y-3939929D01*
X16392237Y-3789929D01*
X16242237Y-3939929D01*
X16392237Y-4089929D01*
X16497786Y-6252182D02*
X16647786Y-6102182D01*
X16497786Y-5952182D01*
X16347786Y-6102182D01*
X16497786Y-6252182D01*
X16616020Y-9820370D02*
X16766020Y-9670370D01*
X16616020Y-9520370D01*
X16466020Y-9670370D01*
X16616020Y-9820370D01*
X17097098Y-5922688D02*
X17247098Y-5772688D01*
X17097098Y-5622688D01*
X16947098Y-5772688D01*
X17097098Y-5922688D01*
X17181026Y-10774626D02*
X17331026Y-10624626D01*
X17181026Y-10474626D01*
X17031026Y-10624626D01*
X17181026Y-10774626D01*
X17675348Y-8026902D02*
X17825348Y-7876902D01*
X17675348Y-7726902D01*
X17525348Y-7876902D01*
X17675348Y-8026902D01*
X17683725Y-4187261D02*
X17833725Y-4037261D01*
X17683725Y-3887261D01*
X17533725Y-4037261D01*
X17683725Y-4187261D01*
X17780338Y-10445132D02*
X17930338Y-10295132D01*
X17780338Y-10145132D01*
X17630338Y-10295132D01*
X17780338Y-10445132D01*
X18274660Y-7697408D02*
X18424660Y-7547408D01*
X18274660Y-7397408D01*
X18124660Y-7547408D01*
X18274660Y-7697408D01*
X18283037Y-3857767D02*
X18433037Y-3707767D01*
X18283037Y-3557767D01*
X18133037Y-3707767D01*
X18283037Y-3857767D01*
X18388586Y-6020021D02*
X18538586Y-5870021D01*
X18388586Y-5720021D01*
X18238586Y-5870021D01*
X18388586Y-6020021D01*
X18987898Y-5690527D02*
X19137898Y-5540527D01*
X18987898Y-5390527D01*
X18837898Y-5540527D01*
X18987898Y-5690527D01*
X19566148Y-7794741D02*
X19716148Y-7644741D01*
X19566148Y-7494741D01*
X19416148Y-7644741D01*
X19566148Y-7794741D01*
X19574526Y-3955100D02*
X19724526Y-3805100D01*
X19574526Y-3655100D01*
X19424526Y-3805100D01*
X19574526Y-3955100D01*
X19798309Y-9685542D02*
X19948309Y-9535542D01*
X19798309Y-9385542D01*
X19648309Y-9535542D01*
X19798309Y-9685542D01*
X20165460Y-7465247D02*
X20315460Y-7315247D01*
X20165460Y-7165247D01*
X20015460Y-7315247D01*
X20165460Y-7465247D01*
X20173838Y-3625606D02*
X20323838Y-3475606D01*
X20173838Y-3325606D01*
X20023838Y-3475606D01*
X20173838Y-3625606D01*
X20279386Y-5787860D02*
X20429386Y-5637860D01*
X20279386Y-5487860D01*
X20129386Y-5637860D01*
X20279386Y-5787860D01*
X20397621Y-9356048D02*
X20547621Y-9206048D01*
X20397621Y-9056048D01*
X20247621Y-9206048D01*
X20397621Y-9356048D01*
X20878698Y-5458366D02*
X21028698Y-5308366D01*
X20878698Y-5158366D01*
X20728698Y-5308366D01*
X20878698Y-5458366D01*
X21456949Y-7562580D02*
X21606949Y-7412580D01*
X21456949Y-7262580D01*
X21306949Y-7412580D01*
X21456949Y-7562580D01*
X21465326Y-3722939D02*
X21615326Y-3572939D01*
X21465326Y-3422939D01*
X21315326Y-3572939D01*
X21465326Y-3722939D01*
X22056261Y-7233086D02*
X22206261Y-7083086D01*
X22056261Y-6933086D01*
X21906261Y-7083086D01*
X22056261Y-7233086D01*
X22064638Y-3393445D02*
X22214638Y-3243445D01*
X22064638Y-3093445D01*
X21914638Y-3243445D01*
X22064638Y-3393445D01*
X22170188Y-5555699D02*
X22320188Y-5405699D01*
X22170188Y-5255699D01*
X22020188Y-5405699D01*
X22170188Y-5555699D01*
X22769500Y-5226205D02*
X22919500Y-5076205D01*
X22769500Y-4926205D01*
X22619500Y-5076205D01*
X22769500Y-5226205D01*
X23737298Y-9246171D02*
X23887298Y-9096171D01*
X23737298Y-8946171D01*
X23587298Y-9096171D01*
X23737298Y-9246171D01*
X23737298Y-3531170D02*
X23887298Y-3381170D01*
X23737298Y-3231170D01*
X23587298Y-3381170D01*
X23737298Y-3531170D01*
X23975423Y-7341170D02*
X24125423Y-7191170D01*
X23975423Y-7041170D01*
X23825423Y-7191170D01*
X23975423Y-7341170D01*
X24213548Y-5436171D02*
X24363548Y-5286171D01*
X24213548Y-5136171D01*
X24063548Y-5286171D01*
X24213548Y-5436171D01*
X24372298Y-8992171D02*
X24522298Y-8842171D01*
X24372298Y-8692171D01*
X24222298Y-8842171D01*
X24372298Y-8992171D01*
X24372298Y-3277170D02*
X24522298Y-3127170D01*
X24372298Y-2977170D01*
X24222298Y-3127170D01*
X24372298Y-3277170D01*
X24610423Y-7087170D02*
X24760423Y-6937170D01*
X24610423Y-6787170D01*
X24460423Y-6937170D01*
X24610423Y-7087170D01*
X24848548Y-5182171D02*
X24998548Y-5032171D01*
X24848548Y-4882171D01*
X24698548Y-5032171D01*
X24848548Y-5182171D01*
D17*
X10494356Y-10484864D02*
X10799156Y-10789664D01*
X10799156Y-10484864D02*
X10494356Y-10789664D01*
X10799156Y-10637264D02*
G75*
G03*
X10799156Y-10637264I-152400J0D01*
G01*
X12864159Y-10775839D02*
X13168959Y-11080639D01*
X13168959Y-10775839D02*
X12864159Y-11080639D01*
X13168959Y-10928239D02*
G75*
G03*
X13168959Y-10928239I-152400J0D01*
G01*
X16119047Y-10775839D02*
X16423847Y-11080639D01*
X16423847Y-10775839D02*
X16119047Y-11080639D01*
X16423847Y-10928239D02*
G75*
G03*
X16423847Y-10928239I-152400J0D01*
G01*
X18488851Y-10484863D02*
X18793651Y-10789663D01*
X18793651Y-10484863D02*
X18488851Y-10789663D01*
X18793651Y-10637263D02*
G75*
G03*
X18793651Y-10637263I-152400J0D01*
G01*
D18*
X4256106Y-3435780D02*
X4654886Y-3834560D01*
X4654886Y-3435780D02*
X4256106Y-3834560D01*
X4455496Y-3435780D02*
X4455496Y-3834560D01*
X4256106Y-3635170D02*
X4654886Y-3635170D01*
X4256106Y-5340780D02*
X4654886Y-5739560D01*
X4654886Y-5340780D02*
X4256106Y-5739560D01*
X4455496Y-5340780D02*
X4455496Y-5739560D01*
X4256106Y-5540170D02*
X4654886Y-5540170D01*
X4494231Y-7245781D02*
X4893011Y-7644561D01*
X4893011Y-7245781D02*
X4494231Y-7644561D01*
X4693621Y-7245781D02*
X4693621Y-7644561D01*
X4494231Y-7445171D02*
X4893011Y-7445171D01*
X4732356Y-9150781D02*
X5131136Y-9549561D01*
X5131136Y-9150781D02*
X4732356Y-9549561D01*
X4931746Y-9150781D02*
X4931746Y-9549561D01*
X4732356Y-9350171D02*
X5131136Y-9350171D01*
X6268775Y-3463143D02*
X6667555Y-3861923D01*
X6667555Y-3463143D02*
X6268775Y-3861923D01*
X6468165Y-3463143D02*
X6468165Y-3861923D01*
X6268775Y-3662533D02*
X6667555Y-3662533D01*
X6509315Y-5411983D02*
X6908095Y-5810763D01*
X6908095Y-5411983D02*
X6509315Y-5810763D01*
X6708705Y-5411983D02*
X6708705Y-5810763D01*
X6509315Y-5611373D02*
X6908095Y-5611373D01*
X7222554Y-7418864D02*
X7621334Y-7817644D01*
X7621334Y-7418864D02*
X7222554Y-7817644D01*
X7421944Y-7418864D02*
X7421944Y-7817644D01*
X7222554Y-7618254D02*
X7621334Y-7618254D01*
X8159576Y-3695303D02*
X8558356Y-4094083D01*
X8558356Y-3695303D02*
X8159576Y-4094083D01*
X8358966Y-3695303D02*
X8358966Y-4094083D01*
X8159576Y-3894693D02*
X8558356Y-3894693D01*
X8400116Y-5644145D02*
X8798896Y-6042925D01*
X8798896Y-5644145D02*
X8400116Y-6042925D01*
X8599506Y-5644145D02*
X8599506Y-6042925D01*
X8400116Y-5843535D02*
X8798896Y-5843535D01*
X8881193Y-9541826D02*
X9279973Y-9940606D01*
X9279973Y-9541826D02*
X8881193Y-9940606D01*
X9080583Y-9541826D02*
X9080583Y-9940606D01*
X8881193Y-9741216D02*
X9279973Y-9741216D01*
X9113354Y-7651025D02*
X9512134Y-8049805D01*
X9512134Y-7651025D02*
X9113354Y-8049805D01*
X9312744Y-7651025D02*
X9312744Y-8049805D01*
X9113354Y-7850415D02*
X9512134Y-7850415D01*
X10050376Y-3927465D02*
X10449156Y-4326245D01*
X10449156Y-3927465D02*
X10050376Y-4326245D01*
X10249766Y-3927465D02*
X10249766Y-4326245D01*
X10050376Y-4126855D02*
X10449156Y-4126855D01*
X10290915Y-5876306D02*
X10689695Y-6275086D01*
X10689695Y-5876306D02*
X10290915Y-6275086D01*
X10490305Y-5876306D02*
X10490305Y-6275086D01*
X10290915Y-6075696D02*
X10689695Y-6075696D01*
X10633094Y-8925233D02*
X11031874Y-9324013D01*
X11031874Y-8925233D02*
X10633094Y-9324013D01*
X10832484Y-8925233D02*
X10832484Y-9324013D01*
X10633094Y-9124623D02*
X11031874Y-9124623D01*
X11004154Y-7883187D02*
X11402934Y-8281967D01*
X11402934Y-7883187D02*
X11004154Y-8281967D01*
X11203544Y-7883187D02*
X11203544Y-8281967D01*
X11004154Y-8082577D02*
X11402934Y-8082577D01*
X11717393Y-9890068D02*
X12116173Y-10288848D01*
X12116173Y-9890068D02*
X11717393Y-10288848D01*
X11916783Y-9890068D02*
X11916783Y-10288848D01*
X11717393Y-10089458D02*
X12116173Y-10089458D01*
X11941177Y-4159626D02*
X12339957Y-4558406D01*
X12339957Y-4159626D02*
X11941177Y-4558406D01*
X12140567Y-4159626D02*
X12140567Y-4558406D01*
X11941177Y-4359016D02*
X12339957Y-4359016D01*
X12181716Y-6108466D02*
X12580496Y-6507246D01*
X12580496Y-6108466D02*
X12181716Y-6507246D01*
X12381106Y-6108466D02*
X12381106Y-6507246D01*
X12181716Y-6307856D02*
X12580496Y-6307856D01*
X12662794Y-10006148D02*
X13061574Y-10404928D01*
X13061574Y-10006148D02*
X12662794Y-10404928D01*
X12862184Y-10006148D02*
X12862184Y-10404928D01*
X12662794Y-10205538D02*
X13061574Y-10205538D01*
X12894955Y-8115348D02*
X13293735Y-8514128D01*
X13293735Y-8115348D02*
X12894955Y-8514128D01*
X13094345Y-8115348D02*
X13094345Y-8514128D01*
X12894955Y-8314738D02*
X13293735Y-8314738D01*
X13002898Y-9216209D02*
X13401678Y-9614989D01*
X13401678Y-9216209D02*
X13002898Y-9614989D01*
X13202288Y-9216209D02*
X13202288Y-9614989D01*
X13002898Y-9415599D02*
X13401678Y-9415599D01*
X15886328Y-9216208D02*
X16285108Y-9614988D01*
X16285108Y-9216208D02*
X15886328Y-9614988D01*
X16085718Y-9216208D02*
X16085718Y-9614988D01*
X15886328Y-9415598D02*
X16285108Y-9415598D01*
X15994272Y-8115347D02*
X16393052Y-8514128D01*
X16393052Y-8115347D02*
X15994272Y-8514128D01*
X16193662Y-8115347D02*
X16193662Y-8514128D01*
X15994272Y-8314737D02*
X16393052Y-8314737D01*
X16002650Y-4275707D02*
X16401430Y-4674487D01*
X16401430Y-4275707D02*
X16002650Y-4674487D01*
X16202040Y-4275707D02*
X16202040Y-4674487D01*
X16002650Y-4475097D02*
X16401430Y-4475097D01*
X16226433Y-10006148D02*
X16625213Y-10404928D01*
X16625213Y-10006148D02*
X16226433Y-10404928D01*
X16425823Y-10006148D02*
X16425823Y-10404928D01*
X16226433Y-10205538D02*
X16625213Y-10205538D01*
X16707511Y-6108466D02*
X17106291Y-6507246D01*
X17106291Y-6108466D02*
X16707511Y-6507246D01*
X16906901Y-6108466D02*
X16906901Y-6507246D01*
X16707511Y-6307856D02*
X17106291Y-6307856D01*
X17171833Y-9890068D02*
X17570613Y-10288848D01*
X17570613Y-9890068D02*
X17171833Y-10288848D01*
X17371223Y-9890068D02*
X17371223Y-10288848D01*
X17171833Y-10089458D02*
X17570613Y-10089458D01*
X17885072Y-7883186D02*
X18283852Y-8281966D01*
X18283852Y-7883186D02*
X17885072Y-8281966D01*
X18084462Y-7883186D02*
X18084462Y-8281966D01*
X17885072Y-8082576D02*
X18283852Y-8082576D01*
X17893450Y-4043546D02*
X18292230Y-4442326D01*
X18292230Y-4043546D02*
X17893450Y-4442326D01*
X18092840Y-4043546D02*
X18092840Y-4442326D01*
X17893450Y-4242936D02*
X18292230Y-4242936D01*
X18256132Y-8925233D02*
X18654912Y-9324013D01*
X18654912Y-8925233D02*
X18256132Y-9324013D01*
X18455522Y-8925233D02*
X18455522Y-9324013D01*
X18256132Y-9124623D02*
X18654912Y-9124623D01*
X18598311Y-5876305D02*
X18997091Y-6275085D01*
X18997091Y-5876305D02*
X18598311Y-6275085D01*
X18797701Y-5876305D02*
X18797701Y-6275085D01*
X18598311Y-6075695D02*
X18997091Y-6075695D01*
X19775873Y-7651026D02*
X20174653Y-8049806D01*
X20174653Y-7651026D02*
X19775873Y-8049806D01*
X19975263Y-7651026D02*
X19975263Y-8049806D01*
X19775873Y-7850416D02*
X20174653Y-7850416D01*
X19784251Y-3811384D02*
X20183031Y-4210164D01*
X20183031Y-3811384D02*
X19784251Y-4210164D01*
X19983641Y-3811384D02*
X19983641Y-4210164D01*
X19784251Y-4010774D02*
X20183031Y-4010774D01*
X20008034Y-9541826D02*
X20406814Y-9940606D01*
X20406814Y-9541826D02*
X20008034Y-9940606D01*
X20207424Y-9541826D02*
X20207424Y-9940606D01*
X20008034Y-9741216D02*
X20406814Y-9741216D01*
X20489111Y-5644145D02*
X20887891Y-6042925D01*
X20887891Y-5644145D02*
X20489111Y-6042925D01*
X20688501Y-5644145D02*
X20688501Y-6042925D01*
X20489111Y-5843535D02*
X20887891Y-5843535D01*
X21666674Y-7418864D02*
X22065454Y-7817644D01*
X22065454Y-7418864D02*
X21666674Y-7817644D01*
X21866064Y-7418864D02*
X21866064Y-7817644D01*
X21666674Y-7618254D02*
X22065454Y-7618254D01*
X21675051Y-3579223D02*
X22073831Y-3978003D01*
X22073831Y-3579223D02*
X21675051Y-3978003D01*
X21874441Y-3579223D02*
X21874441Y-3978003D01*
X21675051Y-3778613D02*
X22073831Y-3778613D01*
X22379912Y-5411984D02*
X22778692Y-5810764D01*
X22778692Y-5411984D02*
X22379912Y-5810764D01*
X22579302Y-5411984D02*
X22579302Y-5810764D01*
X22379912Y-5611374D02*
X22778692Y-5611374D01*
X23918908Y-9150781D02*
X24317688Y-9549561D01*
X24317688Y-9150781D02*
X23918908Y-9549561D01*
X24118298Y-9150781D02*
X24118298Y-9549561D01*
X23918908Y-9350171D02*
X24317688Y-9350171D01*
X23918908Y-3435780D02*
X24317688Y-3834560D01*
X24317688Y-3435780D02*
X23918908Y-3834560D01*
X24118298Y-3435780D02*
X24118298Y-3834560D01*
X23918908Y-3635170D02*
X24317688Y-3635170D01*
X24157033Y-7245780D02*
X24555813Y-7644560D01*
X24555813Y-7245780D02*
X24157033Y-7644560D01*
X24356423Y-7245780D02*
X24356423Y-7644560D01*
X24157033Y-7445170D02*
X24555813Y-7445170D01*
X24395158Y-5340781D02*
X24793938Y-5739561D01*
X24793938Y-5340781D02*
X24395158Y-5739561D01*
X24594548Y-5340781D02*
X24594548Y-5739561D01*
X24395158Y-5540171D02*
X24793938Y-5540171D01*
D11*
X3528347Y-11583503D02*
X3528347Y-11383503D01*
X3528347Y-11383503D02*
X3575966Y-11383503D01*
X3575966Y-11383503D02*
X3604537Y-11393027D01*
X3604537Y-11393027D02*
X3623585Y-11412074D01*
X3623585Y-11412074D02*
X3633109Y-11431122D01*
X3633109Y-11431122D02*
X3642632Y-11469217D01*
X3642632Y-11469217D02*
X3642632Y-11497789D01*
X3642632Y-11497789D02*
X3633109Y-11535884D01*
X3633109Y-11535884D02*
X3623585Y-11554931D01*
X3623585Y-11554931D02*
X3604537Y-11573979D01*
X3604537Y-11573979D02*
X3575966Y-11583503D01*
X3575966Y-11583503D02*
X3528347Y-11583503D01*
X3728347Y-11583503D02*
X3728347Y-11450169D01*
X3728347Y-11488265D02*
X3737871Y-11469217D01*
X3737871Y-11469217D02*
X3747394Y-11459693D01*
X3747394Y-11459693D02*
X3766442Y-11450169D01*
X3766442Y-11450169D02*
X3785490Y-11450169D01*
X3852156Y-11583503D02*
X3852156Y-11450169D01*
X3852156Y-11383503D02*
X3842632Y-11393027D01*
X3842632Y-11393027D02*
X3852156Y-11402550D01*
X3852156Y-11402550D02*
X3861680Y-11393027D01*
X3861680Y-11393027D02*
X3852156Y-11383503D01*
X3852156Y-11383503D02*
X3852156Y-11402550D01*
X3975966Y-11583503D02*
X3956918Y-11573979D01*
X3956918Y-11573979D02*
X3947394Y-11554931D01*
X3947394Y-11554931D02*
X3947394Y-11383503D01*
X4080728Y-11583503D02*
X4061680Y-11573979D01*
X4061680Y-11573979D02*
X4052156Y-11554931D01*
X4052156Y-11554931D02*
X4052156Y-11383503D01*
X4309299Y-11583503D02*
X4309299Y-11383503D01*
X4309299Y-11383503D02*
X4375966Y-11526360D01*
X4375966Y-11526360D02*
X4442633Y-11383503D01*
X4442633Y-11383503D02*
X4442633Y-11583503D01*
X4623585Y-11583503D02*
X4623585Y-11478741D01*
X4623585Y-11478741D02*
X4614061Y-11459693D01*
X4614061Y-11459693D02*
X4595014Y-11450169D01*
X4595014Y-11450169D02*
X4556918Y-11450169D01*
X4556918Y-11450169D02*
X4537871Y-11459693D01*
X4623585Y-11573979D02*
X4604537Y-11583503D01*
X4604537Y-11583503D02*
X4556918Y-11583503D01*
X4556918Y-11583503D02*
X4537871Y-11573979D01*
X4537871Y-11573979D02*
X4528347Y-11554931D01*
X4528347Y-11554931D02*
X4528347Y-11535884D01*
X4528347Y-11535884D02*
X4537871Y-11516836D01*
X4537871Y-11516836D02*
X4556918Y-11507312D01*
X4556918Y-11507312D02*
X4604537Y-11507312D01*
X4604537Y-11507312D02*
X4623585Y-11497789D01*
X4718823Y-11450169D02*
X4718823Y-11650169D01*
X4718823Y-11459693D02*
X4737871Y-11450169D01*
X4737871Y-11450169D02*
X4775966Y-11450169D01*
X4775966Y-11450169D02*
X4795014Y-11459693D01*
X4795014Y-11459693D02*
X4804537Y-11469217D01*
X4804537Y-11469217D02*
X4814061Y-11488265D01*
X4814061Y-11488265D02*
X4814061Y-11545408D01*
X4814061Y-11545408D02*
X4804537Y-11564455D01*
X4804537Y-11564455D02*
X4795014Y-11573979D01*
X4795014Y-11573979D02*
X4775966Y-11583503D01*
X4775966Y-11583503D02*
X4737871Y-11583503D01*
X4737871Y-11583503D02*
X4718823Y-11573979D01*
X4899775Y-11564455D02*
X4909299Y-11573979D01*
X4909299Y-11573979D02*
X4899775Y-11583503D01*
X4899775Y-11583503D02*
X4890252Y-11573979D01*
X4890252Y-11573979D02*
X4899775Y-11564455D01*
X4899775Y-11564455D02*
X4899775Y-11583503D01*
X4899775Y-11459693D02*
X4909299Y-11469217D01*
X4909299Y-11469217D02*
X4899775Y-11478741D01*
X4899775Y-11478741D02*
X4890252Y-11469217D01*
X4890252Y-11469217D02*
X4899775Y-11459693D01*
X4899775Y-11459693D02*
X4899775Y-11478741D01*
D12*
X3202570Y-11879519D02*
X3267570Y-11944519D01*
X3267570Y-11879519D02*
X3202570Y-11944519D01*
D11*
X3566442Y-11803503D02*
X3585490Y-11803503D01*
X3585490Y-11803503D02*
X3604537Y-11813027D01*
X3604537Y-11813027D02*
X3614061Y-11822550D01*
X3614061Y-11822550D02*
X3623585Y-11841598D01*
X3623585Y-11841598D02*
X3633109Y-11879693D01*
X3633109Y-11879693D02*
X3633109Y-11927312D01*
X3633109Y-11927312D02*
X3623585Y-11965408D01*
X3623585Y-11965408D02*
X3614061Y-11984455D01*
X3614061Y-11984455D02*
X3604537Y-11993979D01*
X3604537Y-11993979D02*
X3585490Y-12003503D01*
X3585490Y-12003503D02*
X3566442Y-12003503D01*
X3566442Y-12003503D02*
X3547394Y-11993979D01*
X3547394Y-11993979D02*
X3537871Y-11984455D01*
X3537871Y-11984455D02*
X3528347Y-11965408D01*
X3528347Y-11965408D02*
X3518823Y-11927312D01*
X3518823Y-11927312D02*
X3518823Y-11879693D01*
X3518823Y-11879693D02*
X3528347Y-11841598D01*
X3528347Y-11841598D02*
X3537871Y-11822550D01*
X3537871Y-11822550D02*
X3547394Y-11813027D01*
X3547394Y-11813027D02*
X3566442Y-11803503D01*
X3718823Y-11984455D02*
X3728347Y-11993979D01*
X3728347Y-11993979D02*
X3718823Y-12003503D01*
X3718823Y-12003503D02*
X3709299Y-11993979D01*
X3709299Y-11993979D02*
X3718823Y-11984455D01*
X3718823Y-11984455D02*
X3718823Y-12003503D01*
X3899775Y-11803503D02*
X3861680Y-11803503D01*
X3861680Y-11803503D02*
X3842632Y-11813027D01*
X3842632Y-11813027D02*
X3833109Y-11822550D01*
X3833109Y-11822550D02*
X3814061Y-11851122D01*
X3814061Y-11851122D02*
X3804537Y-11889217D01*
X3804537Y-11889217D02*
X3804537Y-11965408D01*
X3804537Y-11965408D02*
X3814061Y-11984455D01*
X3814061Y-11984455D02*
X3823585Y-11993979D01*
X3823585Y-11993979D02*
X3842632Y-12003503D01*
X3842632Y-12003503D02*
X3880728Y-12003503D01*
X3880728Y-12003503D02*
X3899775Y-11993979D01*
X3899775Y-11993979D02*
X3909299Y-11984455D01*
X3909299Y-11984455D02*
X3918823Y-11965408D01*
X3918823Y-11965408D02*
X3918823Y-11917789D01*
X3918823Y-11917789D02*
X3909299Y-11898741D01*
X3909299Y-11898741D02*
X3899775Y-11889217D01*
X3899775Y-11889217D02*
X3880728Y-11879693D01*
X3880728Y-11879693D02*
X3842632Y-11879693D01*
X3842632Y-11879693D02*
X3823585Y-11889217D01*
X3823585Y-11889217D02*
X3814061Y-11898741D01*
X3814061Y-11898741D02*
X3804537Y-11917789D01*
X4099775Y-11803503D02*
X4004537Y-11803503D01*
X4004537Y-11803503D02*
X3995013Y-11898741D01*
X3995013Y-11898741D02*
X4004537Y-11889217D01*
X4004537Y-11889217D02*
X4023585Y-11879693D01*
X4023585Y-11879693D02*
X4071204Y-11879693D01*
X4071204Y-11879693D02*
X4090252Y-11889217D01*
X4090252Y-11889217D02*
X4099775Y-11898741D01*
X4099775Y-11898741D02*
X4109299Y-11917789D01*
X4109299Y-11917789D02*
X4109299Y-11965408D01*
X4109299Y-11965408D02*
X4099775Y-11984455D01*
X4099775Y-11984455D02*
X4090252Y-11993979D01*
X4090252Y-11993979D02*
X4071204Y-12003503D01*
X4071204Y-12003503D02*
X4023585Y-12003503D01*
X4023585Y-12003503D02*
X4004537Y-11993979D01*
X4004537Y-11993979D02*
X3995013Y-11984455D01*
X4233109Y-11803503D02*
X4252156Y-11803503D01*
X4252156Y-11803503D02*
X4271204Y-11813027D01*
X4271204Y-11813027D02*
X4280728Y-11822550D01*
X4280728Y-11822550D02*
X4290252Y-11841598D01*
X4290252Y-11841598D02*
X4299775Y-11879693D01*
X4299775Y-11879693D02*
X4299775Y-11927312D01*
X4299775Y-11927312D02*
X4290252Y-11965408D01*
X4290252Y-11965408D02*
X4280728Y-11984455D01*
X4280728Y-11984455D02*
X4271204Y-11993979D01*
X4271204Y-11993979D02*
X4252156Y-12003503D01*
X4252156Y-12003503D02*
X4233109Y-12003503D01*
X4233109Y-12003503D02*
X4214061Y-11993979D01*
X4214061Y-11993979D02*
X4204537Y-11984455D01*
X4204537Y-11984455D02*
X4195014Y-11965408D01*
X4195014Y-11965408D02*
X4185490Y-11927312D01*
X4185490Y-11927312D02*
X4185490Y-11879693D01*
X4185490Y-11879693D02*
X4195014Y-11841598D01*
X4195014Y-11841598D02*
X4204537Y-11822550D01*
X4204537Y-11822550D02*
X4214061Y-11813027D01*
X4214061Y-11813027D02*
X4233109Y-11803503D01*
X4385490Y-12003503D02*
X4385490Y-11870169D01*
X4385490Y-11889217D02*
X4395014Y-11879693D01*
X4395014Y-11879693D02*
X4414061Y-11870169D01*
X4414061Y-11870169D02*
X4442633Y-11870169D01*
X4442633Y-11870169D02*
X4461680Y-11879693D01*
X4461680Y-11879693D02*
X4471204Y-11898741D01*
X4471204Y-11898741D02*
X4471204Y-12003503D01*
X4471204Y-11898741D02*
X4480728Y-11879693D01*
X4480728Y-11879693D02*
X4499775Y-11870169D01*
X4499775Y-11870169D02*
X4528347Y-11870169D01*
X4528347Y-11870169D02*
X4547395Y-11879693D01*
X4547395Y-11879693D02*
X4556918Y-11898741D01*
X4556918Y-11898741D02*
X4556918Y-12003503D01*
X4652156Y-12003503D02*
X4652156Y-11870169D01*
X4652156Y-11889217D02*
X4661680Y-11879693D01*
X4661680Y-11879693D02*
X4680728Y-11870169D01*
X4680728Y-11870169D02*
X4709299Y-11870169D01*
X4709299Y-11870169D02*
X4728347Y-11879693D01*
X4728347Y-11879693D02*
X4737871Y-11898741D01*
X4737871Y-11898741D02*
X4737871Y-12003503D01*
X4737871Y-11898741D02*
X4747395Y-11879693D01*
X4747395Y-11879693D02*
X4766442Y-11870169D01*
X4766442Y-11870169D02*
X4795014Y-11870169D01*
X4795014Y-11870169D02*
X4814061Y-11879693D01*
X4814061Y-11879693D02*
X4823585Y-11898741D01*
X4823585Y-11898741D02*
X4823585Y-12003503D01*
X5214061Y-11793979D02*
X5042633Y-12051122D01*
X5471204Y-11803503D02*
X5490252Y-11803503D01*
X5490252Y-11803503D02*
X5509299Y-11813027D01*
X5509299Y-11813027D02*
X5518823Y-11822550D01*
X5518823Y-11822550D02*
X5528347Y-11841598D01*
X5528347Y-11841598D02*
X5537871Y-11879693D01*
X5537871Y-11879693D02*
X5537871Y-11927312D01*
X5537871Y-11927312D02*
X5528347Y-11965408D01*
X5528347Y-11965408D02*
X5518823Y-11984455D01*
X5518823Y-11984455D02*
X5509299Y-11993979D01*
X5509299Y-11993979D02*
X5490252Y-12003503D01*
X5490252Y-12003503D02*
X5471204Y-12003503D01*
X5471204Y-12003503D02*
X5452157Y-11993979D01*
X5452157Y-11993979D02*
X5442633Y-11984455D01*
X5442633Y-11984455D02*
X5433109Y-11965408D01*
X5433109Y-11965408D02*
X5423585Y-11927312D01*
X5423585Y-11927312D02*
X5423585Y-11879693D01*
X5423585Y-11879693D02*
X5433109Y-11841598D01*
X5433109Y-11841598D02*
X5442633Y-11822550D01*
X5442633Y-11822550D02*
X5452157Y-11813027D01*
X5452157Y-11813027D02*
X5471204Y-11803503D01*
X5623585Y-11984455D02*
X5633109Y-11993979D01*
X5633109Y-11993979D02*
X5623585Y-12003503D01*
X5623585Y-12003503D02*
X5614061Y-11993979D01*
X5614061Y-11993979D02*
X5623585Y-11984455D01*
X5623585Y-11984455D02*
X5623585Y-12003503D01*
X5756918Y-11803503D02*
X5775966Y-11803503D01*
X5775966Y-11803503D02*
X5795014Y-11813027D01*
X5795014Y-11813027D02*
X5804537Y-11822550D01*
X5804537Y-11822550D02*
X5814061Y-11841598D01*
X5814061Y-11841598D02*
X5823585Y-11879693D01*
X5823585Y-11879693D02*
X5823585Y-11927312D01*
X5823585Y-11927312D02*
X5814061Y-11965408D01*
X5814061Y-11965408D02*
X5804537Y-11984455D01*
X5804537Y-11984455D02*
X5795014Y-11993979D01*
X5795014Y-11993979D02*
X5775966Y-12003503D01*
X5775966Y-12003503D02*
X5756918Y-12003503D01*
X5756918Y-12003503D02*
X5737871Y-11993979D01*
X5737871Y-11993979D02*
X5728347Y-11984455D01*
X5728347Y-11984455D02*
X5718823Y-11965408D01*
X5718823Y-11965408D02*
X5709299Y-11927312D01*
X5709299Y-11927312D02*
X5709299Y-11879693D01*
X5709299Y-11879693D02*
X5718823Y-11841598D01*
X5718823Y-11841598D02*
X5728347Y-11822550D01*
X5728347Y-11822550D02*
X5737871Y-11813027D01*
X5737871Y-11813027D02*
X5756918Y-11803503D01*
X5899776Y-11822550D02*
X5909299Y-11813027D01*
X5909299Y-11813027D02*
X5928347Y-11803503D01*
X5928347Y-11803503D02*
X5975966Y-11803503D01*
X5975966Y-11803503D02*
X5995014Y-11813027D01*
X5995014Y-11813027D02*
X6004537Y-11822550D01*
X6004537Y-11822550D02*
X6014061Y-11841598D01*
X6014061Y-11841598D02*
X6014061Y-11860646D01*
X6014061Y-11860646D02*
X6004537Y-11889217D01*
X6004537Y-11889217D02*
X5890252Y-12003503D01*
X5890252Y-12003503D02*
X6014061Y-12003503D01*
X6195014Y-11803503D02*
X6099776Y-11803503D01*
X6099776Y-11803503D02*
X6090252Y-11898741D01*
X6090252Y-11898741D02*
X6099776Y-11889217D01*
X6099776Y-11889217D02*
X6118823Y-11879693D01*
X6118823Y-11879693D02*
X6166442Y-11879693D01*
X6166442Y-11879693D02*
X6185490Y-11889217D01*
X6185490Y-11889217D02*
X6195014Y-11898741D01*
X6195014Y-11898741D02*
X6204537Y-11917789D01*
X6204537Y-11917789D02*
X6204537Y-11965408D01*
X6204537Y-11965408D02*
X6195014Y-11984455D01*
X6195014Y-11984455D02*
X6185490Y-11993979D01*
X6185490Y-11993979D02*
X6166442Y-12003503D01*
X6166442Y-12003503D02*
X6118823Y-12003503D01*
X6118823Y-12003503D02*
X6099776Y-11993979D01*
X6099776Y-11993979D02*
X6090252Y-11984455D01*
X6375966Y-11803503D02*
X6337871Y-11803503D01*
X6337871Y-11803503D02*
X6318823Y-11813027D01*
X6318823Y-11813027D02*
X6309299Y-11822550D01*
X6309299Y-11822550D02*
X6290252Y-11851122D01*
X6290252Y-11851122D02*
X6280728Y-11889217D01*
X6280728Y-11889217D02*
X6280728Y-11965408D01*
X6280728Y-11965408D02*
X6290252Y-11984455D01*
X6290252Y-11984455D02*
X6299776Y-11993979D01*
X6299776Y-11993979D02*
X6318823Y-12003503D01*
X6318823Y-12003503D02*
X6356918Y-12003503D01*
X6356918Y-12003503D02*
X6375966Y-11993979D01*
X6375966Y-11993979D02*
X6385490Y-11984455D01*
X6385490Y-11984455D02*
X6395014Y-11965408D01*
X6395014Y-11965408D02*
X6395014Y-11917789D01*
X6395014Y-11917789D02*
X6385490Y-11898741D01*
X6385490Y-11898741D02*
X6375966Y-11889217D01*
X6375966Y-11889217D02*
X6356918Y-11879693D01*
X6356918Y-11879693D02*
X6318823Y-11879693D01*
X6318823Y-11879693D02*
X6299776Y-11889217D01*
X6299776Y-11889217D02*
X6290252Y-11898741D01*
X6290252Y-11898741D02*
X6280728Y-11917789D01*
X6471204Y-11803503D02*
X6471204Y-11841598D01*
X6547395Y-11803503D02*
X6547395Y-11841598D01*
X6842633Y-12079693D02*
X6833109Y-12070169D01*
X6833109Y-12070169D02*
X6814061Y-12041598D01*
X6814061Y-12041598D02*
X6804538Y-12022550D01*
X6804538Y-12022550D02*
X6795014Y-11993979D01*
X6795014Y-11993979D02*
X6785490Y-11946360D01*
X6785490Y-11946360D02*
X6785490Y-11908265D01*
X6785490Y-11908265D02*
X6795014Y-11860646D01*
X6795014Y-11860646D02*
X6804538Y-11832074D01*
X6804538Y-11832074D02*
X6814061Y-11813027D01*
X6814061Y-11813027D02*
X6833109Y-11784455D01*
X6833109Y-11784455D02*
X6842633Y-11774931D01*
X6909299Y-11822550D02*
X6918823Y-11813027D01*
X6918823Y-11813027D02*
X6937871Y-11803503D01*
X6937871Y-11803503D02*
X6985490Y-11803503D01*
X6985490Y-11803503D02*
X7004538Y-11813027D01*
X7004538Y-11813027D02*
X7014061Y-11822550D01*
X7014061Y-11822550D02*
X7023585Y-11841598D01*
X7023585Y-11841598D02*
X7023585Y-11860646D01*
X7023585Y-11860646D02*
X7014061Y-11889217D01*
X7014061Y-11889217D02*
X6899776Y-12003503D01*
X6899776Y-12003503D02*
X7023585Y-12003503D01*
X7261680Y-12003503D02*
X7261680Y-11803503D01*
X7347395Y-12003503D02*
X7347395Y-11898741D01*
X7347395Y-11898741D02*
X7337871Y-11879693D01*
X7337871Y-11879693D02*
X7318823Y-11870169D01*
X7318823Y-11870169D02*
X7290252Y-11870169D01*
X7290252Y-11870169D02*
X7271204Y-11879693D01*
X7271204Y-11879693D02*
X7261680Y-11889217D01*
X7471204Y-12003503D02*
X7452157Y-11993979D01*
X7452157Y-11993979D02*
X7442633Y-11984455D01*
X7442633Y-11984455D02*
X7433109Y-11965408D01*
X7433109Y-11965408D02*
X7433109Y-11908265D01*
X7433109Y-11908265D02*
X7442633Y-11889217D01*
X7442633Y-11889217D02*
X7452157Y-11879693D01*
X7452157Y-11879693D02*
X7471204Y-11870169D01*
X7471204Y-11870169D02*
X7499776Y-11870169D01*
X7499776Y-11870169D02*
X7518823Y-11879693D01*
X7518823Y-11879693D02*
X7528347Y-11889217D01*
X7528347Y-11889217D02*
X7537871Y-11908265D01*
X7537871Y-11908265D02*
X7537871Y-11965408D01*
X7537871Y-11965408D02*
X7528347Y-11984455D01*
X7528347Y-11984455D02*
X7518823Y-11993979D01*
X7518823Y-11993979D02*
X7499776Y-12003503D01*
X7499776Y-12003503D02*
X7471204Y-12003503D01*
X7652157Y-12003503D02*
X7633109Y-11993979D01*
X7633109Y-11993979D02*
X7623585Y-11974931D01*
X7623585Y-11974931D02*
X7623585Y-11803503D01*
X7804538Y-11993979D02*
X7785490Y-12003503D01*
X7785490Y-12003503D02*
X7747395Y-12003503D01*
X7747395Y-12003503D02*
X7728347Y-11993979D01*
X7728347Y-11993979D02*
X7718823Y-11974931D01*
X7718823Y-11974931D02*
X7718823Y-11898741D01*
X7718823Y-11898741D02*
X7728347Y-11879693D01*
X7728347Y-11879693D02*
X7747395Y-11870169D01*
X7747395Y-11870169D02*
X7785490Y-11870169D01*
X7785490Y-11870169D02*
X7804538Y-11879693D01*
X7804538Y-11879693D02*
X7814061Y-11898741D01*
X7814061Y-11898741D02*
X7814061Y-11917789D01*
X7814061Y-11917789D02*
X7718823Y-11936836D01*
X7890252Y-11993979D02*
X7909300Y-12003503D01*
X7909300Y-12003503D02*
X7947395Y-12003503D01*
X7947395Y-12003503D02*
X7966442Y-11993979D01*
X7966442Y-11993979D02*
X7975966Y-11974931D01*
X7975966Y-11974931D02*
X7975966Y-11965408D01*
X7975966Y-11965408D02*
X7966442Y-11946360D01*
X7966442Y-11946360D02*
X7947395Y-11936836D01*
X7947395Y-11936836D02*
X7918823Y-11936836D01*
X7918823Y-11936836D02*
X7899776Y-11927312D01*
X7899776Y-11927312D02*
X7890252Y-11908265D01*
X7890252Y-11908265D02*
X7890252Y-11898741D01*
X7890252Y-11898741D02*
X7899776Y-11879693D01*
X7899776Y-11879693D02*
X7918823Y-11870169D01*
X7918823Y-11870169D02*
X7947395Y-11870169D01*
X7947395Y-11870169D02*
X7966442Y-11879693D01*
X8042633Y-12079693D02*
X8052157Y-12070169D01*
X8052157Y-12070169D02*
X8071204Y-12041598D01*
X8071204Y-12041598D02*
X8080728Y-12022550D01*
X8080728Y-12022550D02*
X8090252Y-11993979D01*
X8090252Y-11993979D02*
X8099776Y-11946360D01*
X8099776Y-11946360D02*
X8099776Y-11908265D01*
X8099776Y-11908265D02*
X8090252Y-11860646D01*
X8090252Y-11860646D02*
X8080728Y-11832074D01*
X8080728Y-11832074D02*
X8071204Y-11813027D01*
X8071204Y-11813027D02*
X8052157Y-11784455D01*
X8052157Y-11784455D02*
X8042633Y-11774931D01*
X8404538Y-12079693D02*
X8395014Y-12070169D01*
X8395014Y-12070169D02*
X8375966Y-12041598D01*
X8375966Y-12041598D02*
X8366442Y-12022550D01*
X8366442Y-12022550D02*
X8356919Y-11993979D01*
X8356919Y-11993979D02*
X8347395Y-11946360D01*
X8347395Y-11946360D02*
X8347395Y-11908265D01*
X8347395Y-11908265D02*
X8356919Y-11860646D01*
X8356919Y-11860646D02*
X8366442Y-11832074D01*
X8366442Y-11832074D02*
X8375966Y-11813027D01*
X8375966Y-11813027D02*
X8395014Y-11784455D01*
X8395014Y-11784455D02*
X8404538Y-11774931D01*
X8480728Y-11870169D02*
X8480728Y-12003503D01*
X8480728Y-11889217D02*
X8490252Y-11879693D01*
X8490252Y-11879693D02*
X8509300Y-11870169D01*
X8509300Y-11870169D02*
X8537871Y-11870169D01*
X8537871Y-11870169D02*
X8556919Y-11879693D01*
X8556919Y-11879693D02*
X8566443Y-11898741D01*
X8566443Y-11898741D02*
X8566443Y-12003503D01*
X8690252Y-12003503D02*
X8671204Y-11993979D01*
X8671204Y-11993979D02*
X8661681Y-11984455D01*
X8661681Y-11984455D02*
X8652157Y-11965408D01*
X8652157Y-11965408D02*
X8652157Y-11908265D01*
X8652157Y-11908265D02*
X8661681Y-11889217D01*
X8661681Y-11889217D02*
X8671204Y-11879693D01*
X8671204Y-11879693D02*
X8690252Y-11870169D01*
X8690252Y-11870169D02*
X8718824Y-11870169D01*
X8718824Y-11870169D02*
X8737871Y-11879693D01*
X8737871Y-11879693D02*
X8747395Y-11889217D01*
X8747395Y-11889217D02*
X8756919Y-11908265D01*
X8756919Y-11908265D02*
X8756919Y-11965408D01*
X8756919Y-11965408D02*
X8747395Y-11984455D01*
X8747395Y-11984455D02*
X8737871Y-11993979D01*
X8737871Y-11993979D02*
X8718824Y-12003503D01*
X8718824Y-12003503D02*
X8690252Y-12003503D01*
X8814062Y-11870169D02*
X8890252Y-11870169D01*
X8842633Y-11803503D02*
X8842633Y-11974931D01*
X8842633Y-11974931D02*
X8852157Y-11993979D01*
X8852157Y-11993979D02*
X8871204Y-12003503D01*
X8871204Y-12003503D02*
X8890252Y-12003503D01*
X9109300Y-11870169D02*
X9109300Y-12070169D01*
X9109300Y-11879693D02*
X9128347Y-11870169D01*
X9128347Y-11870169D02*
X9166443Y-11870169D01*
X9166443Y-11870169D02*
X9185490Y-11879693D01*
X9185490Y-11879693D02*
X9195014Y-11889217D01*
X9195014Y-11889217D02*
X9204538Y-11908265D01*
X9204538Y-11908265D02*
X9204538Y-11965408D01*
X9204538Y-11965408D02*
X9195014Y-11984455D01*
X9195014Y-11984455D02*
X9185490Y-11993979D01*
X9185490Y-11993979D02*
X9166443Y-12003503D01*
X9166443Y-12003503D02*
X9128347Y-12003503D01*
X9128347Y-12003503D02*
X9109300Y-11993979D01*
X9318824Y-12003503D02*
X9299776Y-11993979D01*
X9299776Y-11993979D02*
X9290252Y-11974931D01*
X9290252Y-11974931D02*
X9290252Y-11803503D01*
X9480728Y-12003503D02*
X9480728Y-11898741D01*
X9480728Y-11898741D02*
X9471205Y-11879693D01*
X9471205Y-11879693D02*
X9452157Y-11870169D01*
X9452157Y-11870169D02*
X9414062Y-11870169D01*
X9414062Y-11870169D02*
X9395014Y-11879693D01*
X9480728Y-11993979D02*
X9461681Y-12003503D01*
X9461681Y-12003503D02*
X9414062Y-12003503D01*
X9414062Y-12003503D02*
X9395014Y-11993979D01*
X9395014Y-11993979D02*
X9385490Y-11974931D01*
X9385490Y-11974931D02*
X9385490Y-11955884D01*
X9385490Y-11955884D02*
X9395014Y-11936836D01*
X9395014Y-11936836D02*
X9414062Y-11927312D01*
X9414062Y-11927312D02*
X9461681Y-11927312D01*
X9461681Y-11927312D02*
X9480728Y-11917789D01*
X9547395Y-11870169D02*
X9623585Y-11870169D01*
X9575966Y-11803503D02*
X9575966Y-11974931D01*
X9575966Y-11974931D02*
X9585490Y-11993979D01*
X9585490Y-11993979D02*
X9604538Y-12003503D01*
X9604538Y-12003503D02*
X9623585Y-12003503D01*
X9766443Y-11993979D02*
X9747395Y-12003503D01*
X9747395Y-12003503D02*
X9709300Y-12003503D01*
X9709300Y-12003503D02*
X9690252Y-11993979D01*
X9690252Y-11993979D02*
X9680728Y-11974931D01*
X9680728Y-11974931D02*
X9680728Y-11898741D01*
X9680728Y-11898741D02*
X9690252Y-11879693D01*
X9690252Y-11879693D02*
X9709300Y-11870169D01*
X9709300Y-11870169D02*
X9747395Y-11870169D01*
X9747395Y-11870169D02*
X9766443Y-11879693D01*
X9766443Y-11879693D02*
X9775966Y-11898741D01*
X9775966Y-11898741D02*
X9775966Y-11917789D01*
X9775966Y-11917789D02*
X9680728Y-11936836D01*
X9947395Y-12003503D02*
X9947395Y-11803503D01*
X9947395Y-11993979D02*
X9928347Y-12003503D01*
X9928347Y-12003503D02*
X9890252Y-12003503D01*
X9890252Y-12003503D02*
X9871205Y-11993979D01*
X9871205Y-11993979D02*
X9861681Y-11984455D01*
X9861681Y-11984455D02*
X9852157Y-11965408D01*
X9852157Y-11965408D02*
X9852157Y-11908265D01*
X9852157Y-11908265D02*
X9861681Y-11889217D01*
X9861681Y-11889217D02*
X9871205Y-11879693D01*
X9871205Y-11879693D02*
X9890252Y-11870169D01*
X9890252Y-11870169D02*
X9928347Y-11870169D01*
X9928347Y-11870169D02*
X9947395Y-11879693D01*
X10023586Y-12079693D02*
X10033109Y-12070169D01*
X10033109Y-12070169D02*
X10052157Y-12041598D01*
X10052157Y-12041598D02*
X10061681Y-12022550D01*
X10061681Y-12022550D02*
X10071205Y-11993979D01*
X10071205Y-11993979D02*
X10080728Y-11946360D01*
X10080728Y-11946360D02*
X10080728Y-11908265D01*
X10080728Y-11908265D02*
X10071205Y-11860646D01*
X10071205Y-11860646D02*
X10061681Y-11832074D01*
X10061681Y-11832074D02*
X10052157Y-11813027D01*
X10052157Y-11813027D02*
X10033109Y-11784455D01*
X10033109Y-11784455D02*
X10023586Y-11774931D01*
D13*
X3267570Y-12176019D02*
G75*
G03*
X3267570Y-12176019I-45000J0D01*
G01*
D11*
X3566442Y-12067503D02*
X3585490Y-12067503D01*
X3585490Y-12067503D02*
X3604537Y-12077027D01*
X3604537Y-12077027D02*
X3614061Y-12086550D01*
X3614061Y-12086550D02*
X3623585Y-12105598D01*
X3623585Y-12105598D02*
X3633109Y-12143693D01*
X3633109Y-12143693D02*
X3633109Y-12191312D01*
X3633109Y-12191312D02*
X3623585Y-12229408D01*
X3623585Y-12229408D02*
X3614061Y-12248455D01*
X3614061Y-12248455D02*
X3604537Y-12257979D01*
X3604537Y-12257979D02*
X3585490Y-12267503D01*
X3585490Y-12267503D02*
X3566442Y-12267503D01*
X3566442Y-12267503D02*
X3547394Y-12257979D01*
X3547394Y-12257979D02*
X3537871Y-12248455D01*
X3537871Y-12248455D02*
X3528347Y-12229408D01*
X3528347Y-12229408D02*
X3518823Y-12191312D01*
X3518823Y-12191312D02*
X3518823Y-12143693D01*
X3518823Y-12143693D02*
X3528347Y-12105598D01*
X3528347Y-12105598D02*
X3537871Y-12086550D01*
X3537871Y-12086550D02*
X3547394Y-12077027D01*
X3547394Y-12077027D02*
X3566442Y-12067503D01*
X3718823Y-12248455D02*
X3728347Y-12257979D01*
X3728347Y-12257979D02*
X3718823Y-12267503D01*
X3718823Y-12267503D02*
X3709299Y-12257979D01*
X3709299Y-12257979D02*
X3718823Y-12248455D01*
X3718823Y-12248455D02*
X3718823Y-12267503D01*
X3823585Y-12267503D02*
X3861680Y-12267503D01*
X3861680Y-12267503D02*
X3880728Y-12257979D01*
X3880728Y-12257979D02*
X3890252Y-12248455D01*
X3890252Y-12248455D02*
X3909299Y-12219884D01*
X3909299Y-12219884D02*
X3918823Y-12181789D01*
X3918823Y-12181789D02*
X3918823Y-12105598D01*
X3918823Y-12105598D02*
X3909299Y-12086550D01*
X3909299Y-12086550D02*
X3899775Y-12077027D01*
X3899775Y-12077027D02*
X3880728Y-12067503D01*
X3880728Y-12067503D02*
X3842632Y-12067503D01*
X3842632Y-12067503D02*
X3823585Y-12077027D01*
X3823585Y-12077027D02*
X3814061Y-12086550D01*
X3814061Y-12086550D02*
X3804537Y-12105598D01*
X3804537Y-12105598D02*
X3804537Y-12153217D01*
X3804537Y-12153217D02*
X3814061Y-12172265D01*
X3814061Y-12172265D02*
X3823585Y-12181789D01*
X3823585Y-12181789D02*
X3842632Y-12191312D01*
X3842632Y-12191312D02*
X3880728Y-12191312D01*
X3880728Y-12191312D02*
X3899775Y-12181789D01*
X3899775Y-12181789D02*
X3909299Y-12172265D01*
X3909299Y-12172265D02*
X3918823Y-12153217D01*
X4042632Y-12067503D02*
X4061680Y-12067503D01*
X4061680Y-12067503D02*
X4080728Y-12077027D01*
X4080728Y-12077027D02*
X4090252Y-12086550D01*
X4090252Y-12086550D02*
X4099775Y-12105598D01*
X4099775Y-12105598D02*
X4109299Y-12143693D01*
X4109299Y-12143693D02*
X4109299Y-12191312D01*
X4109299Y-12191312D02*
X4099775Y-12229408D01*
X4099775Y-12229408D02*
X4090252Y-12248455D01*
X4090252Y-12248455D02*
X4080728Y-12257979D01*
X4080728Y-12257979D02*
X4061680Y-12267503D01*
X4061680Y-12267503D02*
X4042632Y-12267503D01*
X4042632Y-12267503D02*
X4023585Y-12257979D01*
X4023585Y-12257979D02*
X4014061Y-12248455D01*
X4014061Y-12248455D02*
X4004537Y-12229408D01*
X4004537Y-12229408D02*
X3995013Y-12191312D01*
X3995013Y-12191312D02*
X3995013Y-12143693D01*
X3995013Y-12143693D02*
X4004537Y-12105598D01*
X4004537Y-12105598D02*
X4014061Y-12086550D01*
X4014061Y-12086550D02*
X4023585Y-12077027D01*
X4023585Y-12077027D02*
X4042632Y-12067503D01*
X4233109Y-12067503D02*
X4252156Y-12067503D01*
X4252156Y-12067503D02*
X4271204Y-12077027D01*
X4271204Y-12077027D02*
X4280728Y-12086550D01*
X4280728Y-12086550D02*
X4290252Y-12105598D01*
X4290252Y-12105598D02*
X4299775Y-12143693D01*
X4299775Y-12143693D02*
X4299775Y-12191312D01*
X4299775Y-12191312D02*
X4290252Y-12229408D01*
X4290252Y-12229408D02*
X4280728Y-12248455D01*
X4280728Y-12248455D02*
X4271204Y-12257979D01*
X4271204Y-12257979D02*
X4252156Y-12267503D01*
X4252156Y-12267503D02*
X4233109Y-12267503D01*
X4233109Y-12267503D02*
X4214061Y-12257979D01*
X4214061Y-12257979D02*
X4204537Y-12248455D01*
X4204537Y-12248455D02*
X4195014Y-12229408D01*
X4195014Y-12229408D02*
X4185490Y-12191312D01*
X4185490Y-12191312D02*
X4185490Y-12143693D01*
X4185490Y-12143693D02*
X4195014Y-12105598D01*
X4195014Y-12105598D02*
X4204537Y-12086550D01*
X4204537Y-12086550D02*
X4214061Y-12077027D01*
X4214061Y-12077027D02*
X4233109Y-12067503D01*
X4385490Y-12267503D02*
X4385490Y-12134169D01*
X4385490Y-12153217D02*
X4395014Y-12143693D01*
X4395014Y-12143693D02*
X4414061Y-12134169D01*
X4414061Y-12134169D02*
X4442633Y-12134169D01*
X4442633Y-12134169D02*
X4461680Y-12143693D01*
X4461680Y-12143693D02*
X4471204Y-12162741D01*
X4471204Y-12162741D02*
X4471204Y-12267503D01*
X4471204Y-12162741D02*
X4480728Y-12143693D01*
X4480728Y-12143693D02*
X4499775Y-12134169D01*
X4499775Y-12134169D02*
X4528347Y-12134169D01*
X4528347Y-12134169D02*
X4547395Y-12143693D01*
X4547395Y-12143693D02*
X4556918Y-12162741D01*
X4556918Y-12162741D02*
X4556918Y-12267503D01*
X4652156Y-12267503D02*
X4652156Y-12134169D01*
X4652156Y-12153217D02*
X4661680Y-12143693D01*
X4661680Y-12143693D02*
X4680728Y-12134169D01*
X4680728Y-12134169D02*
X4709299Y-12134169D01*
X4709299Y-12134169D02*
X4728347Y-12143693D01*
X4728347Y-12143693D02*
X4737871Y-12162741D01*
X4737871Y-12162741D02*
X4737871Y-12267503D01*
X4737871Y-12162741D02*
X4747395Y-12143693D01*
X4747395Y-12143693D02*
X4766442Y-12134169D01*
X4766442Y-12134169D02*
X4795014Y-12134169D01*
X4795014Y-12134169D02*
X4814061Y-12143693D01*
X4814061Y-12143693D02*
X4823585Y-12162741D01*
X4823585Y-12162741D02*
X4823585Y-12267503D01*
X5214061Y-12057979D02*
X5042633Y-12315122D01*
X5471204Y-12067503D02*
X5490252Y-12067503D01*
X5490252Y-12067503D02*
X5509299Y-12077027D01*
X5509299Y-12077027D02*
X5518823Y-12086550D01*
X5518823Y-12086550D02*
X5528347Y-12105598D01*
X5528347Y-12105598D02*
X5537871Y-12143693D01*
X5537871Y-12143693D02*
X5537871Y-12191312D01*
X5537871Y-12191312D02*
X5528347Y-12229408D01*
X5528347Y-12229408D02*
X5518823Y-12248455D01*
X5518823Y-12248455D02*
X5509299Y-12257979D01*
X5509299Y-12257979D02*
X5490252Y-12267503D01*
X5490252Y-12267503D02*
X5471204Y-12267503D01*
X5471204Y-12267503D02*
X5452157Y-12257979D01*
X5452157Y-12257979D02*
X5442633Y-12248455D01*
X5442633Y-12248455D02*
X5433109Y-12229408D01*
X5433109Y-12229408D02*
X5423585Y-12191312D01*
X5423585Y-12191312D02*
X5423585Y-12143693D01*
X5423585Y-12143693D02*
X5433109Y-12105598D01*
X5433109Y-12105598D02*
X5442633Y-12086550D01*
X5442633Y-12086550D02*
X5452157Y-12077027D01*
X5452157Y-12077027D02*
X5471204Y-12067503D01*
X5623585Y-12248455D02*
X5633109Y-12257979D01*
X5633109Y-12257979D02*
X5623585Y-12267503D01*
X5623585Y-12267503D02*
X5614061Y-12257979D01*
X5614061Y-12257979D02*
X5623585Y-12248455D01*
X5623585Y-12248455D02*
X5623585Y-12267503D01*
X5756918Y-12067503D02*
X5775966Y-12067503D01*
X5775966Y-12067503D02*
X5795014Y-12077027D01*
X5795014Y-12077027D02*
X5804537Y-12086550D01*
X5804537Y-12086550D02*
X5814061Y-12105598D01*
X5814061Y-12105598D02*
X5823585Y-12143693D01*
X5823585Y-12143693D02*
X5823585Y-12191312D01*
X5823585Y-12191312D02*
X5814061Y-12229408D01*
X5814061Y-12229408D02*
X5804537Y-12248455D01*
X5804537Y-12248455D02*
X5795014Y-12257979D01*
X5795014Y-12257979D02*
X5775966Y-12267503D01*
X5775966Y-12267503D02*
X5756918Y-12267503D01*
X5756918Y-12267503D02*
X5737871Y-12257979D01*
X5737871Y-12257979D02*
X5728347Y-12248455D01*
X5728347Y-12248455D02*
X5718823Y-12229408D01*
X5718823Y-12229408D02*
X5709299Y-12191312D01*
X5709299Y-12191312D02*
X5709299Y-12143693D01*
X5709299Y-12143693D02*
X5718823Y-12105598D01*
X5718823Y-12105598D02*
X5728347Y-12086550D01*
X5728347Y-12086550D02*
X5737871Y-12077027D01*
X5737871Y-12077027D02*
X5756918Y-12067503D01*
X5890252Y-12067503D02*
X6014061Y-12067503D01*
X6014061Y-12067503D02*
X5947395Y-12143693D01*
X5947395Y-12143693D02*
X5975966Y-12143693D01*
X5975966Y-12143693D02*
X5995014Y-12153217D01*
X5995014Y-12153217D02*
X6004537Y-12162741D01*
X6004537Y-12162741D02*
X6014061Y-12181789D01*
X6014061Y-12181789D02*
X6014061Y-12229408D01*
X6014061Y-12229408D02*
X6004537Y-12248455D01*
X6004537Y-12248455D02*
X5995014Y-12257979D01*
X5995014Y-12257979D02*
X5975966Y-12267503D01*
X5975966Y-12267503D02*
X5918823Y-12267503D01*
X5918823Y-12267503D02*
X5899776Y-12257979D01*
X5899776Y-12257979D02*
X5890252Y-12248455D01*
X6195014Y-12067503D02*
X6099776Y-12067503D01*
X6099776Y-12067503D02*
X6090252Y-12162741D01*
X6090252Y-12162741D02*
X6099776Y-12153217D01*
X6099776Y-12153217D02*
X6118823Y-12143693D01*
X6118823Y-12143693D02*
X6166442Y-12143693D01*
X6166442Y-12143693D02*
X6185490Y-12153217D01*
X6185490Y-12153217D02*
X6195014Y-12162741D01*
X6195014Y-12162741D02*
X6204537Y-12181789D01*
X6204537Y-12181789D02*
X6204537Y-12229408D01*
X6204537Y-12229408D02*
X6195014Y-12248455D01*
X6195014Y-12248455D02*
X6185490Y-12257979D01*
X6185490Y-12257979D02*
X6166442Y-12267503D01*
X6166442Y-12267503D02*
X6118823Y-12267503D01*
X6118823Y-12267503D02*
X6099776Y-12257979D01*
X6099776Y-12257979D02*
X6090252Y-12248455D01*
X6375966Y-12134169D02*
X6375966Y-12267503D01*
X6328347Y-12057979D02*
X6280728Y-12200836D01*
X6280728Y-12200836D02*
X6404537Y-12200836D01*
X6471204Y-12067503D02*
X6471204Y-12105598D01*
X6547395Y-12067503D02*
X6547395Y-12105598D01*
X6842633Y-12343693D02*
X6833109Y-12334169D01*
X6833109Y-12334169D02*
X6814061Y-12305598D01*
X6814061Y-12305598D02*
X6804538Y-12286550D01*
X6804538Y-12286550D02*
X6795014Y-12257979D01*
X6795014Y-12257979D02*
X6785490Y-12210360D01*
X6785490Y-12210360D02*
X6785490Y-12172265D01*
X6785490Y-12172265D02*
X6795014Y-12124646D01*
X6795014Y-12124646D02*
X6804538Y-12096074D01*
X6804538Y-12096074D02*
X6814061Y-12077027D01*
X6814061Y-12077027D02*
X6833109Y-12048455D01*
X6833109Y-12048455D02*
X6842633Y-12038931D01*
X6909299Y-12086550D02*
X6918823Y-12077027D01*
X6918823Y-12077027D02*
X6937871Y-12067503D01*
X6937871Y-12067503D02*
X6985490Y-12067503D01*
X6985490Y-12067503D02*
X7004538Y-12077027D01*
X7004538Y-12077027D02*
X7014061Y-12086550D01*
X7014061Y-12086550D02*
X7023585Y-12105598D01*
X7023585Y-12105598D02*
X7023585Y-12124646D01*
X7023585Y-12124646D02*
X7014061Y-12153217D01*
X7014061Y-12153217D02*
X6899776Y-12267503D01*
X6899776Y-12267503D02*
X7023585Y-12267503D01*
X7261680Y-12267503D02*
X7261680Y-12067503D01*
X7347395Y-12267503D02*
X7347395Y-12162741D01*
X7347395Y-12162741D02*
X7337871Y-12143693D01*
X7337871Y-12143693D02*
X7318823Y-12134169D01*
X7318823Y-12134169D02*
X7290252Y-12134169D01*
X7290252Y-12134169D02*
X7271204Y-12143693D01*
X7271204Y-12143693D02*
X7261680Y-12153217D01*
X7471204Y-12267503D02*
X7452157Y-12257979D01*
X7452157Y-12257979D02*
X7442633Y-12248455D01*
X7442633Y-12248455D02*
X7433109Y-12229408D01*
X7433109Y-12229408D02*
X7433109Y-12172265D01*
X7433109Y-12172265D02*
X7442633Y-12153217D01*
X7442633Y-12153217D02*
X7452157Y-12143693D01*
X7452157Y-12143693D02*
X7471204Y-12134169D01*
X7471204Y-12134169D02*
X7499776Y-12134169D01*
X7499776Y-12134169D02*
X7518823Y-12143693D01*
X7518823Y-12143693D02*
X7528347Y-12153217D01*
X7528347Y-12153217D02*
X7537871Y-12172265D01*
X7537871Y-12172265D02*
X7537871Y-12229408D01*
X7537871Y-12229408D02*
X7528347Y-12248455D01*
X7528347Y-12248455D02*
X7518823Y-12257979D01*
X7518823Y-12257979D02*
X7499776Y-12267503D01*
X7499776Y-12267503D02*
X7471204Y-12267503D01*
X7652157Y-12267503D02*
X7633109Y-12257979D01*
X7633109Y-12257979D02*
X7623585Y-12238931D01*
X7623585Y-12238931D02*
X7623585Y-12067503D01*
X7804538Y-12257979D02*
X7785490Y-12267503D01*
X7785490Y-12267503D02*
X7747395Y-12267503D01*
X7747395Y-12267503D02*
X7728347Y-12257979D01*
X7728347Y-12257979D02*
X7718823Y-12238931D01*
X7718823Y-12238931D02*
X7718823Y-12162741D01*
X7718823Y-12162741D02*
X7728347Y-12143693D01*
X7728347Y-12143693D02*
X7747395Y-12134169D01*
X7747395Y-12134169D02*
X7785490Y-12134169D01*
X7785490Y-12134169D02*
X7804538Y-12143693D01*
X7804538Y-12143693D02*
X7814061Y-12162741D01*
X7814061Y-12162741D02*
X7814061Y-12181789D01*
X7814061Y-12181789D02*
X7718823Y-12200836D01*
X7890252Y-12257979D02*
X7909300Y-12267503D01*
X7909300Y-12267503D02*
X7947395Y-12267503D01*
X7947395Y-12267503D02*
X7966442Y-12257979D01*
X7966442Y-12257979D02*
X7975966Y-12238931D01*
X7975966Y-12238931D02*
X7975966Y-12229408D01*
X7975966Y-12229408D02*
X7966442Y-12210360D01*
X7966442Y-12210360D02*
X7947395Y-12200836D01*
X7947395Y-12200836D02*
X7918823Y-12200836D01*
X7918823Y-12200836D02*
X7899776Y-12191312D01*
X7899776Y-12191312D02*
X7890252Y-12172265D01*
X7890252Y-12172265D02*
X7890252Y-12162741D01*
X7890252Y-12162741D02*
X7899776Y-12143693D01*
X7899776Y-12143693D02*
X7918823Y-12134169D01*
X7918823Y-12134169D02*
X7947395Y-12134169D01*
X7947395Y-12134169D02*
X7966442Y-12143693D01*
X8042633Y-12343693D02*
X8052157Y-12334169D01*
X8052157Y-12334169D02*
X8071204Y-12305598D01*
X8071204Y-12305598D02*
X8080728Y-12286550D01*
X8080728Y-12286550D02*
X8090252Y-12257979D01*
X8090252Y-12257979D02*
X8099776Y-12210360D01*
X8099776Y-12210360D02*
X8099776Y-12172265D01*
X8099776Y-12172265D02*
X8090252Y-12124646D01*
X8090252Y-12124646D02*
X8080728Y-12096074D01*
X8080728Y-12096074D02*
X8071204Y-12077027D01*
X8071204Y-12077027D02*
X8052157Y-12048455D01*
X8052157Y-12048455D02*
X8042633Y-12038931D01*
X8404538Y-12343693D02*
X8395014Y-12334169D01*
X8395014Y-12334169D02*
X8375966Y-12305598D01*
X8375966Y-12305598D02*
X8366442Y-12286550D01*
X8366442Y-12286550D02*
X8356919Y-12257979D01*
X8356919Y-12257979D02*
X8347395Y-12210360D01*
X8347395Y-12210360D02*
X8347395Y-12172265D01*
X8347395Y-12172265D02*
X8356919Y-12124646D01*
X8356919Y-12124646D02*
X8366442Y-12096074D01*
X8366442Y-12096074D02*
X8375966Y-12077027D01*
X8375966Y-12077027D02*
X8395014Y-12048455D01*
X8395014Y-12048455D02*
X8404538Y-12038931D01*
X8480728Y-12134169D02*
X8480728Y-12267503D01*
X8480728Y-12153217D02*
X8490252Y-12143693D01*
X8490252Y-12143693D02*
X8509300Y-12134169D01*
X8509300Y-12134169D02*
X8537871Y-12134169D01*
X8537871Y-12134169D02*
X8556919Y-12143693D01*
X8556919Y-12143693D02*
X8566443Y-12162741D01*
X8566443Y-12162741D02*
X8566443Y-12267503D01*
X8690252Y-12267503D02*
X8671204Y-12257979D01*
X8671204Y-12257979D02*
X8661681Y-12248455D01*
X8661681Y-12248455D02*
X8652157Y-12229408D01*
X8652157Y-12229408D02*
X8652157Y-12172265D01*
X8652157Y-12172265D02*
X8661681Y-12153217D01*
X8661681Y-12153217D02*
X8671204Y-12143693D01*
X8671204Y-12143693D02*
X8690252Y-12134169D01*
X8690252Y-12134169D02*
X8718824Y-12134169D01*
X8718824Y-12134169D02*
X8737871Y-12143693D01*
X8737871Y-12143693D02*
X8747395Y-12153217D01*
X8747395Y-12153217D02*
X8756919Y-12172265D01*
X8756919Y-12172265D02*
X8756919Y-12229408D01*
X8756919Y-12229408D02*
X8747395Y-12248455D01*
X8747395Y-12248455D02*
X8737871Y-12257979D01*
X8737871Y-12257979D02*
X8718824Y-12267503D01*
X8718824Y-12267503D02*
X8690252Y-12267503D01*
X8814062Y-12134169D02*
X8890252Y-12134169D01*
X8842633Y-12067503D02*
X8842633Y-12238931D01*
X8842633Y-12238931D02*
X8852157Y-12257979D01*
X8852157Y-12257979D02*
X8871204Y-12267503D01*
X8871204Y-12267503D02*
X8890252Y-12267503D01*
X9109300Y-12134169D02*
X9109300Y-12334169D01*
X9109300Y-12143693D02*
X9128347Y-12134169D01*
X9128347Y-12134169D02*
X9166443Y-12134169D01*
X9166443Y-12134169D02*
X9185490Y-12143693D01*
X9185490Y-12143693D02*
X9195014Y-12153217D01*
X9195014Y-12153217D02*
X9204538Y-12172265D01*
X9204538Y-12172265D02*
X9204538Y-12229408D01*
X9204538Y-12229408D02*
X9195014Y-12248455D01*
X9195014Y-12248455D02*
X9185490Y-12257979D01*
X9185490Y-12257979D02*
X9166443Y-12267503D01*
X9166443Y-12267503D02*
X9128347Y-12267503D01*
X9128347Y-12267503D02*
X9109300Y-12257979D01*
X9318824Y-12267503D02*
X9299776Y-12257979D01*
X9299776Y-12257979D02*
X9290252Y-12238931D01*
X9290252Y-12238931D02*
X9290252Y-12067503D01*
X9480728Y-12267503D02*
X9480728Y-12162741D01*
X9480728Y-12162741D02*
X9471205Y-12143693D01*
X9471205Y-12143693D02*
X9452157Y-12134169D01*
X9452157Y-12134169D02*
X9414062Y-12134169D01*
X9414062Y-12134169D02*
X9395014Y-12143693D01*
X9480728Y-12257979D02*
X9461681Y-12267503D01*
X9461681Y-12267503D02*
X9414062Y-12267503D01*
X9414062Y-12267503D02*
X9395014Y-12257979D01*
X9395014Y-12257979D02*
X9385490Y-12238931D01*
X9385490Y-12238931D02*
X9385490Y-12219884D01*
X9385490Y-12219884D02*
X9395014Y-12200836D01*
X9395014Y-12200836D02*
X9414062Y-12191312D01*
X9414062Y-12191312D02*
X9461681Y-12191312D01*
X9461681Y-12191312D02*
X9480728Y-12181789D01*
X9547395Y-12134169D02*
X9623585Y-12134169D01*
X9575966Y-12067503D02*
X9575966Y-12238931D01*
X9575966Y-12238931D02*
X9585490Y-12257979D01*
X9585490Y-12257979D02*
X9604538Y-12267503D01*
X9604538Y-12267503D02*
X9623585Y-12267503D01*
X9766443Y-12257979D02*
X9747395Y-12267503D01*
X9747395Y-12267503D02*
X9709300Y-12267503D01*
X9709300Y-12267503D02*
X9690252Y-12257979D01*
X9690252Y-12257979D02*
X9680728Y-12238931D01*
X9680728Y-12238931D02*
X9680728Y-12162741D01*
X9680728Y-12162741D02*
X9690252Y-12143693D01*
X9690252Y-12143693D02*
X9709300Y-12134169D01*
X9709300Y-12134169D02*
X9747395Y-12134169D01*
X9747395Y-12134169D02*
X9766443Y-12143693D01*
X9766443Y-12143693D02*
X9775966Y-12162741D01*
X9775966Y-12162741D02*
X9775966Y-12181789D01*
X9775966Y-12181789D02*
X9680728Y-12200836D01*
X9947395Y-12267503D02*
X9947395Y-12067503D01*
X9947395Y-12257979D02*
X9928347Y-12267503D01*
X9928347Y-12267503D02*
X9890252Y-12267503D01*
X9890252Y-12267503D02*
X9871205Y-12257979D01*
X9871205Y-12257979D02*
X9861681Y-12248455D01*
X9861681Y-12248455D02*
X9852157Y-12229408D01*
X9852157Y-12229408D02*
X9852157Y-12172265D01*
X9852157Y-12172265D02*
X9861681Y-12153217D01*
X9861681Y-12153217D02*
X9871205Y-12143693D01*
X9871205Y-12143693D02*
X9890252Y-12134169D01*
X9890252Y-12134169D02*
X9928347Y-12134169D01*
X9928347Y-12134169D02*
X9947395Y-12143693D01*
X10023586Y-12343693D02*
X10033109Y-12334169D01*
X10033109Y-12334169D02*
X10052157Y-12305598D01*
X10052157Y-12305598D02*
X10061681Y-12286550D01*
X10061681Y-12286550D02*
X10071205Y-12257979D01*
X10071205Y-12257979D02*
X10080728Y-12210360D01*
X10080728Y-12210360D02*
X10080728Y-12172265D01*
X10080728Y-12172265D02*
X10071205Y-12124646D01*
X10071205Y-12124646D02*
X10061681Y-12096074D01*
X10061681Y-12096074D02*
X10052157Y-12077027D01*
X10052157Y-12077027D02*
X10033109Y-12048455D01*
X10033109Y-12048455D02*
X10023586Y-12038931D01*
D14*
X3218040Y-12390489D02*
X3218040Y-12489549D01*
X3168510Y-12440019D02*
X3267570Y-12440019D01*
D11*
X3566442Y-12331503D02*
X3585490Y-12331503D01*
X3585490Y-12331503D02*
X3604537Y-12341027D01*
X3604537Y-12341027D02*
X3614061Y-12350550D01*
X3614061Y-12350550D02*
X3623585Y-12369598D01*
X3623585Y-12369598D02*
X3633109Y-12407693D01*
X3633109Y-12407693D02*
X3633109Y-12455312D01*
X3633109Y-12455312D02*
X3623585Y-12493408D01*
X3623585Y-12493408D02*
X3614061Y-12512455D01*
X3614061Y-12512455D02*
X3604537Y-12521979D01*
X3604537Y-12521979D02*
X3585490Y-12531503D01*
X3585490Y-12531503D02*
X3566442Y-12531503D01*
X3566442Y-12531503D02*
X3547394Y-12521979D01*
X3547394Y-12521979D02*
X3537871Y-12512455D01*
X3537871Y-12512455D02*
X3528347Y-12493408D01*
X3528347Y-12493408D02*
X3518823Y-12455312D01*
X3518823Y-12455312D02*
X3518823Y-12407693D01*
X3518823Y-12407693D02*
X3528347Y-12369598D01*
X3528347Y-12369598D02*
X3537871Y-12350550D01*
X3537871Y-12350550D02*
X3547394Y-12341027D01*
X3547394Y-12341027D02*
X3566442Y-12331503D01*
X3718823Y-12512455D02*
X3728347Y-12521979D01*
X3728347Y-12521979D02*
X3718823Y-12531503D01*
X3718823Y-12531503D02*
X3709299Y-12521979D01*
X3709299Y-12521979D02*
X3718823Y-12512455D01*
X3718823Y-12512455D02*
X3718823Y-12531503D01*
X3823585Y-12531503D02*
X3861680Y-12531503D01*
X3861680Y-12531503D02*
X3880728Y-12521979D01*
X3880728Y-12521979D02*
X3890252Y-12512455D01*
X3890252Y-12512455D02*
X3909299Y-12483884D01*
X3909299Y-12483884D02*
X3918823Y-12445789D01*
X3918823Y-12445789D02*
X3918823Y-12369598D01*
X3918823Y-12369598D02*
X3909299Y-12350550D01*
X3909299Y-12350550D02*
X3899775Y-12341027D01*
X3899775Y-12341027D02*
X3880728Y-12331503D01*
X3880728Y-12331503D02*
X3842632Y-12331503D01*
X3842632Y-12331503D02*
X3823585Y-12341027D01*
X3823585Y-12341027D02*
X3814061Y-12350550D01*
X3814061Y-12350550D02*
X3804537Y-12369598D01*
X3804537Y-12369598D02*
X3804537Y-12417217D01*
X3804537Y-12417217D02*
X3814061Y-12436265D01*
X3814061Y-12436265D02*
X3823585Y-12445789D01*
X3823585Y-12445789D02*
X3842632Y-12455312D01*
X3842632Y-12455312D02*
X3880728Y-12455312D01*
X3880728Y-12455312D02*
X3899775Y-12445789D01*
X3899775Y-12445789D02*
X3909299Y-12436265D01*
X3909299Y-12436265D02*
X3918823Y-12417217D01*
X4014061Y-12531503D02*
X4052156Y-12531503D01*
X4052156Y-12531503D02*
X4071204Y-12521979D01*
X4071204Y-12521979D02*
X4080728Y-12512455D01*
X4080728Y-12512455D02*
X4099775Y-12483884D01*
X4099775Y-12483884D02*
X4109299Y-12445789D01*
X4109299Y-12445789D02*
X4109299Y-12369598D01*
X4109299Y-12369598D02*
X4099775Y-12350550D01*
X4099775Y-12350550D02*
X4090252Y-12341027D01*
X4090252Y-12341027D02*
X4071204Y-12331503D01*
X4071204Y-12331503D02*
X4033109Y-12331503D01*
X4033109Y-12331503D02*
X4014061Y-12341027D01*
X4014061Y-12341027D02*
X4004537Y-12350550D01*
X4004537Y-12350550D02*
X3995013Y-12369598D01*
X3995013Y-12369598D02*
X3995013Y-12417217D01*
X3995013Y-12417217D02*
X4004537Y-12436265D01*
X4004537Y-12436265D02*
X4014061Y-12445789D01*
X4014061Y-12445789D02*
X4033109Y-12455312D01*
X4033109Y-12455312D02*
X4071204Y-12455312D01*
X4071204Y-12455312D02*
X4090252Y-12445789D01*
X4090252Y-12445789D02*
X4099775Y-12436265D01*
X4099775Y-12436265D02*
X4109299Y-12417217D01*
X4299775Y-12531503D02*
X4185490Y-12531503D01*
X4242633Y-12531503D02*
X4242633Y-12331503D01*
X4242633Y-12331503D02*
X4223585Y-12360074D01*
X4223585Y-12360074D02*
X4204537Y-12379122D01*
X4204537Y-12379122D02*
X4185490Y-12388646D01*
X4385490Y-12531503D02*
X4385490Y-12398169D01*
X4385490Y-12417217D02*
X4395014Y-12407693D01*
X4395014Y-12407693D02*
X4414061Y-12398169D01*
X4414061Y-12398169D02*
X4442633Y-12398169D01*
X4442633Y-12398169D02*
X4461680Y-12407693D01*
X4461680Y-12407693D02*
X4471204Y-12426741D01*
X4471204Y-12426741D02*
X4471204Y-12531503D01*
X4471204Y-12426741D02*
X4480728Y-12407693D01*
X4480728Y-12407693D02*
X4499775Y-12398169D01*
X4499775Y-12398169D02*
X4528347Y-12398169D01*
X4528347Y-12398169D02*
X4547395Y-12407693D01*
X4547395Y-12407693D02*
X4556918Y-12426741D01*
X4556918Y-12426741D02*
X4556918Y-12531503D01*
X4652156Y-12531503D02*
X4652156Y-12398169D01*
X4652156Y-12417217D02*
X4661680Y-12407693D01*
X4661680Y-12407693D02*
X4680728Y-12398169D01*
X4680728Y-12398169D02*
X4709299Y-12398169D01*
X4709299Y-12398169D02*
X4728347Y-12407693D01*
X4728347Y-12407693D02*
X4737871Y-12426741D01*
X4737871Y-12426741D02*
X4737871Y-12531503D01*
X4737871Y-12426741D02*
X4747395Y-12407693D01*
X4747395Y-12407693D02*
X4766442Y-12398169D01*
X4766442Y-12398169D02*
X4795014Y-12398169D01*
X4795014Y-12398169D02*
X4814061Y-12407693D01*
X4814061Y-12407693D02*
X4823585Y-12426741D01*
X4823585Y-12426741D02*
X4823585Y-12531503D01*
X5214061Y-12321979D02*
X5042633Y-12579122D01*
X5471204Y-12331503D02*
X5490252Y-12331503D01*
X5490252Y-12331503D02*
X5509299Y-12341027D01*
X5509299Y-12341027D02*
X5518823Y-12350550D01*
X5518823Y-12350550D02*
X5528347Y-12369598D01*
X5528347Y-12369598D02*
X5537871Y-12407693D01*
X5537871Y-12407693D02*
X5537871Y-12455312D01*
X5537871Y-12455312D02*
X5528347Y-12493408D01*
X5528347Y-12493408D02*
X5518823Y-12512455D01*
X5518823Y-12512455D02*
X5509299Y-12521979D01*
X5509299Y-12521979D02*
X5490252Y-12531503D01*
X5490252Y-12531503D02*
X5471204Y-12531503D01*
X5471204Y-12531503D02*
X5452157Y-12521979D01*
X5452157Y-12521979D02*
X5442633Y-12512455D01*
X5442633Y-12512455D02*
X5433109Y-12493408D01*
X5433109Y-12493408D02*
X5423585Y-12455312D01*
X5423585Y-12455312D02*
X5423585Y-12407693D01*
X5423585Y-12407693D02*
X5433109Y-12369598D01*
X5433109Y-12369598D02*
X5442633Y-12350550D01*
X5442633Y-12350550D02*
X5452157Y-12341027D01*
X5452157Y-12341027D02*
X5471204Y-12331503D01*
X5623585Y-12512455D02*
X5633109Y-12521979D01*
X5633109Y-12521979D02*
X5623585Y-12531503D01*
X5623585Y-12531503D02*
X5614061Y-12521979D01*
X5614061Y-12521979D02*
X5623585Y-12512455D01*
X5623585Y-12512455D02*
X5623585Y-12531503D01*
X5756918Y-12331503D02*
X5775966Y-12331503D01*
X5775966Y-12331503D02*
X5795014Y-12341027D01*
X5795014Y-12341027D02*
X5804537Y-12350550D01*
X5804537Y-12350550D02*
X5814061Y-12369598D01*
X5814061Y-12369598D02*
X5823585Y-12407693D01*
X5823585Y-12407693D02*
X5823585Y-12455312D01*
X5823585Y-12455312D02*
X5814061Y-12493408D01*
X5814061Y-12493408D02*
X5804537Y-12512455D01*
X5804537Y-12512455D02*
X5795014Y-12521979D01*
X5795014Y-12521979D02*
X5775966Y-12531503D01*
X5775966Y-12531503D02*
X5756918Y-12531503D01*
X5756918Y-12531503D02*
X5737871Y-12521979D01*
X5737871Y-12521979D02*
X5728347Y-12512455D01*
X5728347Y-12512455D02*
X5718823Y-12493408D01*
X5718823Y-12493408D02*
X5709299Y-12455312D01*
X5709299Y-12455312D02*
X5709299Y-12407693D01*
X5709299Y-12407693D02*
X5718823Y-12369598D01*
X5718823Y-12369598D02*
X5728347Y-12350550D01*
X5728347Y-12350550D02*
X5737871Y-12341027D01*
X5737871Y-12341027D02*
X5756918Y-12331503D01*
X5890252Y-12331503D02*
X6014061Y-12331503D01*
X6014061Y-12331503D02*
X5947395Y-12407693D01*
X5947395Y-12407693D02*
X5975966Y-12407693D01*
X5975966Y-12407693D02*
X5995014Y-12417217D01*
X5995014Y-12417217D02*
X6004537Y-12426741D01*
X6004537Y-12426741D02*
X6014061Y-12445789D01*
X6014061Y-12445789D02*
X6014061Y-12493408D01*
X6014061Y-12493408D02*
X6004537Y-12512455D01*
X6004537Y-12512455D02*
X5995014Y-12521979D01*
X5995014Y-12521979D02*
X5975966Y-12531503D01*
X5975966Y-12531503D02*
X5918823Y-12531503D01*
X5918823Y-12531503D02*
X5899776Y-12521979D01*
X5899776Y-12521979D02*
X5890252Y-12512455D01*
X6109299Y-12531503D02*
X6147395Y-12531503D01*
X6147395Y-12531503D02*
X6166442Y-12521979D01*
X6166442Y-12521979D02*
X6175966Y-12512455D01*
X6175966Y-12512455D02*
X6195014Y-12483884D01*
X6195014Y-12483884D02*
X6204537Y-12445789D01*
X6204537Y-12445789D02*
X6204537Y-12369598D01*
X6204537Y-12369598D02*
X6195014Y-12350550D01*
X6195014Y-12350550D02*
X6185490Y-12341027D01*
X6185490Y-12341027D02*
X6166442Y-12331503D01*
X6166442Y-12331503D02*
X6128347Y-12331503D01*
X6128347Y-12331503D02*
X6109299Y-12341027D01*
X6109299Y-12341027D02*
X6099776Y-12350550D01*
X6099776Y-12350550D02*
X6090252Y-12369598D01*
X6090252Y-12369598D02*
X6090252Y-12417217D01*
X6090252Y-12417217D02*
X6099776Y-12436265D01*
X6099776Y-12436265D02*
X6109299Y-12445789D01*
X6109299Y-12445789D02*
X6128347Y-12455312D01*
X6128347Y-12455312D02*
X6166442Y-12455312D01*
X6166442Y-12455312D02*
X6185490Y-12445789D01*
X6185490Y-12445789D02*
X6195014Y-12436265D01*
X6195014Y-12436265D02*
X6204537Y-12417217D01*
X6328347Y-12331503D02*
X6347395Y-12331503D01*
X6347395Y-12331503D02*
X6366442Y-12341027D01*
X6366442Y-12341027D02*
X6375966Y-12350550D01*
X6375966Y-12350550D02*
X6385490Y-12369598D01*
X6385490Y-12369598D02*
X6395014Y-12407693D01*
X6395014Y-12407693D02*
X6395014Y-12455312D01*
X6395014Y-12455312D02*
X6385490Y-12493408D01*
X6385490Y-12493408D02*
X6375966Y-12512455D01*
X6375966Y-12512455D02*
X6366442Y-12521979D01*
X6366442Y-12521979D02*
X6347395Y-12531503D01*
X6347395Y-12531503D02*
X6328347Y-12531503D01*
X6328347Y-12531503D02*
X6309299Y-12521979D01*
X6309299Y-12521979D02*
X6299776Y-12512455D01*
X6299776Y-12512455D02*
X6290252Y-12493408D01*
X6290252Y-12493408D02*
X6280728Y-12455312D01*
X6280728Y-12455312D02*
X6280728Y-12407693D01*
X6280728Y-12407693D02*
X6290252Y-12369598D01*
X6290252Y-12369598D02*
X6299776Y-12350550D01*
X6299776Y-12350550D02*
X6309299Y-12341027D01*
X6309299Y-12341027D02*
X6328347Y-12331503D01*
X6471204Y-12331503D02*
X6471204Y-12369598D01*
X6547395Y-12331503D02*
X6547395Y-12369598D01*
X6842633Y-12607693D02*
X6833109Y-12598169D01*
X6833109Y-12598169D02*
X6814061Y-12569598D01*
X6814061Y-12569598D02*
X6804538Y-12550550D01*
X6804538Y-12550550D02*
X6795014Y-12521979D01*
X6795014Y-12521979D02*
X6785490Y-12474360D01*
X6785490Y-12474360D02*
X6785490Y-12436265D01*
X6785490Y-12436265D02*
X6795014Y-12388646D01*
X6795014Y-12388646D02*
X6804538Y-12360074D01*
X6804538Y-12360074D02*
X6814061Y-12341027D01*
X6814061Y-12341027D02*
X6833109Y-12312455D01*
X6833109Y-12312455D02*
X6842633Y-12302931D01*
X6899776Y-12331503D02*
X7023585Y-12331503D01*
X7023585Y-12331503D02*
X6956918Y-12407693D01*
X6956918Y-12407693D02*
X6985490Y-12407693D01*
X6985490Y-12407693D02*
X7004538Y-12417217D01*
X7004538Y-12417217D02*
X7014061Y-12426741D01*
X7014061Y-12426741D02*
X7023585Y-12445789D01*
X7023585Y-12445789D02*
X7023585Y-12493408D01*
X7023585Y-12493408D02*
X7014061Y-12512455D01*
X7014061Y-12512455D02*
X7004538Y-12521979D01*
X7004538Y-12521979D02*
X6985490Y-12531503D01*
X6985490Y-12531503D02*
X6928347Y-12531503D01*
X6928347Y-12531503D02*
X6909299Y-12521979D01*
X6909299Y-12521979D02*
X6899776Y-12512455D01*
X7261680Y-12531503D02*
X7261680Y-12331503D01*
X7347395Y-12531503D02*
X7347395Y-12426741D01*
X7347395Y-12426741D02*
X7337871Y-12407693D01*
X7337871Y-12407693D02*
X7318823Y-12398169D01*
X7318823Y-12398169D02*
X7290252Y-12398169D01*
X7290252Y-12398169D02*
X7271204Y-12407693D01*
X7271204Y-12407693D02*
X7261680Y-12417217D01*
X7471204Y-12531503D02*
X7452157Y-12521979D01*
X7452157Y-12521979D02*
X7442633Y-12512455D01*
X7442633Y-12512455D02*
X7433109Y-12493408D01*
X7433109Y-12493408D02*
X7433109Y-12436265D01*
X7433109Y-12436265D02*
X7442633Y-12417217D01*
X7442633Y-12417217D02*
X7452157Y-12407693D01*
X7452157Y-12407693D02*
X7471204Y-12398169D01*
X7471204Y-12398169D02*
X7499776Y-12398169D01*
X7499776Y-12398169D02*
X7518823Y-12407693D01*
X7518823Y-12407693D02*
X7528347Y-12417217D01*
X7528347Y-12417217D02*
X7537871Y-12436265D01*
X7537871Y-12436265D02*
X7537871Y-12493408D01*
X7537871Y-12493408D02*
X7528347Y-12512455D01*
X7528347Y-12512455D02*
X7518823Y-12521979D01*
X7518823Y-12521979D02*
X7499776Y-12531503D01*
X7499776Y-12531503D02*
X7471204Y-12531503D01*
X7652157Y-12531503D02*
X7633109Y-12521979D01*
X7633109Y-12521979D02*
X7623585Y-12502931D01*
X7623585Y-12502931D02*
X7623585Y-12331503D01*
X7804538Y-12521979D02*
X7785490Y-12531503D01*
X7785490Y-12531503D02*
X7747395Y-12531503D01*
X7747395Y-12531503D02*
X7728347Y-12521979D01*
X7728347Y-12521979D02*
X7718823Y-12502931D01*
X7718823Y-12502931D02*
X7718823Y-12426741D01*
X7718823Y-12426741D02*
X7728347Y-12407693D01*
X7728347Y-12407693D02*
X7747395Y-12398169D01*
X7747395Y-12398169D02*
X7785490Y-12398169D01*
X7785490Y-12398169D02*
X7804538Y-12407693D01*
X7804538Y-12407693D02*
X7814061Y-12426741D01*
X7814061Y-12426741D02*
X7814061Y-12445789D01*
X7814061Y-12445789D02*
X7718823Y-12464836D01*
X7890252Y-12521979D02*
X7909300Y-12531503D01*
X7909300Y-12531503D02*
X7947395Y-12531503D01*
X7947395Y-12531503D02*
X7966442Y-12521979D01*
X7966442Y-12521979D02*
X7975966Y-12502931D01*
X7975966Y-12502931D02*
X7975966Y-12493408D01*
X7975966Y-12493408D02*
X7966442Y-12474360D01*
X7966442Y-12474360D02*
X7947395Y-12464836D01*
X7947395Y-12464836D02*
X7918823Y-12464836D01*
X7918823Y-12464836D02*
X7899776Y-12455312D01*
X7899776Y-12455312D02*
X7890252Y-12436265D01*
X7890252Y-12436265D02*
X7890252Y-12426741D01*
X7890252Y-12426741D02*
X7899776Y-12407693D01*
X7899776Y-12407693D02*
X7918823Y-12398169D01*
X7918823Y-12398169D02*
X7947395Y-12398169D01*
X7947395Y-12398169D02*
X7966442Y-12407693D01*
X8042633Y-12607693D02*
X8052157Y-12598169D01*
X8052157Y-12598169D02*
X8071204Y-12569598D01*
X8071204Y-12569598D02*
X8080728Y-12550550D01*
X8080728Y-12550550D02*
X8090252Y-12521979D01*
X8090252Y-12521979D02*
X8099776Y-12474360D01*
X8099776Y-12474360D02*
X8099776Y-12436265D01*
X8099776Y-12436265D02*
X8090252Y-12388646D01*
X8090252Y-12388646D02*
X8080728Y-12360074D01*
X8080728Y-12360074D02*
X8071204Y-12341027D01*
X8071204Y-12341027D02*
X8052157Y-12312455D01*
X8052157Y-12312455D02*
X8042633Y-12302931D01*
X8404538Y-12607693D02*
X8395014Y-12598169D01*
X8395014Y-12598169D02*
X8375966Y-12569598D01*
X8375966Y-12569598D02*
X8366442Y-12550550D01*
X8366442Y-12550550D02*
X8356919Y-12521979D01*
X8356919Y-12521979D02*
X8347395Y-12474360D01*
X8347395Y-12474360D02*
X8347395Y-12436265D01*
X8347395Y-12436265D02*
X8356919Y-12388646D01*
X8356919Y-12388646D02*
X8366442Y-12360074D01*
X8366442Y-12360074D02*
X8375966Y-12341027D01*
X8375966Y-12341027D02*
X8395014Y-12312455D01*
X8395014Y-12312455D02*
X8404538Y-12302931D01*
X8480728Y-12398169D02*
X8480728Y-12531503D01*
X8480728Y-12417217D02*
X8490252Y-12407693D01*
X8490252Y-12407693D02*
X8509300Y-12398169D01*
X8509300Y-12398169D02*
X8537871Y-12398169D01*
X8537871Y-12398169D02*
X8556919Y-12407693D01*
X8556919Y-12407693D02*
X8566443Y-12426741D01*
X8566443Y-12426741D02*
X8566443Y-12531503D01*
X8690252Y-12531503D02*
X8671204Y-12521979D01*
X8671204Y-12521979D02*
X8661681Y-12512455D01*
X8661681Y-12512455D02*
X8652157Y-12493408D01*
X8652157Y-12493408D02*
X8652157Y-12436265D01*
X8652157Y-12436265D02*
X8661681Y-12417217D01*
X8661681Y-12417217D02*
X8671204Y-12407693D01*
X8671204Y-12407693D02*
X8690252Y-12398169D01*
X8690252Y-12398169D02*
X8718824Y-12398169D01*
X8718824Y-12398169D02*
X8737871Y-12407693D01*
X8737871Y-12407693D02*
X8747395Y-12417217D01*
X8747395Y-12417217D02*
X8756919Y-12436265D01*
X8756919Y-12436265D02*
X8756919Y-12493408D01*
X8756919Y-12493408D02*
X8747395Y-12512455D01*
X8747395Y-12512455D02*
X8737871Y-12521979D01*
X8737871Y-12521979D02*
X8718824Y-12531503D01*
X8718824Y-12531503D02*
X8690252Y-12531503D01*
X8814062Y-12398169D02*
X8890252Y-12398169D01*
X8842633Y-12331503D02*
X8842633Y-12502931D01*
X8842633Y-12502931D02*
X8852157Y-12521979D01*
X8852157Y-12521979D02*
X8871204Y-12531503D01*
X8871204Y-12531503D02*
X8890252Y-12531503D01*
X9109300Y-12398169D02*
X9109300Y-12598169D01*
X9109300Y-12407693D02*
X9128347Y-12398169D01*
X9128347Y-12398169D02*
X9166443Y-12398169D01*
X9166443Y-12398169D02*
X9185490Y-12407693D01*
X9185490Y-12407693D02*
X9195014Y-12417217D01*
X9195014Y-12417217D02*
X9204538Y-12436265D01*
X9204538Y-12436265D02*
X9204538Y-12493408D01*
X9204538Y-12493408D02*
X9195014Y-12512455D01*
X9195014Y-12512455D02*
X9185490Y-12521979D01*
X9185490Y-12521979D02*
X9166443Y-12531503D01*
X9166443Y-12531503D02*
X9128347Y-12531503D01*
X9128347Y-12531503D02*
X9109300Y-12521979D01*
X9318824Y-12531503D02*
X9299776Y-12521979D01*
X9299776Y-12521979D02*
X9290252Y-12502931D01*
X9290252Y-12502931D02*
X9290252Y-12331503D01*
X9480728Y-12531503D02*
X9480728Y-12426741D01*
X9480728Y-12426741D02*
X9471205Y-12407693D01*
X9471205Y-12407693D02*
X9452157Y-12398169D01*
X9452157Y-12398169D02*
X9414062Y-12398169D01*
X9414062Y-12398169D02*
X9395014Y-12407693D01*
X9480728Y-12521979D02*
X9461681Y-12531503D01*
X9461681Y-12531503D02*
X9414062Y-12531503D01*
X9414062Y-12531503D02*
X9395014Y-12521979D01*
X9395014Y-12521979D02*
X9385490Y-12502931D01*
X9385490Y-12502931D02*
X9385490Y-12483884D01*
X9385490Y-12483884D02*
X9395014Y-12464836D01*
X9395014Y-12464836D02*
X9414062Y-12455312D01*
X9414062Y-12455312D02*
X9461681Y-12455312D01*
X9461681Y-12455312D02*
X9480728Y-12445789D01*
X9547395Y-12398169D02*
X9623585Y-12398169D01*
X9575966Y-12331503D02*
X9575966Y-12502931D01*
X9575966Y-12502931D02*
X9585490Y-12521979D01*
X9585490Y-12521979D02*
X9604538Y-12531503D01*
X9604538Y-12531503D02*
X9623585Y-12531503D01*
X9766443Y-12521979D02*
X9747395Y-12531503D01*
X9747395Y-12531503D02*
X9709300Y-12531503D01*
X9709300Y-12531503D02*
X9690252Y-12521979D01*
X9690252Y-12521979D02*
X9680728Y-12502931D01*
X9680728Y-12502931D02*
X9680728Y-12426741D01*
X9680728Y-12426741D02*
X9690252Y-12407693D01*
X9690252Y-12407693D02*
X9709300Y-12398169D01*
X9709300Y-12398169D02*
X9747395Y-12398169D01*
X9747395Y-12398169D02*
X9766443Y-12407693D01*
X9766443Y-12407693D02*
X9775966Y-12426741D01*
X9775966Y-12426741D02*
X9775966Y-12445789D01*
X9775966Y-12445789D02*
X9680728Y-12464836D01*
X9947395Y-12531503D02*
X9947395Y-12331503D01*
X9947395Y-12521979D02*
X9928347Y-12531503D01*
X9928347Y-12531503D02*
X9890252Y-12531503D01*
X9890252Y-12531503D02*
X9871205Y-12521979D01*
X9871205Y-12521979D02*
X9861681Y-12512455D01*
X9861681Y-12512455D02*
X9852157Y-12493408D01*
X9852157Y-12493408D02*
X9852157Y-12436265D01*
X9852157Y-12436265D02*
X9861681Y-12417217D01*
X9861681Y-12417217D02*
X9871205Y-12407693D01*
X9871205Y-12407693D02*
X9890252Y-12398169D01*
X9890252Y-12398169D02*
X9928347Y-12398169D01*
X9928347Y-12398169D02*
X9947395Y-12407693D01*
X10023586Y-12607693D02*
X10033109Y-12598169D01*
X10033109Y-12598169D02*
X10052157Y-12569598D01*
X10052157Y-12569598D02*
X10061681Y-12550550D01*
X10061681Y-12550550D02*
X10071205Y-12521979D01*
X10071205Y-12521979D02*
X10080728Y-12474360D01*
X10080728Y-12474360D02*
X10080728Y-12436265D01*
X10080728Y-12436265D02*
X10071205Y-12388646D01*
X10071205Y-12388646D02*
X10061681Y-12360074D01*
X10061681Y-12360074D02*
X10052157Y-12341027D01*
X10052157Y-12341027D02*
X10033109Y-12312455D01*
X10033109Y-12312455D02*
X10023586Y-12302931D01*
D15*
X3241942Y-12765891D02*
X3241942Y-12642147D01*
X3118198Y-12642147D01*
X3118198Y-12765891D01*
X3241942Y-12765891D01*
D11*
X3633109Y-12795503D02*
X3518823Y-12795503D01*
X3575966Y-12795503D02*
X3575966Y-12595503D01*
X3575966Y-12595503D02*
X3556918Y-12624074D01*
X3556918Y-12624074D02*
X3537871Y-12643122D01*
X3537871Y-12643122D02*
X3518823Y-12652646D01*
X3718823Y-12776455D02*
X3728347Y-12785979D01*
X3728347Y-12785979D02*
X3718823Y-12795503D01*
X3718823Y-12795503D02*
X3709299Y-12785979D01*
X3709299Y-12785979D02*
X3718823Y-12776455D01*
X3718823Y-12776455D02*
X3718823Y-12795503D01*
X3795013Y-12595503D02*
X3928347Y-12595503D01*
X3928347Y-12595503D02*
X3842632Y-12795503D01*
X4099775Y-12595503D02*
X4004537Y-12595503D01*
X4004537Y-12595503D02*
X3995013Y-12690741D01*
X3995013Y-12690741D02*
X4004537Y-12681217D01*
X4004537Y-12681217D02*
X4023585Y-12671693D01*
X4023585Y-12671693D02*
X4071204Y-12671693D01*
X4071204Y-12671693D02*
X4090252Y-12681217D01*
X4090252Y-12681217D02*
X4099775Y-12690741D01*
X4099775Y-12690741D02*
X4109299Y-12709789D01*
X4109299Y-12709789D02*
X4109299Y-12757408D01*
X4109299Y-12757408D02*
X4099775Y-12776455D01*
X4099775Y-12776455D02*
X4090252Y-12785979D01*
X4090252Y-12785979D02*
X4071204Y-12795503D01*
X4071204Y-12795503D02*
X4023585Y-12795503D01*
X4023585Y-12795503D02*
X4004537Y-12785979D01*
X4004537Y-12785979D02*
X3995013Y-12776455D01*
X4233109Y-12595503D02*
X4252156Y-12595503D01*
X4252156Y-12595503D02*
X4271204Y-12605027D01*
X4271204Y-12605027D02*
X4280728Y-12614550D01*
X4280728Y-12614550D02*
X4290252Y-12633598D01*
X4290252Y-12633598D02*
X4299775Y-12671693D01*
X4299775Y-12671693D02*
X4299775Y-12719312D01*
X4299775Y-12719312D02*
X4290252Y-12757408D01*
X4290252Y-12757408D02*
X4280728Y-12776455D01*
X4280728Y-12776455D02*
X4271204Y-12785979D01*
X4271204Y-12785979D02*
X4252156Y-12795503D01*
X4252156Y-12795503D02*
X4233109Y-12795503D01*
X4233109Y-12795503D02*
X4214061Y-12785979D01*
X4214061Y-12785979D02*
X4204537Y-12776455D01*
X4204537Y-12776455D02*
X4195014Y-12757408D01*
X4195014Y-12757408D02*
X4185490Y-12719312D01*
X4185490Y-12719312D02*
X4185490Y-12671693D01*
X4185490Y-12671693D02*
X4195014Y-12633598D01*
X4195014Y-12633598D02*
X4204537Y-12614550D01*
X4204537Y-12614550D02*
X4214061Y-12605027D01*
X4214061Y-12605027D02*
X4233109Y-12595503D01*
X4385490Y-12795503D02*
X4385490Y-12662169D01*
X4385490Y-12681217D02*
X4395014Y-12671693D01*
X4395014Y-12671693D02*
X4414061Y-12662169D01*
X4414061Y-12662169D02*
X4442633Y-12662169D01*
X4442633Y-12662169D02*
X4461680Y-12671693D01*
X4461680Y-12671693D02*
X4471204Y-12690741D01*
X4471204Y-12690741D02*
X4471204Y-12795503D01*
X4471204Y-12690741D02*
X4480728Y-12671693D01*
X4480728Y-12671693D02*
X4499775Y-12662169D01*
X4499775Y-12662169D02*
X4528347Y-12662169D01*
X4528347Y-12662169D02*
X4547395Y-12671693D01*
X4547395Y-12671693D02*
X4556918Y-12690741D01*
X4556918Y-12690741D02*
X4556918Y-12795503D01*
X4652156Y-12795503D02*
X4652156Y-12662169D01*
X4652156Y-12681217D02*
X4661680Y-12671693D01*
X4661680Y-12671693D02*
X4680728Y-12662169D01*
X4680728Y-12662169D02*
X4709299Y-12662169D01*
X4709299Y-12662169D02*
X4728347Y-12671693D01*
X4728347Y-12671693D02*
X4737871Y-12690741D01*
X4737871Y-12690741D02*
X4737871Y-12795503D01*
X4737871Y-12690741D02*
X4747395Y-12671693D01*
X4747395Y-12671693D02*
X4766442Y-12662169D01*
X4766442Y-12662169D02*
X4795014Y-12662169D01*
X4795014Y-12662169D02*
X4814061Y-12671693D01*
X4814061Y-12671693D02*
X4823585Y-12690741D01*
X4823585Y-12690741D02*
X4823585Y-12795503D01*
X5214061Y-12585979D02*
X5042633Y-12843122D01*
X5471204Y-12595503D02*
X5490252Y-12595503D01*
X5490252Y-12595503D02*
X5509299Y-12605027D01*
X5509299Y-12605027D02*
X5518823Y-12614550D01*
X5518823Y-12614550D02*
X5528347Y-12633598D01*
X5528347Y-12633598D02*
X5537871Y-12671693D01*
X5537871Y-12671693D02*
X5537871Y-12719312D01*
X5537871Y-12719312D02*
X5528347Y-12757408D01*
X5528347Y-12757408D02*
X5518823Y-12776455D01*
X5518823Y-12776455D02*
X5509299Y-12785979D01*
X5509299Y-12785979D02*
X5490252Y-12795503D01*
X5490252Y-12795503D02*
X5471204Y-12795503D01*
X5471204Y-12795503D02*
X5452157Y-12785979D01*
X5452157Y-12785979D02*
X5442633Y-12776455D01*
X5442633Y-12776455D02*
X5433109Y-12757408D01*
X5433109Y-12757408D02*
X5423585Y-12719312D01*
X5423585Y-12719312D02*
X5423585Y-12671693D01*
X5423585Y-12671693D02*
X5433109Y-12633598D01*
X5433109Y-12633598D02*
X5442633Y-12614550D01*
X5442633Y-12614550D02*
X5452157Y-12605027D01*
X5452157Y-12605027D02*
X5471204Y-12595503D01*
X5623585Y-12776455D02*
X5633109Y-12785979D01*
X5633109Y-12785979D02*
X5623585Y-12795503D01*
X5623585Y-12795503D02*
X5614061Y-12785979D01*
X5614061Y-12785979D02*
X5623585Y-12776455D01*
X5623585Y-12776455D02*
X5623585Y-12795503D01*
X5756918Y-12595503D02*
X5775966Y-12595503D01*
X5775966Y-12595503D02*
X5795014Y-12605027D01*
X5795014Y-12605027D02*
X5804537Y-12614550D01*
X5804537Y-12614550D02*
X5814061Y-12633598D01*
X5814061Y-12633598D02*
X5823585Y-12671693D01*
X5823585Y-12671693D02*
X5823585Y-12719312D01*
X5823585Y-12719312D02*
X5814061Y-12757408D01*
X5814061Y-12757408D02*
X5804537Y-12776455D01*
X5804537Y-12776455D02*
X5795014Y-12785979D01*
X5795014Y-12785979D02*
X5775966Y-12795503D01*
X5775966Y-12795503D02*
X5756918Y-12795503D01*
X5756918Y-12795503D02*
X5737871Y-12785979D01*
X5737871Y-12785979D02*
X5728347Y-12776455D01*
X5728347Y-12776455D02*
X5718823Y-12757408D01*
X5718823Y-12757408D02*
X5709299Y-12719312D01*
X5709299Y-12719312D02*
X5709299Y-12671693D01*
X5709299Y-12671693D02*
X5718823Y-12633598D01*
X5718823Y-12633598D02*
X5728347Y-12614550D01*
X5728347Y-12614550D02*
X5737871Y-12605027D01*
X5737871Y-12605027D02*
X5756918Y-12595503D01*
X5995014Y-12595503D02*
X5956918Y-12595503D01*
X5956918Y-12595503D02*
X5937871Y-12605027D01*
X5937871Y-12605027D02*
X5928347Y-12614550D01*
X5928347Y-12614550D02*
X5909299Y-12643122D01*
X5909299Y-12643122D02*
X5899776Y-12681217D01*
X5899776Y-12681217D02*
X5899776Y-12757408D01*
X5899776Y-12757408D02*
X5909299Y-12776455D01*
X5909299Y-12776455D02*
X5918823Y-12785979D01*
X5918823Y-12785979D02*
X5937871Y-12795503D01*
X5937871Y-12795503D02*
X5975966Y-12795503D01*
X5975966Y-12795503D02*
X5995014Y-12785979D01*
X5995014Y-12785979D02*
X6004537Y-12776455D01*
X6004537Y-12776455D02*
X6014061Y-12757408D01*
X6014061Y-12757408D02*
X6014061Y-12709789D01*
X6014061Y-12709789D02*
X6004537Y-12690741D01*
X6004537Y-12690741D02*
X5995014Y-12681217D01*
X5995014Y-12681217D02*
X5975966Y-12671693D01*
X5975966Y-12671693D02*
X5937871Y-12671693D01*
X5937871Y-12671693D02*
X5918823Y-12681217D01*
X5918823Y-12681217D02*
X5909299Y-12690741D01*
X5909299Y-12690741D02*
X5899776Y-12709789D01*
X6128347Y-12681217D02*
X6109299Y-12671693D01*
X6109299Y-12671693D02*
X6099776Y-12662169D01*
X6099776Y-12662169D02*
X6090252Y-12643122D01*
X6090252Y-12643122D02*
X6090252Y-12633598D01*
X6090252Y-12633598D02*
X6099776Y-12614550D01*
X6099776Y-12614550D02*
X6109299Y-12605027D01*
X6109299Y-12605027D02*
X6128347Y-12595503D01*
X6128347Y-12595503D02*
X6166442Y-12595503D01*
X6166442Y-12595503D02*
X6185490Y-12605027D01*
X6185490Y-12605027D02*
X6195014Y-12614550D01*
X6195014Y-12614550D02*
X6204537Y-12633598D01*
X6204537Y-12633598D02*
X6204537Y-12643122D01*
X6204537Y-12643122D02*
X6195014Y-12662169D01*
X6195014Y-12662169D02*
X6185490Y-12671693D01*
X6185490Y-12671693D02*
X6166442Y-12681217D01*
X6166442Y-12681217D02*
X6128347Y-12681217D01*
X6128347Y-12681217D02*
X6109299Y-12690741D01*
X6109299Y-12690741D02*
X6099776Y-12700265D01*
X6099776Y-12700265D02*
X6090252Y-12719312D01*
X6090252Y-12719312D02*
X6090252Y-12757408D01*
X6090252Y-12757408D02*
X6099776Y-12776455D01*
X6099776Y-12776455D02*
X6109299Y-12785979D01*
X6109299Y-12785979D02*
X6128347Y-12795503D01*
X6128347Y-12795503D02*
X6166442Y-12795503D01*
X6166442Y-12795503D02*
X6185490Y-12785979D01*
X6185490Y-12785979D02*
X6195014Y-12776455D01*
X6195014Y-12776455D02*
X6204537Y-12757408D01*
X6204537Y-12757408D02*
X6204537Y-12719312D01*
X6204537Y-12719312D02*
X6195014Y-12700265D01*
X6195014Y-12700265D02*
X6185490Y-12690741D01*
X6185490Y-12690741D02*
X6166442Y-12681217D01*
X6299776Y-12795503D02*
X6337871Y-12795503D01*
X6337871Y-12795503D02*
X6356918Y-12785979D01*
X6356918Y-12785979D02*
X6366442Y-12776455D01*
X6366442Y-12776455D02*
X6385490Y-12747884D01*
X6385490Y-12747884D02*
X6395014Y-12709789D01*
X6395014Y-12709789D02*
X6395014Y-12633598D01*
X6395014Y-12633598D02*
X6385490Y-12614550D01*
X6385490Y-12614550D02*
X6375966Y-12605027D01*
X6375966Y-12605027D02*
X6356918Y-12595503D01*
X6356918Y-12595503D02*
X6318823Y-12595503D01*
X6318823Y-12595503D02*
X6299776Y-12605027D01*
X6299776Y-12605027D02*
X6290252Y-12614550D01*
X6290252Y-12614550D02*
X6280728Y-12633598D01*
X6280728Y-12633598D02*
X6280728Y-12681217D01*
X6280728Y-12681217D02*
X6290252Y-12700265D01*
X6290252Y-12700265D02*
X6299776Y-12709789D01*
X6299776Y-12709789D02*
X6318823Y-12719312D01*
X6318823Y-12719312D02*
X6356918Y-12719312D01*
X6356918Y-12719312D02*
X6375966Y-12709789D01*
X6375966Y-12709789D02*
X6385490Y-12700265D01*
X6385490Y-12700265D02*
X6395014Y-12681217D01*
X6471204Y-12595503D02*
X6471204Y-12633598D01*
X6547395Y-12595503D02*
X6547395Y-12633598D01*
X6842633Y-12871693D02*
X6833109Y-12862169D01*
X6833109Y-12862169D02*
X6814061Y-12833598D01*
X6814061Y-12833598D02*
X6804538Y-12814550D01*
X6804538Y-12814550D02*
X6795014Y-12785979D01*
X6795014Y-12785979D02*
X6785490Y-12738360D01*
X6785490Y-12738360D02*
X6785490Y-12700265D01*
X6785490Y-12700265D02*
X6795014Y-12652646D01*
X6795014Y-12652646D02*
X6804538Y-12624074D01*
X6804538Y-12624074D02*
X6814061Y-12605027D01*
X6814061Y-12605027D02*
X6833109Y-12576455D01*
X6833109Y-12576455D02*
X6842633Y-12566931D01*
X6899776Y-12595503D02*
X7033109Y-12595503D01*
X7033109Y-12595503D02*
X6947395Y-12795503D01*
X7195014Y-12595503D02*
X7156918Y-12595503D01*
X7156918Y-12595503D02*
X7137871Y-12605027D01*
X7137871Y-12605027D02*
X7128347Y-12614550D01*
X7128347Y-12614550D02*
X7109299Y-12643122D01*
X7109299Y-12643122D02*
X7099776Y-12681217D01*
X7099776Y-12681217D02*
X7099776Y-12757408D01*
X7099776Y-12757408D02*
X7109299Y-12776455D01*
X7109299Y-12776455D02*
X7118823Y-12785979D01*
X7118823Y-12785979D02*
X7137871Y-12795503D01*
X7137871Y-12795503D02*
X7175966Y-12795503D01*
X7175966Y-12795503D02*
X7195014Y-12785979D01*
X7195014Y-12785979D02*
X7204538Y-12776455D01*
X7204538Y-12776455D02*
X7214061Y-12757408D01*
X7214061Y-12757408D02*
X7214061Y-12709789D01*
X7214061Y-12709789D02*
X7204538Y-12690741D01*
X7204538Y-12690741D02*
X7195014Y-12681217D01*
X7195014Y-12681217D02*
X7175966Y-12671693D01*
X7175966Y-12671693D02*
X7137871Y-12671693D01*
X7137871Y-12671693D02*
X7118823Y-12681217D01*
X7118823Y-12681217D02*
X7109299Y-12690741D01*
X7109299Y-12690741D02*
X7099776Y-12709789D01*
X7452157Y-12795503D02*
X7452157Y-12595503D01*
X7537871Y-12795503D02*
X7537871Y-12690741D01*
X7537871Y-12690741D02*
X7528347Y-12671693D01*
X7528347Y-12671693D02*
X7509300Y-12662169D01*
X7509300Y-12662169D02*
X7480728Y-12662169D01*
X7480728Y-12662169D02*
X7461680Y-12671693D01*
X7461680Y-12671693D02*
X7452157Y-12681217D01*
X7661680Y-12795503D02*
X7642633Y-12785979D01*
X7642633Y-12785979D02*
X7633109Y-12776455D01*
X7633109Y-12776455D02*
X7623585Y-12757408D01*
X7623585Y-12757408D02*
X7623585Y-12700265D01*
X7623585Y-12700265D02*
X7633109Y-12681217D01*
X7633109Y-12681217D02*
X7642633Y-12671693D01*
X7642633Y-12671693D02*
X7661680Y-12662169D01*
X7661680Y-12662169D02*
X7690252Y-12662169D01*
X7690252Y-12662169D02*
X7709300Y-12671693D01*
X7709300Y-12671693D02*
X7718823Y-12681217D01*
X7718823Y-12681217D02*
X7728347Y-12700265D01*
X7728347Y-12700265D02*
X7728347Y-12757408D01*
X7728347Y-12757408D02*
X7718823Y-12776455D01*
X7718823Y-12776455D02*
X7709300Y-12785979D01*
X7709300Y-12785979D02*
X7690252Y-12795503D01*
X7690252Y-12795503D02*
X7661680Y-12795503D01*
X7842633Y-12795503D02*
X7823585Y-12785979D01*
X7823585Y-12785979D02*
X7814061Y-12766931D01*
X7814061Y-12766931D02*
X7814061Y-12595503D01*
X7995014Y-12785979D02*
X7975966Y-12795503D01*
X7975966Y-12795503D02*
X7937871Y-12795503D01*
X7937871Y-12795503D02*
X7918823Y-12785979D01*
X7918823Y-12785979D02*
X7909300Y-12766931D01*
X7909300Y-12766931D02*
X7909300Y-12690741D01*
X7909300Y-12690741D02*
X7918823Y-12671693D01*
X7918823Y-12671693D02*
X7937871Y-12662169D01*
X7937871Y-12662169D02*
X7975966Y-12662169D01*
X7975966Y-12662169D02*
X7995014Y-12671693D01*
X7995014Y-12671693D02*
X8004538Y-12690741D01*
X8004538Y-12690741D02*
X8004538Y-12709789D01*
X8004538Y-12709789D02*
X7909300Y-12728836D01*
X8080728Y-12785979D02*
X8099776Y-12795503D01*
X8099776Y-12795503D02*
X8137871Y-12795503D01*
X8137871Y-12795503D02*
X8156919Y-12785979D01*
X8156919Y-12785979D02*
X8166442Y-12766931D01*
X8166442Y-12766931D02*
X8166442Y-12757408D01*
X8166442Y-12757408D02*
X8156919Y-12738360D01*
X8156919Y-12738360D02*
X8137871Y-12728836D01*
X8137871Y-12728836D02*
X8109300Y-12728836D01*
X8109300Y-12728836D02*
X8090252Y-12719312D01*
X8090252Y-12719312D02*
X8080728Y-12700265D01*
X8080728Y-12700265D02*
X8080728Y-12690741D01*
X8080728Y-12690741D02*
X8090252Y-12671693D01*
X8090252Y-12671693D02*
X8109300Y-12662169D01*
X8109300Y-12662169D02*
X8137871Y-12662169D01*
X8137871Y-12662169D02*
X8156919Y-12671693D01*
X8233109Y-12871693D02*
X8242633Y-12862169D01*
X8242633Y-12862169D02*
X8261681Y-12833598D01*
X8261681Y-12833598D02*
X8271204Y-12814550D01*
X8271204Y-12814550D02*
X8280728Y-12785979D01*
X8280728Y-12785979D02*
X8290252Y-12738360D01*
X8290252Y-12738360D02*
X8290252Y-12700265D01*
X8290252Y-12700265D02*
X8280728Y-12652646D01*
X8280728Y-12652646D02*
X8271204Y-12624074D01*
X8271204Y-12624074D02*
X8261681Y-12605027D01*
X8261681Y-12605027D02*
X8242633Y-12576455D01*
X8242633Y-12576455D02*
X8233109Y-12566931D01*
X8595014Y-12871693D02*
X8585490Y-12862169D01*
X8585490Y-12862169D02*
X8566443Y-12833598D01*
X8566443Y-12833598D02*
X8556919Y-12814550D01*
X8556919Y-12814550D02*
X8547395Y-12785979D01*
X8547395Y-12785979D02*
X8537871Y-12738360D01*
X8537871Y-12738360D02*
X8537871Y-12700265D01*
X8537871Y-12700265D02*
X8547395Y-12652646D01*
X8547395Y-12652646D02*
X8556919Y-12624074D01*
X8556919Y-12624074D02*
X8566443Y-12605027D01*
X8566443Y-12605027D02*
X8585490Y-12576455D01*
X8585490Y-12576455D02*
X8595014Y-12566931D01*
X8671204Y-12662169D02*
X8671204Y-12795503D01*
X8671204Y-12681217D02*
X8680728Y-12671693D01*
X8680728Y-12671693D02*
X8699776Y-12662169D01*
X8699776Y-12662169D02*
X8728347Y-12662169D01*
X8728347Y-12662169D02*
X8747395Y-12671693D01*
X8747395Y-12671693D02*
X8756919Y-12690741D01*
X8756919Y-12690741D02*
X8756919Y-12795503D01*
X8880728Y-12795503D02*
X8861681Y-12785979D01*
X8861681Y-12785979D02*
X8852157Y-12776455D01*
X8852157Y-12776455D02*
X8842633Y-12757408D01*
X8842633Y-12757408D02*
X8842633Y-12700265D01*
X8842633Y-12700265D02*
X8852157Y-12681217D01*
X8852157Y-12681217D02*
X8861681Y-12671693D01*
X8861681Y-12671693D02*
X8880728Y-12662169D01*
X8880728Y-12662169D02*
X8909300Y-12662169D01*
X8909300Y-12662169D02*
X8928347Y-12671693D01*
X8928347Y-12671693D02*
X8937871Y-12681217D01*
X8937871Y-12681217D02*
X8947395Y-12700265D01*
X8947395Y-12700265D02*
X8947395Y-12757408D01*
X8947395Y-12757408D02*
X8937871Y-12776455D01*
X8937871Y-12776455D02*
X8928347Y-12785979D01*
X8928347Y-12785979D02*
X8909300Y-12795503D01*
X8909300Y-12795503D02*
X8880728Y-12795503D01*
X9004538Y-12662169D02*
X9080728Y-12662169D01*
X9033109Y-12595503D02*
X9033109Y-12766931D01*
X9033109Y-12766931D02*
X9042633Y-12785979D01*
X9042633Y-12785979D02*
X9061681Y-12795503D01*
X9061681Y-12795503D02*
X9080728Y-12795503D01*
X9299776Y-12662169D02*
X9299776Y-12862169D01*
X9299776Y-12671693D02*
X9318824Y-12662169D01*
X9318824Y-12662169D02*
X9356919Y-12662169D01*
X9356919Y-12662169D02*
X9375966Y-12671693D01*
X9375966Y-12671693D02*
X9385490Y-12681217D01*
X9385490Y-12681217D02*
X9395014Y-12700265D01*
X9395014Y-12700265D02*
X9395014Y-12757408D01*
X9395014Y-12757408D02*
X9385490Y-12776455D01*
X9385490Y-12776455D02*
X9375966Y-12785979D01*
X9375966Y-12785979D02*
X9356919Y-12795503D01*
X9356919Y-12795503D02*
X9318824Y-12795503D01*
X9318824Y-12795503D02*
X9299776Y-12785979D01*
X9509300Y-12795503D02*
X9490252Y-12785979D01*
X9490252Y-12785979D02*
X9480728Y-12766931D01*
X9480728Y-12766931D02*
X9480728Y-12595503D01*
X9671205Y-12795503D02*
X9671205Y-12690741D01*
X9671205Y-12690741D02*
X9661681Y-12671693D01*
X9661681Y-12671693D02*
X9642633Y-12662169D01*
X9642633Y-12662169D02*
X9604538Y-12662169D01*
X9604538Y-12662169D02*
X9585490Y-12671693D01*
X9671205Y-12785979D02*
X9652157Y-12795503D01*
X9652157Y-12795503D02*
X9604538Y-12795503D01*
X9604538Y-12795503D02*
X9585490Y-12785979D01*
X9585490Y-12785979D02*
X9575966Y-12766931D01*
X9575966Y-12766931D02*
X9575966Y-12747884D01*
X9575966Y-12747884D02*
X9585490Y-12728836D01*
X9585490Y-12728836D02*
X9604538Y-12719312D01*
X9604538Y-12719312D02*
X9652157Y-12719312D01*
X9652157Y-12719312D02*
X9671205Y-12709789D01*
X9737871Y-12662169D02*
X9814062Y-12662169D01*
X9766443Y-12595503D02*
X9766443Y-12766931D01*
X9766443Y-12766931D02*
X9775966Y-12785979D01*
X9775966Y-12785979D02*
X9795014Y-12795503D01*
X9795014Y-12795503D02*
X9814062Y-12795503D01*
X9956919Y-12785979D02*
X9937871Y-12795503D01*
X9937871Y-12795503D02*
X9899776Y-12795503D01*
X9899776Y-12795503D02*
X9880728Y-12785979D01*
X9880728Y-12785979D02*
X9871205Y-12766931D01*
X9871205Y-12766931D02*
X9871205Y-12690741D01*
X9871205Y-12690741D02*
X9880728Y-12671693D01*
X9880728Y-12671693D02*
X9899776Y-12662169D01*
X9899776Y-12662169D02*
X9937871Y-12662169D01*
X9937871Y-12662169D02*
X9956919Y-12671693D01*
X9956919Y-12671693D02*
X9966443Y-12690741D01*
X9966443Y-12690741D02*
X9966443Y-12709789D01*
X9966443Y-12709789D02*
X9871205Y-12728836D01*
X10137871Y-12795503D02*
X10137871Y-12595503D01*
X10137871Y-12785979D02*
X10118824Y-12795503D01*
X10118824Y-12795503D02*
X10080728Y-12795503D01*
X10080728Y-12795503D02*
X10061681Y-12785979D01*
X10061681Y-12785979D02*
X10052157Y-12776455D01*
X10052157Y-12776455D02*
X10042633Y-12757408D01*
X10042633Y-12757408D02*
X10042633Y-12700265D01*
X10042633Y-12700265D02*
X10052157Y-12681217D01*
X10052157Y-12681217D02*
X10061681Y-12671693D01*
X10061681Y-12671693D02*
X10080728Y-12662169D01*
X10080728Y-12662169D02*
X10118824Y-12662169D01*
X10118824Y-12662169D02*
X10137871Y-12671693D01*
X10214062Y-12871693D02*
X10223586Y-12862169D01*
X10223586Y-12862169D02*
X10242633Y-12833598D01*
X10242633Y-12833598D02*
X10252157Y-12814550D01*
X10252157Y-12814550D02*
X10261681Y-12785979D01*
X10261681Y-12785979D02*
X10271205Y-12738360D01*
X10271205Y-12738360D02*
X10271205Y-12700265D01*
X10271205Y-12700265D02*
X10261681Y-12652646D01*
X10261681Y-12652646D02*
X10252157Y-12624074D01*
X10252157Y-12624074D02*
X10242633Y-12605027D01*
X10242633Y-12605027D02*
X10223586Y-12576455D01*
X10223586Y-12576455D02*
X10214062Y-12566931D01*
X3167570Y-13099019D02*
X3267570Y-12999019D01*
X3167570Y-12899019D01*
X3067570Y-12999019D01*
X3167570Y-13099019D01*
X3509299Y-12890503D02*
X3633109Y-12890503D01*
X3633109Y-12890503D02*
X3566442Y-12966693D01*
X3566442Y-12966693D02*
X3595013Y-12966693D01*
X3595013Y-12966693D02*
X3614061Y-12976217D01*
X3614061Y-12976217D02*
X3623585Y-12985741D01*
X3623585Y-12985741D02*
X3633109Y-13004789D01*
X3633109Y-13004789D02*
X3633109Y-13052408D01*
X3633109Y-13052408D02*
X3623585Y-13071455D01*
X3623585Y-13071455D02*
X3614061Y-13080979D01*
X3614061Y-13080979D02*
X3595013Y-13090503D01*
X3595013Y-13090503D02*
X3537871Y-13090503D01*
X3537871Y-13090503D02*
X3518823Y-13080979D01*
X3518823Y-13080979D02*
X3509299Y-13071455D01*
X3718823Y-13071455D02*
X3728347Y-13080979D01*
X3728347Y-13080979D02*
X3718823Y-13090503D01*
X3718823Y-13090503D02*
X3709299Y-13080979D01*
X3709299Y-13080979D02*
X3718823Y-13071455D01*
X3718823Y-13071455D02*
X3718823Y-13090503D01*
X3852156Y-12890503D02*
X3871204Y-12890503D01*
X3871204Y-12890503D02*
X3890252Y-12900027D01*
X3890252Y-12900027D02*
X3899775Y-12909550D01*
X3899775Y-12909550D02*
X3909299Y-12928598D01*
X3909299Y-12928598D02*
X3918823Y-12966693D01*
X3918823Y-12966693D02*
X3918823Y-13014312D01*
X3918823Y-13014312D02*
X3909299Y-13052408D01*
X3909299Y-13052408D02*
X3899775Y-13071455D01*
X3899775Y-13071455D02*
X3890252Y-13080979D01*
X3890252Y-13080979D02*
X3871204Y-13090503D01*
X3871204Y-13090503D02*
X3852156Y-13090503D01*
X3852156Y-13090503D02*
X3833109Y-13080979D01*
X3833109Y-13080979D02*
X3823585Y-13071455D01*
X3823585Y-13071455D02*
X3814061Y-13052408D01*
X3814061Y-13052408D02*
X3804537Y-13014312D01*
X3804537Y-13014312D02*
X3804537Y-12966693D01*
X3804537Y-12966693D02*
X3814061Y-12928598D01*
X3814061Y-12928598D02*
X3823585Y-12909550D01*
X3823585Y-12909550D02*
X3833109Y-12900027D01*
X3833109Y-12900027D02*
X3852156Y-12890503D01*
X4042632Y-12890503D02*
X4061680Y-12890503D01*
X4061680Y-12890503D02*
X4080728Y-12900027D01*
X4080728Y-12900027D02*
X4090252Y-12909550D01*
X4090252Y-12909550D02*
X4099775Y-12928598D01*
X4099775Y-12928598D02*
X4109299Y-12966693D01*
X4109299Y-12966693D02*
X4109299Y-13014312D01*
X4109299Y-13014312D02*
X4099775Y-13052408D01*
X4099775Y-13052408D02*
X4090252Y-13071455D01*
X4090252Y-13071455D02*
X4080728Y-13080979D01*
X4080728Y-13080979D02*
X4061680Y-13090503D01*
X4061680Y-13090503D02*
X4042632Y-13090503D01*
X4042632Y-13090503D02*
X4023585Y-13080979D01*
X4023585Y-13080979D02*
X4014061Y-13071455D01*
X4014061Y-13071455D02*
X4004537Y-13052408D01*
X4004537Y-13052408D02*
X3995013Y-13014312D01*
X3995013Y-13014312D02*
X3995013Y-12966693D01*
X3995013Y-12966693D02*
X4004537Y-12928598D01*
X4004537Y-12928598D02*
X4014061Y-12909550D01*
X4014061Y-12909550D02*
X4023585Y-12900027D01*
X4023585Y-12900027D02*
X4042632Y-12890503D01*
X4233109Y-12890503D02*
X4252156Y-12890503D01*
X4252156Y-12890503D02*
X4271204Y-12900027D01*
X4271204Y-12900027D02*
X4280728Y-12909550D01*
X4280728Y-12909550D02*
X4290252Y-12928598D01*
X4290252Y-12928598D02*
X4299775Y-12966693D01*
X4299775Y-12966693D02*
X4299775Y-13014312D01*
X4299775Y-13014312D02*
X4290252Y-13052408D01*
X4290252Y-13052408D02*
X4280728Y-13071455D01*
X4280728Y-13071455D02*
X4271204Y-13080979D01*
X4271204Y-13080979D02*
X4252156Y-13090503D01*
X4252156Y-13090503D02*
X4233109Y-13090503D01*
X4233109Y-13090503D02*
X4214061Y-13080979D01*
X4214061Y-13080979D02*
X4204537Y-13071455D01*
X4204537Y-13071455D02*
X4195014Y-13052408D01*
X4195014Y-13052408D02*
X4185490Y-13014312D01*
X4185490Y-13014312D02*
X4185490Y-12966693D01*
X4185490Y-12966693D02*
X4195014Y-12928598D01*
X4195014Y-12928598D02*
X4204537Y-12909550D01*
X4204537Y-12909550D02*
X4214061Y-12900027D01*
X4214061Y-12900027D02*
X4233109Y-12890503D01*
X4385490Y-13090503D02*
X4385490Y-12957169D01*
X4385490Y-12976217D02*
X4395014Y-12966693D01*
X4395014Y-12966693D02*
X4414061Y-12957169D01*
X4414061Y-12957169D02*
X4442633Y-12957169D01*
X4442633Y-12957169D02*
X4461680Y-12966693D01*
X4461680Y-12966693D02*
X4471204Y-12985741D01*
X4471204Y-12985741D02*
X4471204Y-13090503D01*
X4471204Y-12985741D02*
X4480728Y-12966693D01*
X4480728Y-12966693D02*
X4499775Y-12957169D01*
X4499775Y-12957169D02*
X4528347Y-12957169D01*
X4528347Y-12957169D02*
X4547395Y-12966693D01*
X4547395Y-12966693D02*
X4556918Y-12985741D01*
X4556918Y-12985741D02*
X4556918Y-13090503D01*
X4652156Y-13090503D02*
X4652156Y-12957169D01*
X4652156Y-12976217D02*
X4661680Y-12966693D01*
X4661680Y-12966693D02*
X4680728Y-12957169D01*
X4680728Y-12957169D02*
X4709299Y-12957169D01*
X4709299Y-12957169D02*
X4728347Y-12966693D01*
X4728347Y-12966693D02*
X4737871Y-12985741D01*
X4737871Y-12985741D02*
X4737871Y-13090503D01*
X4737871Y-12985741D02*
X4747395Y-12966693D01*
X4747395Y-12966693D02*
X4766442Y-12957169D01*
X4766442Y-12957169D02*
X4795014Y-12957169D01*
X4795014Y-12957169D02*
X4814061Y-12966693D01*
X4814061Y-12966693D02*
X4823585Y-12985741D01*
X4823585Y-12985741D02*
X4823585Y-13090503D01*
X5214061Y-12880979D02*
X5042633Y-13138122D01*
X5471204Y-12890503D02*
X5490252Y-12890503D01*
X5490252Y-12890503D02*
X5509299Y-12900027D01*
X5509299Y-12900027D02*
X5518823Y-12909550D01*
X5518823Y-12909550D02*
X5528347Y-12928598D01*
X5528347Y-12928598D02*
X5537871Y-12966693D01*
X5537871Y-12966693D02*
X5537871Y-13014312D01*
X5537871Y-13014312D02*
X5528347Y-13052408D01*
X5528347Y-13052408D02*
X5518823Y-13071455D01*
X5518823Y-13071455D02*
X5509299Y-13080979D01*
X5509299Y-13080979D02*
X5490252Y-13090503D01*
X5490252Y-13090503D02*
X5471204Y-13090503D01*
X5471204Y-13090503D02*
X5452157Y-13080979D01*
X5452157Y-13080979D02*
X5442633Y-13071455D01*
X5442633Y-13071455D02*
X5433109Y-13052408D01*
X5433109Y-13052408D02*
X5423585Y-13014312D01*
X5423585Y-13014312D02*
X5423585Y-12966693D01*
X5423585Y-12966693D02*
X5433109Y-12928598D01*
X5433109Y-12928598D02*
X5442633Y-12909550D01*
X5442633Y-12909550D02*
X5452157Y-12900027D01*
X5452157Y-12900027D02*
X5471204Y-12890503D01*
X5623585Y-13071455D02*
X5633109Y-13080979D01*
X5633109Y-13080979D02*
X5623585Y-13090503D01*
X5623585Y-13090503D02*
X5614061Y-13080979D01*
X5614061Y-13080979D02*
X5623585Y-13071455D01*
X5623585Y-13071455D02*
X5623585Y-13090503D01*
X5823585Y-13090503D02*
X5709299Y-13090503D01*
X5766442Y-13090503D02*
X5766442Y-12890503D01*
X5766442Y-12890503D02*
X5747395Y-12919074D01*
X5747395Y-12919074D02*
X5728347Y-12938122D01*
X5728347Y-12938122D02*
X5709299Y-12947646D01*
X6014061Y-13090503D02*
X5899776Y-13090503D01*
X5956918Y-13090503D02*
X5956918Y-12890503D01*
X5956918Y-12890503D02*
X5937871Y-12919074D01*
X5937871Y-12919074D02*
X5918823Y-12938122D01*
X5918823Y-12938122D02*
X5899776Y-12947646D01*
X6128347Y-12976217D02*
X6109299Y-12966693D01*
X6109299Y-12966693D02*
X6099776Y-12957169D01*
X6099776Y-12957169D02*
X6090252Y-12938122D01*
X6090252Y-12938122D02*
X6090252Y-12928598D01*
X6090252Y-12928598D02*
X6099776Y-12909550D01*
X6099776Y-12909550D02*
X6109299Y-12900027D01*
X6109299Y-12900027D02*
X6128347Y-12890503D01*
X6128347Y-12890503D02*
X6166442Y-12890503D01*
X6166442Y-12890503D02*
X6185490Y-12900027D01*
X6185490Y-12900027D02*
X6195014Y-12909550D01*
X6195014Y-12909550D02*
X6204537Y-12928598D01*
X6204537Y-12928598D02*
X6204537Y-12938122D01*
X6204537Y-12938122D02*
X6195014Y-12957169D01*
X6195014Y-12957169D02*
X6185490Y-12966693D01*
X6185490Y-12966693D02*
X6166442Y-12976217D01*
X6166442Y-12976217D02*
X6128347Y-12976217D01*
X6128347Y-12976217D02*
X6109299Y-12985741D01*
X6109299Y-12985741D02*
X6099776Y-12995265D01*
X6099776Y-12995265D02*
X6090252Y-13014312D01*
X6090252Y-13014312D02*
X6090252Y-13052408D01*
X6090252Y-13052408D02*
X6099776Y-13071455D01*
X6099776Y-13071455D02*
X6109299Y-13080979D01*
X6109299Y-13080979D02*
X6128347Y-13090503D01*
X6128347Y-13090503D02*
X6166442Y-13090503D01*
X6166442Y-13090503D02*
X6185490Y-13080979D01*
X6185490Y-13080979D02*
X6195014Y-13071455D01*
X6195014Y-13071455D02*
X6204537Y-13052408D01*
X6204537Y-13052408D02*
X6204537Y-13014312D01*
X6204537Y-13014312D02*
X6195014Y-12995265D01*
X6195014Y-12995265D02*
X6185490Y-12985741D01*
X6185490Y-12985741D02*
X6166442Y-12976217D01*
X6395014Y-13090503D02*
X6280728Y-13090503D01*
X6337871Y-13090503D02*
X6337871Y-12890503D01*
X6337871Y-12890503D02*
X6318823Y-12919074D01*
X6318823Y-12919074D02*
X6299776Y-12938122D01*
X6299776Y-12938122D02*
X6280728Y-12947646D01*
X6471204Y-12890503D02*
X6471204Y-12928598D01*
X6547395Y-12890503D02*
X6547395Y-12928598D01*
X6842633Y-13166693D02*
X6833109Y-13157169D01*
X6833109Y-13157169D02*
X6814061Y-13128598D01*
X6814061Y-13128598D02*
X6804538Y-13109550D01*
X6804538Y-13109550D02*
X6795014Y-13080979D01*
X6795014Y-13080979D02*
X6785490Y-13033360D01*
X6785490Y-13033360D02*
X6785490Y-12995265D01*
X6785490Y-12995265D02*
X6795014Y-12947646D01*
X6795014Y-12947646D02*
X6804538Y-12919074D01*
X6804538Y-12919074D02*
X6814061Y-12900027D01*
X6814061Y-12900027D02*
X6833109Y-12871455D01*
X6833109Y-12871455D02*
X6842633Y-12861931D01*
X6899776Y-12890503D02*
X7033109Y-12890503D01*
X7033109Y-12890503D02*
X6947395Y-13090503D01*
X7195014Y-12890503D02*
X7156918Y-12890503D01*
X7156918Y-12890503D02*
X7137871Y-12900027D01*
X7137871Y-12900027D02*
X7128347Y-12909550D01*
X7128347Y-12909550D02*
X7109299Y-12938122D01*
X7109299Y-12938122D02*
X7099776Y-12976217D01*
X7099776Y-12976217D02*
X7099776Y-13052408D01*
X7099776Y-13052408D02*
X7109299Y-13071455D01*
X7109299Y-13071455D02*
X7118823Y-13080979D01*
X7118823Y-13080979D02*
X7137871Y-13090503D01*
X7137871Y-13090503D02*
X7175966Y-13090503D01*
X7175966Y-13090503D02*
X7195014Y-13080979D01*
X7195014Y-13080979D02*
X7204538Y-13071455D01*
X7204538Y-13071455D02*
X7214061Y-13052408D01*
X7214061Y-13052408D02*
X7214061Y-13004789D01*
X7214061Y-13004789D02*
X7204538Y-12985741D01*
X7204538Y-12985741D02*
X7195014Y-12976217D01*
X7195014Y-12976217D02*
X7175966Y-12966693D01*
X7175966Y-12966693D02*
X7137871Y-12966693D01*
X7137871Y-12966693D02*
X7118823Y-12976217D01*
X7118823Y-12976217D02*
X7109299Y-12985741D01*
X7109299Y-12985741D02*
X7099776Y-13004789D01*
X7452157Y-13090503D02*
X7452157Y-12890503D01*
X7537871Y-13090503D02*
X7537871Y-12985741D01*
X7537871Y-12985741D02*
X7528347Y-12966693D01*
X7528347Y-12966693D02*
X7509300Y-12957169D01*
X7509300Y-12957169D02*
X7480728Y-12957169D01*
X7480728Y-12957169D02*
X7461680Y-12966693D01*
X7461680Y-12966693D02*
X7452157Y-12976217D01*
X7661680Y-13090503D02*
X7642633Y-13080979D01*
X7642633Y-13080979D02*
X7633109Y-13071455D01*
X7633109Y-13071455D02*
X7623585Y-13052408D01*
X7623585Y-13052408D02*
X7623585Y-12995265D01*
X7623585Y-12995265D02*
X7633109Y-12976217D01*
X7633109Y-12976217D02*
X7642633Y-12966693D01*
X7642633Y-12966693D02*
X7661680Y-12957169D01*
X7661680Y-12957169D02*
X7690252Y-12957169D01*
X7690252Y-12957169D02*
X7709300Y-12966693D01*
X7709300Y-12966693D02*
X7718823Y-12976217D01*
X7718823Y-12976217D02*
X7728347Y-12995265D01*
X7728347Y-12995265D02*
X7728347Y-13052408D01*
X7728347Y-13052408D02*
X7718823Y-13071455D01*
X7718823Y-13071455D02*
X7709300Y-13080979D01*
X7709300Y-13080979D02*
X7690252Y-13090503D01*
X7690252Y-13090503D02*
X7661680Y-13090503D01*
X7842633Y-13090503D02*
X7823585Y-13080979D01*
X7823585Y-13080979D02*
X7814061Y-13061931D01*
X7814061Y-13061931D02*
X7814061Y-12890503D01*
X7995014Y-13080979D02*
X7975966Y-13090503D01*
X7975966Y-13090503D02*
X7937871Y-13090503D01*
X7937871Y-13090503D02*
X7918823Y-13080979D01*
X7918823Y-13080979D02*
X7909300Y-13061931D01*
X7909300Y-13061931D02*
X7909300Y-12985741D01*
X7909300Y-12985741D02*
X7918823Y-12966693D01*
X7918823Y-12966693D02*
X7937871Y-12957169D01*
X7937871Y-12957169D02*
X7975966Y-12957169D01*
X7975966Y-12957169D02*
X7995014Y-12966693D01*
X7995014Y-12966693D02*
X8004538Y-12985741D01*
X8004538Y-12985741D02*
X8004538Y-13004789D01*
X8004538Y-13004789D02*
X7909300Y-13023836D01*
X8080728Y-13080979D02*
X8099776Y-13090503D01*
X8099776Y-13090503D02*
X8137871Y-13090503D01*
X8137871Y-13090503D02*
X8156919Y-13080979D01*
X8156919Y-13080979D02*
X8166442Y-13061931D01*
X8166442Y-13061931D02*
X8166442Y-13052408D01*
X8166442Y-13052408D02*
X8156919Y-13033360D01*
X8156919Y-13033360D02*
X8137871Y-13023836D01*
X8137871Y-13023836D02*
X8109300Y-13023836D01*
X8109300Y-13023836D02*
X8090252Y-13014312D01*
X8090252Y-13014312D02*
X8080728Y-12995265D01*
X8080728Y-12995265D02*
X8080728Y-12985741D01*
X8080728Y-12985741D02*
X8090252Y-12966693D01*
X8090252Y-12966693D02*
X8109300Y-12957169D01*
X8109300Y-12957169D02*
X8137871Y-12957169D01*
X8137871Y-12957169D02*
X8156919Y-12966693D01*
X8233109Y-13166693D02*
X8242633Y-13157169D01*
X8242633Y-13157169D02*
X8261681Y-13128598D01*
X8261681Y-13128598D02*
X8271204Y-13109550D01*
X8271204Y-13109550D02*
X8280728Y-13080979D01*
X8280728Y-13080979D02*
X8290252Y-13033360D01*
X8290252Y-13033360D02*
X8290252Y-12995265D01*
X8290252Y-12995265D02*
X8280728Y-12947646D01*
X8280728Y-12947646D02*
X8271204Y-12919074D01*
X8271204Y-12919074D02*
X8261681Y-12900027D01*
X8261681Y-12900027D02*
X8242633Y-12871455D01*
X8242633Y-12871455D02*
X8233109Y-12861931D01*
X8595014Y-13166693D02*
X8585490Y-13157169D01*
X8585490Y-13157169D02*
X8566443Y-13128598D01*
X8566443Y-13128598D02*
X8556919Y-13109550D01*
X8556919Y-13109550D02*
X8547395Y-13080979D01*
X8547395Y-13080979D02*
X8537871Y-13033360D01*
X8537871Y-13033360D02*
X8537871Y-12995265D01*
X8537871Y-12995265D02*
X8547395Y-12947646D01*
X8547395Y-12947646D02*
X8556919Y-12919074D01*
X8556919Y-12919074D02*
X8566443Y-12900027D01*
X8566443Y-12900027D02*
X8585490Y-12871455D01*
X8585490Y-12871455D02*
X8595014Y-12861931D01*
X8671204Y-12957169D02*
X8671204Y-13090503D01*
X8671204Y-12976217D02*
X8680728Y-12966693D01*
X8680728Y-12966693D02*
X8699776Y-12957169D01*
X8699776Y-12957169D02*
X8728347Y-12957169D01*
X8728347Y-12957169D02*
X8747395Y-12966693D01*
X8747395Y-12966693D02*
X8756919Y-12985741D01*
X8756919Y-12985741D02*
X8756919Y-13090503D01*
X8880728Y-13090503D02*
X8861681Y-13080979D01*
X8861681Y-13080979D02*
X8852157Y-13071455D01*
X8852157Y-13071455D02*
X8842633Y-13052408D01*
X8842633Y-13052408D02*
X8842633Y-12995265D01*
X8842633Y-12995265D02*
X8852157Y-12976217D01*
X8852157Y-12976217D02*
X8861681Y-12966693D01*
X8861681Y-12966693D02*
X8880728Y-12957169D01*
X8880728Y-12957169D02*
X8909300Y-12957169D01*
X8909300Y-12957169D02*
X8928347Y-12966693D01*
X8928347Y-12966693D02*
X8937871Y-12976217D01*
X8937871Y-12976217D02*
X8947395Y-12995265D01*
X8947395Y-12995265D02*
X8947395Y-13052408D01*
X8947395Y-13052408D02*
X8937871Y-13071455D01*
X8937871Y-13071455D02*
X8928347Y-13080979D01*
X8928347Y-13080979D02*
X8909300Y-13090503D01*
X8909300Y-13090503D02*
X8880728Y-13090503D01*
X9004538Y-12957169D02*
X9080728Y-12957169D01*
X9033109Y-12890503D02*
X9033109Y-13061931D01*
X9033109Y-13061931D02*
X9042633Y-13080979D01*
X9042633Y-13080979D02*
X9061681Y-13090503D01*
X9061681Y-13090503D02*
X9080728Y-13090503D01*
X9299776Y-12957169D02*
X9299776Y-13157169D01*
X9299776Y-12966693D02*
X9318824Y-12957169D01*
X9318824Y-12957169D02*
X9356919Y-12957169D01*
X9356919Y-12957169D02*
X9375966Y-12966693D01*
X9375966Y-12966693D02*
X9385490Y-12976217D01*
X9385490Y-12976217D02*
X9395014Y-12995265D01*
X9395014Y-12995265D02*
X9395014Y-13052408D01*
X9395014Y-13052408D02*
X9385490Y-13071455D01*
X9385490Y-13071455D02*
X9375966Y-13080979D01*
X9375966Y-13080979D02*
X9356919Y-13090503D01*
X9356919Y-13090503D02*
X9318824Y-13090503D01*
X9318824Y-13090503D02*
X9299776Y-13080979D01*
X9509300Y-13090503D02*
X9490252Y-13080979D01*
X9490252Y-13080979D02*
X9480728Y-13061931D01*
X9480728Y-13061931D02*
X9480728Y-12890503D01*
X9671205Y-13090503D02*
X9671205Y-12985741D01*
X9671205Y-12985741D02*
X9661681Y-12966693D01*
X9661681Y-12966693D02*
X9642633Y-12957169D01*
X9642633Y-12957169D02*
X9604538Y-12957169D01*
X9604538Y-12957169D02*
X9585490Y-12966693D01*
X9671205Y-13080979D02*
X9652157Y-13090503D01*
X9652157Y-13090503D02*
X9604538Y-13090503D01*
X9604538Y-13090503D02*
X9585490Y-13080979D01*
X9585490Y-13080979D02*
X9575966Y-13061931D01*
X9575966Y-13061931D02*
X9575966Y-13042884D01*
X9575966Y-13042884D02*
X9585490Y-13023836D01*
X9585490Y-13023836D02*
X9604538Y-13014312D01*
X9604538Y-13014312D02*
X9652157Y-13014312D01*
X9652157Y-13014312D02*
X9671205Y-13004789D01*
X9737871Y-12957169D02*
X9814062Y-12957169D01*
X9766443Y-12890503D02*
X9766443Y-13061931D01*
X9766443Y-13061931D02*
X9775966Y-13080979D01*
X9775966Y-13080979D02*
X9795014Y-13090503D01*
X9795014Y-13090503D02*
X9814062Y-13090503D01*
X9956919Y-13080979D02*
X9937871Y-13090503D01*
X9937871Y-13090503D02*
X9899776Y-13090503D01*
X9899776Y-13090503D02*
X9880728Y-13080979D01*
X9880728Y-13080979D02*
X9871205Y-13061931D01*
X9871205Y-13061931D02*
X9871205Y-12985741D01*
X9871205Y-12985741D02*
X9880728Y-12966693D01*
X9880728Y-12966693D02*
X9899776Y-12957169D01*
X9899776Y-12957169D02*
X9937871Y-12957169D01*
X9937871Y-12957169D02*
X9956919Y-12966693D01*
X9956919Y-12966693D02*
X9966443Y-12985741D01*
X9966443Y-12985741D02*
X9966443Y-13004789D01*
X9966443Y-13004789D02*
X9871205Y-13023836D01*
X10137871Y-13090503D02*
X10137871Y-12890503D01*
X10137871Y-13080979D02*
X10118824Y-13090503D01*
X10118824Y-13090503D02*
X10080728Y-13090503D01*
X10080728Y-13090503D02*
X10061681Y-13080979D01*
X10061681Y-13080979D02*
X10052157Y-13071455D01*
X10052157Y-13071455D02*
X10042633Y-13052408D01*
X10042633Y-13052408D02*
X10042633Y-12995265D01*
X10042633Y-12995265D02*
X10052157Y-12976217D01*
X10052157Y-12976217D02*
X10061681Y-12966693D01*
X10061681Y-12966693D02*
X10080728Y-12957169D01*
X10080728Y-12957169D02*
X10118824Y-12957169D01*
X10118824Y-12957169D02*
X10137871Y-12966693D01*
X10214062Y-13166693D02*
X10223586Y-13157169D01*
X10223586Y-13157169D02*
X10242633Y-13128598D01*
X10242633Y-13128598D02*
X10252157Y-13109550D01*
X10252157Y-13109550D02*
X10261681Y-13080979D01*
X10261681Y-13080979D02*
X10271205Y-13033360D01*
X10271205Y-13033360D02*
X10271205Y-12995265D01*
X10271205Y-12995265D02*
X10261681Y-12947646D01*
X10261681Y-12947646D02*
X10252157Y-12919074D01*
X10252157Y-12919074D02*
X10242633Y-12900027D01*
X10242633Y-12900027D02*
X10223586Y-12871455D01*
X10223586Y-12871455D02*
X10214062Y-12861931D01*
X3067570Y-13219019D02*
X3267570Y-13419019D01*
X3267570Y-13219019D02*
X3067570Y-13419019D01*
X3267570Y-13319019D02*
G75*
G03*
X3267570Y-13319019I-100000J0D01*
G01*
X3509299Y-13210503D02*
X3633109Y-13210503D01*
X3633109Y-13210503D02*
X3566442Y-13286693D01*
X3566442Y-13286693D02*
X3595013Y-13286693D01*
X3595013Y-13286693D02*
X3614061Y-13296217D01*
X3614061Y-13296217D02*
X3623585Y-13305741D01*
X3623585Y-13305741D02*
X3633109Y-13324789D01*
X3633109Y-13324789D02*
X3633109Y-13372408D01*
X3633109Y-13372408D02*
X3623585Y-13391455D01*
X3623585Y-13391455D02*
X3614061Y-13400979D01*
X3614061Y-13400979D02*
X3595013Y-13410503D01*
X3595013Y-13410503D02*
X3537871Y-13410503D01*
X3537871Y-13410503D02*
X3518823Y-13400979D01*
X3518823Y-13400979D02*
X3509299Y-13391455D01*
X3718823Y-13391455D02*
X3728347Y-13400979D01*
X3728347Y-13400979D02*
X3718823Y-13410503D01*
X3718823Y-13410503D02*
X3709299Y-13400979D01*
X3709299Y-13400979D02*
X3718823Y-13391455D01*
X3718823Y-13391455D02*
X3718823Y-13410503D01*
X3852156Y-13210503D02*
X3871204Y-13210503D01*
X3871204Y-13210503D02*
X3890252Y-13220027D01*
X3890252Y-13220027D02*
X3899775Y-13229550D01*
X3899775Y-13229550D02*
X3909299Y-13248598D01*
X3909299Y-13248598D02*
X3918823Y-13286693D01*
X3918823Y-13286693D02*
X3918823Y-13334312D01*
X3918823Y-13334312D02*
X3909299Y-13372408D01*
X3909299Y-13372408D02*
X3899775Y-13391455D01*
X3899775Y-13391455D02*
X3890252Y-13400979D01*
X3890252Y-13400979D02*
X3871204Y-13410503D01*
X3871204Y-13410503D02*
X3852156Y-13410503D01*
X3852156Y-13410503D02*
X3833109Y-13400979D01*
X3833109Y-13400979D02*
X3823585Y-13391455D01*
X3823585Y-13391455D02*
X3814061Y-13372408D01*
X3814061Y-13372408D02*
X3804537Y-13334312D01*
X3804537Y-13334312D02*
X3804537Y-13286693D01*
X3804537Y-13286693D02*
X3814061Y-13248598D01*
X3814061Y-13248598D02*
X3823585Y-13229550D01*
X3823585Y-13229550D02*
X3833109Y-13220027D01*
X3833109Y-13220027D02*
X3852156Y-13210503D01*
X4090252Y-13277169D02*
X4090252Y-13410503D01*
X4042632Y-13200979D02*
X3995013Y-13343836D01*
X3995013Y-13343836D02*
X4118823Y-13343836D01*
X4223585Y-13296217D02*
X4204537Y-13286693D01*
X4204537Y-13286693D02*
X4195014Y-13277169D01*
X4195014Y-13277169D02*
X4185490Y-13258122D01*
X4185490Y-13258122D02*
X4185490Y-13248598D01*
X4185490Y-13248598D02*
X4195014Y-13229550D01*
X4195014Y-13229550D02*
X4204537Y-13220027D01*
X4204537Y-13220027D02*
X4223585Y-13210503D01*
X4223585Y-13210503D02*
X4261680Y-13210503D01*
X4261680Y-13210503D02*
X4280728Y-13220027D01*
X4280728Y-13220027D02*
X4290252Y-13229550D01*
X4290252Y-13229550D02*
X4299775Y-13248598D01*
X4299775Y-13248598D02*
X4299775Y-13258122D01*
X4299775Y-13258122D02*
X4290252Y-13277169D01*
X4290252Y-13277169D02*
X4280728Y-13286693D01*
X4280728Y-13286693D02*
X4261680Y-13296217D01*
X4261680Y-13296217D02*
X4223585Y-13296217D01*
X4223585Y-13296217D02*
X4204537Y-13305741D01*
X4204537Y-13305741D02*
X4195014Y-13315265D01*
X4195014Y-13315265D02*
X4185490Y-13334312D01*
X4185490Y-13334312D02*
X4185490Y-13372408D01*
X4185490Y-13372408D02*
X4195014Y-13391455D01*
X4195014Y-13391455D02*
X4204537Y-13400979D01*
X4204537Y-13400979D02*
X4223585Y-13410503D01*
X4223585Y-13410503D02*
X4261680Y-13410503D01*
X4261680Y-13410503D02*
X4280728Y-13400979D01*
X4280728Y-13400979D02*
X4290252Y-13391455D01*
X4290252Y-13391455D02*
X4299775Y-13372408D01*
X4299775Y-13372408D02*
X4299775Y-13334312D01*
X4299775Y-13334312D02*
X4290252Y-13315265D01*
X4290252Y-13315265D02*
X4280728Y-13305741D01*
X4280728Y-13305741D02*
X4261680Y-13296217D01*
X4385490Y-13410503D02*
X4385490Y-13277169D01*
X4385490Y-13296217D02*
X4395014Y-13286693D01*
X4395014Y-13286693D02*
X4414061Y-13277169D01*
X4414061Y-13277169D02*
X4442633Y-13277169D01*
X4442633Y-13277169D02*
X4461680Y-13286693D01*
X4461680Y-13286693D02*
X4471204Y-13305741D01*
X4471204Y-13305741D02*
X4471204Y-13410503D01*
X4471204Y-13305741D02*
X4480728Y-13286693D01*
X4480728Y-13286693D02*
X4499775Y-13277169D01*
X4499775Y-13277169D02*
X4528347Y-13277169D01*
X4528347Y-13277169D02*
X4547395Y-13286693D01*
X4547395Y-13286693D02*
X4556918Y-13305741D01*
X4556918Y-13305741D02*
X4556918Y-13410503D01*
X4652156Y-13410503D02*
X4652156Y-13277169D01*
X4652156Y-13296217D02*
X4661680Y-13286693D01*
X4661680Y-13286693D02*
X4680728Y-13277169D01*
X4680728Y-13277169D02*
X4709299Y-13277169D01*
X4709299Y-13277169D02*
X4728347Y-13286693D01*
X4728347Y-13286693D02*
X4737871Y-13305741D01*
X4737871Y-13305741D02*
X4737871Y-13410503D01*
X4737871Y-13305741D02*
X4747395Y-13286693D01*
X4747395Y-13286693D02*
X4766442Y-13277169D01*
X4766442Y-13277169D02*
X4795014Y-13277169D01*
X4795014Y-13277169D02*
X4814061Y-13286693D01*
X4814061Y-13286693D02*
X4823585Y-13305741D01*
X4823585Y-13305741D02*
X4823585Y-13410503D01*
X5214061Y-13200979D02*
X5042633Y-13458122D01*
X5471204Y-13210503D02*
X5490252Y-13210503D01*
X5490252Y-13210503D02*
X5509299Y-13220027D01*
X5509299Y-13220027D02*
X5518823Y-13229550D01*
X5518823Y-13229550D02*
X5528347Y-13248598D01*
X5528347Y-13248598D02*
X5537871Y-13286693D01*
X5537871Y-13286693D02*
X5537871Y-13334312D01*
X5537871Y-13334312D02*
X5528347Y-13372408D01*
X5528347Y-13372408D02*
X5518823Y-13391455D01*
X5518823Y-13391455D02*
X5509299Y-13400979D01*
X5509299Y-13400979D02*
X5490252Y-13410503D01*
X5490252Y-13410503D02*
X5471204Y-13410503D01*
X5471204Y-13410503D02*
X5452157Y-13400979D01*
X5452157Y-13400979D02*
X5442633Y-13391455D01*
X5442633Y-13391455D02*
X5433109Y-13372408D01*
X5433109Y-13372408D02*
X5423585Y-13334312D01*
X5423585Y-13334312D02*
X5423585Y-13286693D01*
X5423585Y-13286693D02*
X5433109Y-13248598D01*
X5433109Y-13248598D02*
X5442633Y-13229550D01*
X5442633Y-13229550D02*
X5452157Y-13220027D01*
X5452157Y-13220027D02*
X5471204Y-13210503D01*
X5623585Y-13391455D02*
X5633109Y-13400979D01*
X5633109Y-13400979D02*
X5623585Y-13410503D01*
X5623585Y-13410503D02*
X5614061Y-13400979D01*
X5614061Y-13400979D02*
X5623585Y-13391455D01*
X5623585Y-13391455D02*
X5623585Y-13410503D01*
X5823585Y-13410503D02*
X5709299Y-13410503D01*
X5766442Y-13410503D02*
X5766442Y-13210503D01*
X5766442Y-13210503D02*
X5747395Y-13239074D01*
X5747395Y-13239074D02*
X5728347Y-13258122D01*
X5728347Y-13258122D02*
X5709299Y-13267646D01*
X5899776Y-13229550D02*
X5909299Y-13220027D01*
X5909299Y-13220027D02*
X5928347Y-13210503D01*
X5928347Y-13210503D02*
X5975966Y-13210503D01*
X5975966Y-13210503D02*
X5995014Y-13220027D01*
X5995014Y-13220027D02*
X6004537Y-13229550D01*
X6004537Y-13229550D02*
X6014061Y-13248598D01*
X6014061Y-13248598D02*
X6014061Y-13267646D01*
X6014061Y-13267646D02*
X6004537Y-13296217D01*
X6004537Y-13296217D02*
X5890252Y-13410503D01*
X5890252Y-13410503D02*
X6014061Y-13410503D01*
X6137871Y-13210503D02*
X6156918Y-13210503D01*
X6156918Y-13210503D02*
X6175966Y-13220027D01*
X6175966Y-13220027D02*
X6185490Y-13229550D01*
X6185490Y-13229550D02*
X6195014Y-13248598D01*
X6195014Y-13248598D02*
X6204537Y-13286693D01*
X6204537Y-13286693D02*
X6204537Y-13334312D01*
X6204537Y-13334312D02*
X6195014Y-13372408D01*
X6195014Y-13372408D02*
X6185490Y-13391455D01*
X6185490Y-13391455D02*
X6175966Y-13400979D01*
X6175966Y-13400979D02*
X6156918Y-13410503D01*
X6156918Y-13410503D02*
X6137871Y-13410503D01*
X6137871Y-13410503D02*
X6118823Y-13400979D01*
X6118823Y-13400979D02*
X6109299Y-13391455D01*
X6109299Y-13391455D02*
X6099776Y-13372408D01*
X6099776Y-13372408D02*
X6090252Y-13334312D01*
X6090252Y-13334312D02*
X6090252Y-13286693D01*
X6090252Y-13286693D02*
X6099776Y-13248598D01*
X6099776Y-13248598D02*
X6109299Y-13229550D01*
X6109299Y-13229550D02*
X6118823Y-13220027D01*
X6118823Y-13220027D02*
X6137871Y-13210503D01*
X6328347Y-13210503D02*
X6347395Y-13210503D01*
X6347395Y-13210503D02*
X6366442Y-13220027D01*
X6366442Y-13220027D02*
X6375966Y-13229550D01*
X6375966Y-13229550D02*
X6385490Y-13248598D01*
X6385490Y-13248598D02*
X6395014Y-13286693D01*
X6395014Y-13286693D02*
X6395014Y-13334312D01*
X6395014Y-13334312D02*
X6385490Y-13372408D01*
X6385490Y-13372408D02*
X6375966Y-13391455D01*
X6375966Y-13391455D02*
X6366442Y-13400979D01*
X6366442Y-13400979D02*
X6347395Y-13410503D01*
X6347395Y-13410503D02*
X6328347Y-13410503D01*
X6328347Y-13410503D02*
X6309299Y-13400979D01*
X6309299Y-13400979D02*
X6299776Y-13391455D01*
X6299776Y-13391455D02*
X6290252Y-13372408D01*
X6290252Y-13372408D02*
X6280728Y-13334312D01*
X6280728Y-13334312D02*
X6280728Y-13286693D01*
X6280728Y-13286693D02*
X6290252Y-13248598D01*
X6290252Y-13248598D02*
X6299776Y-13229550D01*
X6299776Y-13229550D02*
X6309299Y-13220027D01*
X6309299Y-13220027D02*
X6328347Y-13210503D01*
X6471204Y-13210503D02*
X6471204Y-13248598D01*
X6547395Y-13210503D02*
X6547395Y-13248598D01*
X6842633Y-13486693D02*
X6833109Y-13477169D01*
X6833109Y-13477169D02*
X6814061Y-13448598D01*
X6814061Y-13448598D02*
X6804538Y-13429550D01*
X6804538Y-13429550D02*
X6795014Y-13400979D01*
X6795014Y-13400979D02*
X6785490Y-13353360D01*
X6785490Y-13353360D02*
X6785490Y-13315265D01*
X6785490Y-13315265D02*
X6795014Y-13267646D01*
X6795014Y-13267646D02*
X6804538Y-13239074D01*
X6804538Y-13239074D02*
X6814061Y-13220027D01*
X6814061Y-13220027D02*
X6833109Y-13191455D01*
X6833109Y-13191455D02*
X6842633Y-13181931D01*
X7004538Y-13277169D02*
X7004538Y-13410503D01*
X6956918Y-13200979D02*
X6909299Y-13343836D01*
X6909299Y-13343836D02*
X7033109Y-13343836D01*
X7261680Y-13410503D02*
X7261680Y-13210503D01*
X7347395Y-13410503D02*
X7347395Y-13305741D01*
X7347395Y-13305741D02*
X7337871Y-13286693D01*
X7337871Y-13286693D02*
X7318823Y-13277169D01*
X7318823Y-13277169D02*
X7290252Y-13277169D01*
X7290252Y-13277169D02*
X7271204Y-13286693D01*
X7271204Y-13286693D02*
X7261680Y-13296217D01*
X7471204Y-13410503D02*
X7452157Y-13400979D01*
X7452157Y-13400979D02*
X7442633Y-13391455D01*
X7442633Y-13391455D02*
X7433109Y-13372408D01*
X7433109Y-13372408D02*
X7433109Y-13315265D01*
X7433109Y-13315265D02*
X7442633Y-13296217D01*
X7442633Y-13296217D02*
X7452157Y-13286693D01*
X7452157Y-13286693D02*
X7471204Y-13277169D01*
X7471204Y-13277169D02*
X7499776Y-13277169D01*
X7499776Y-13277169D02*
X7518823Y-13286693D01*
X7518823Y-13286693D02*
X7528347Y-13296217D01*
X7528347Y-13296217D02*
X7537871Y-13315265D01*
X7537871Y-13315265D02*
X7537871Y-13372408D01*
X7537871Y-13372408D02*
X7528347Y-13391455D01*
X7528347Y-13391455D02*
X7518823Y-13400979D01*
X7518823Y-13400979D02*
X7499776Y-13410503D01*
X7499776Y-13410503D02*
X7471204Y-13410503D01*
X7652157Y-13410503D02*
X7633109Y-13400979D01*
X7633109Y-13400979D02*
X7623585Y-13381931D01*
X7623585Y-13381931D02*
X7623585Y-13210503D01*
X7804538Y-13400979D02*
X7785490Y-13410503D01*
X7785490Y-13410503D02*
X7747395Y-13410503D01*
X7747395Y-13410503D02*
X7728347Y-13400979D01*
X7728347Y-13400979D02*
X7718823Y-13381931D01*
X7718823Y-13381931D02*
X7718823Y-13305741D01*
X7718823Y-13305741D02*
X7728347Y-13286693D01*
X7728347Y-13286693D02*
X7747395Y-13277169D01*
X7747395Y-13277169D02*
X7785490Y-13277169D01*
X7785490Y-13277169D02*
X7804538Y-13286693D01*
X7804538Y-13286693D02*
X7814061Y-13305741D01*
X7814061Y-13305741D02*
X7814061Y-13324789D01*
X7814061Y-13324789D02*
X7718823Y-13343836D01*
X7890252Y-13400979D02*
X7909300Y-13410503D01*
X7909300Y-13410503D02*
X7947395Y-13410503D01*
X7947395Y-13410503D02*
X7966442Y-13400979D01*
X7966442Y-13400979D02*
X7975966Y-13381931D01*
X7975966Y-13381931D02*
X7975966Y-13372408D01*
X7975966Y-13372408D02*
X7966442Y-13353360D01*
X7966442Y-13353360D02*
X7947395Y-13343836D01*
X7947395Y-13343836D02*
X7918823Y-13343836D01*
X7918823Y-13343836D02*
X7899776Y-13334312D01*
X7899776Y-13334312D02*
X7890252Y-13315265D01*
X7890252Y-13315265D02*
X7890252Y-13305741D01*
X7890252Y-13305741D02*
X7899776Y-13286693D01*
X7899776Y-13286693D02*
X7918823Y-13277169D01*
X7918823Y-13277169D02*
X7947395Y-13277169D01*
X7947395Y-13277169D02*
X7966442Y-13286693D01*
X8042633Y-13486693D02*
X8052157Y-13477169D01*
X8052157Y-13477169D02*
X8071204Y-13448598D01*
X8071204Y-13448598D02*
X8080728Y-13429550D01*
X8080728Y-13429550D02*
X8090252Y-13400979D01*
X8090252Y-13400979D02*
X8099776Y-13353360D01*
X8099776Y-13353360D02*
X8099776Y-13315265D01*
X8099776Y-13315265D02*
X8090252Y-13267646D01*
X8090252Y-13267646D02*
X8080728Y-13239074D01*
X8080728Y-13239074D02*
X8071204Y-13220027D01*
X8071204Y-13220027D02*
X8052157Y-13191455D01*
X8052157Y-13191455D02*
X8042633Y-13181931D01*
X8404538Y-13486693D02*
X8395014Y-13477169D01*
X8395014Y-13477169D02*
X8375966Y-13448598D01*
X8375966Y-13448598D02*
X8366442Y-13429550D01*
X8366442Y-13429550D02*
X8356919Y-13400979D01*
X8356919Y-13400979D02*
X8347395Y-13353360D01*
X8347395Y-13353360D02*
X8347395Y-13315265D01*
X8347395Y-13315265D02*
X8356919Y-13267646D01*
X8356919Y-13267646D02*
X8366442Y-13239074D01*
X8366442Y-13239074D02*
X8375966Y-13220027D01*
X8375966Y-13220027D02*
X8395014Y-13191455D01*
X8395014Y-13191455D02*
X8404538Y-13181931D01*
X8480728Y-13277169D02*
X8480728Y-13410503D01*
X8480728Y-13296217D02*
X8490252Y-13286693D01*
X8490252Y-13286693D02*
X8509300Y-13277169D01*
X8509300Y-13277169D02*
X8537871Y-13277169D01*
X8537871Y-13277169D02*
X8556919Y-13286693D01*
X8556919Y-13286693D02*
X8566443Y-13305741D01*
X8566443Y-13305741D02*
X8566443Y-13410503D01*
X8690252Y-13410503D02*
X8671204Y-13400979D01*
X8671204Y-13400979D02*
X8661681Y-13391455D01*
X8661681Y-13391455D02*
X8652157Y-13372408D01*
X8652157Y-13372408D02*
X8652157Y-13315265D01*
X8652157Y-13315265D02*
X8661681Y-13296217D01*
X8661681Y-13296217D02*
X8671204Y-13286693D01*
X8671204Y-13286693D02*
X8690252Y-13277169D01*
X8690252Y-13277169D02*
X8718824Y-13277169D01*
X8718824Y-13277169D02*
X8737871Y-13286693D01*
X8737871Y-13286693D02*
X8747395Y-13296217D01*
X8747395Y-13296217D02*
X8756919Y-13315265D01*
X8756919Y-13315265D02*
X8756919Y-13372408D01*
X8756919Y-13372408D02*
X8747395Y-13391455D01*
X8747395Y-13391455D02*
X8737871Y-13400979D01*
X8737871Y-13400979D02*
X8718824Y-13410503D01*
X8718824Y-13410503D02*
X8690252Y-13410503D01*
X8814062Y-13277169D02*
X8890252Y-13277169D01*
X8842633Y-13210503D02*
X8842633Y-13381931D01*
X8842633Y-13381931D02*
X8852157Y-13400979D01*
X8852157Y-13400979D02*
X8871204Y-13410503D01*
X8871204Y-13410503D02*
X8890252Y-13410503D01*
X9109300Y-13277169D02*
X9109300Y-13477169D01*
X9109300Y-13286693D02*
X9128347Y-13277169D01*
X9128347Y-13277169D02*
X9166443Y-13277169D01*
X9166443Y-13277169D02*
X9185490Y-13286693D01*
X9185490Y-13286693D02*
X9195014Y-13296217D01*
X9195014Y-13296217D02*
X9204538Y-13315265D01*
X9204538Y-13315265D02*
X9204538Y-13372408D01*
X9204538Y-13372408D02*
X9195014Y-13391455D01*
X9195014Y-13391455D02*
X9185490Y-13400979D01*
X9185490Y-13400979D02*
X9166443Y-13410503D01*
X9166443Y-13410503D02*
X9128347Y-13410503D01*
X9128347Y-13410503D02*
X9109300Y-13400979D01*
X9318824Y-13410503D02*
X9299776Y-13400979D01*
X9299776Y-13400979D02*
X9290252Y-13381931D01*
X9290252Y-13381931D02*
X9290252Y-13210503D01*
X9480728Y-13410503D02*
X9480728Y-13305741D01*
X9480728Y-13305741D02*
X9471205Y-13286693D01*
X9471205Y-13286693D02*
X9452157Y-13277169D01*
X9452157Y-13277169D02*
X9414062Y-13277169D01*
X9414062Y-13277169D02*
X9395014Y-13286693D01*
X9480728Y-13400979D02*
X9461681Y-13410503D01*
X9461681Y-13410503D02*
X9414062Y-13410503D01*
X9414062Y-13410503D02*
X9395014Y-13400979D01*
X9395014Y-13400979D02*
X9385490Y-13381931D01*
X9385490Y-13381931D02*
X9385490Y-13362884D01*
X9385490Y-13362884D02*
X9395014Y-13343836D01*
X9395014Y-13343836D02*
X9414062Y-13334312D01*
X9414062Y-13334312D02*
X9461681Y-13334312D01*
X9461681Y-13334312D02*
X9480728Y-13324789D01*
X9547395Y-13277169D02*
X9623585Y-13277169D01*
X9575966Y-13210503D02*
X9575966Y-13381931D01*
X9575966Y-13381931D02*
X9585490Y-13400979D01*
X9585490Y-13400979D02*
X9604538Y-13410503D01*
X9604538Y-13410503D02*
X9623585Y-13410503D01*
X9766443Y-13400979D02*
X9747395Y-13410503D01*
X9747395Y-13410503D02*
X9709300Y-13410503D01*
X9709300Y-13410503D02*
X9690252Y-13400979D01*
X9690252Y-13400979D02*
X9680728Y-13381931D01*
X9680728Y-13381931D02*
X9680728Y-13305741D01*
X9680728Y-13305741D02*
X9690252Y-13286693D01*
X9690252Y-13286693D02*
X9709300Y-13277169D01*
X9709300Y-13277169D02*
X9747395Y-13277169D01*
X9747395Y-13277169D02*
X9766443Y-13286693D01*
X9766443Y-13286693D02*
X9775966Y-13305741D01*
X9775966Y-13305741D02*
X9775966Y-13324789D01*
X9775966Y-13324789D02*
X9680728Y-13343836D01*
X9947395Y-13410503D02*
X9947395Y-13210503D01*
X9947395Y-13400979D02*
X9928347Y-13410503D01*
X9928347Y-13410503D02*
X9890252Y-13410503D01*
X9890252Y-13410503D02*
X9871205Y-13400979D01*
X9871205Y-13400979D02*
X9861681Y-13391455D01*
X9861681Y-13391455D02*
X9852157Y-13372408D01*
X9852157Y-13372408D02*
X9852157Y-13315265D01*
X9852157Y-13315265D02*
X9861681Y-13296217D01*
X9861681Y-13296217D02*
X9871205Y-13286693D01*
X9871205Y-13286693D02*
X9890252Y-13277169D01*
X9890252Y-13277169D02*
X9928347Y-13277169D01*
X9928347Y-13277169D02*
X9947395Y-13286693D01*
X10023586Y-13486693D02*
X10033109Y-13477169D01*
X10033109Y-13477169D02*
X10052157Y-13448598D01*
X10052157Y-13448598D02*
X10061681Y-13429550D01*
X10061681Y-13429550D02*
X10071205Y-13400979D01*
X10071205Y-13400979D02*
X10080728Y-13353360D01*
X10080728Y-13353360D02*
X10080728Y-13315265D01*
X10080728Y-13315265D02*
X10071205Y-13267646D01*
X10071205Y-13267646D02*
X10061681Y-13239074D01*
X10061681Y-13239074D02*
X10052157Y-13220027D01*
X10052157Y-13220027D02*
X10033109Y-13191455D01*
X10033109Y-13191455D02*
X10023586Y-13181931D01*
X3067570Y-13539019D02*
X3267570Y-13739019D01*
X3267570Y-13539019D02*
X3067570Y-13739019D01*
X3167570Y-13539019D02*
X3167570Y-13739019D01*
X3067570Y-13639019D02*
X3267570Y-13639019D01*
X3509299Y-13530503D02*
X3633109Y-13530503D01*
X3633109Y-13530503D02*
X3566442Y-13606693D01*
X3566442Y-13606693D02*
X3595013Y-13606693D01*
X3595013Y-13606693D02*
X3614061Y-13616217D01*
X3614061Y-13616217D02*
X3623585Y-13625741D01*
X3623585Y-13625741D02*
X3633109Y-13644789D01*
X3633109Y-13644789D02*
X3633109Y-13692408D01*
X3633109Y-13692408D02*
X3623585Y-13711455D01*
X3623585Y-13711455D02*
X3614061Y-13720979D01*
X3614061Y-13720979D02*
X3595013Y-13730503D01*
X3595013Y-13730503D02*
X3537871Y-13730503D01*
X3537871Y-13730503D02*
X3518823Y-13720979D01*
X3518823Y-13720979D02*
X3509299Y-13711455D01*
X3718823Y-13711455D02*
X3728347Y-13720979D01*
X3728347Y-13720979D02*
X3718823Y-13730503D01*
X3718823Y-13730503D02*
X3709299Y-13720979D01*
X3709299Y-13720979D02*
X3718823Y-13711455D01*
X3718823Y-13711455D02*
X3718823Y-13730503D01*
X3823585Y-13730503D02*
X3861680Y-13730503D01*
X3861680Y-13730503D02*
X3880728Y-13720979D01*
X3880728Y-13720979D02*
X3890252Y-13711455D01*
X3890252Y-13711455D02*
X3909299Y-13682884D01*
X3909299Y-13682884D02*
X3918823Y-13644789D01*
X3918823Y-13644789D02*
X3918823Y-13568598D01*
X3918823Y-13568598D02*
X3909299Y-13549550D01*
X3909299Y-13549550D02*
X3899775Y-13540027D01*
X3899775Y-13540027D02*
X3880728Y-13530503D01*
X3880728Y-13530503D02*
X3842632Y-13530503D01*
X3842632Y-13530503D02*
X3823585Y-13540027D01*
X3823585Y-13540027D02*
X3814061Y-13549550D01*
X3814061Y-13549550D02*
X3804537Y-13568598D01*
X3804537Y-13568598D02*
X3804537Y-13616217D01*
X3804537Y-13616217D02*
X3814061Y-13635265D01*
X3814061Y-13635265D02*
X3823585Y-13644789D01*
X3823585Y-13644789D02*
X3842632Y-13654312D01*
X3842632Y-13654312D02*
X3880728Y-13654312D01*
X3880728Y-13654312D02*
X3899775Y-13644789D01*
X3899775Y-13644789D02*
X3909299Y-13635265D01*
X3909299Y-13635265D02*
X3918823Y-13616217D01*
X4033109Y-13616217D02*
X4014061Y-13606693D01*
X4014061Y-13606693D02*
X4004537Y-13597169D01*
X4004537Y-13597169D02*
X3995013Y-13578122D01*
X3995013Y-13578122D02*
X3995013Y-13568598D01*
X3995013Y-13568598D02*
X4004537Y-13549550D01*
X4004537Y-13549550D02*
X4014061Y-13540027D01*
X4014061Y-13540027D02*
X4033109Y-13530503D01*
X4033109Y-13530503D02*
X4071204Y-13530503D01*
X4071204Y-13530503D02*
X4090252Y-13540027D01*
X4090252Y-13540027D02*
X4099775Y-13549550D01*
X4099775Y-13549550D02*
X4109299Y-13568598D01*
X4109299Y-13568598D02*
X4109299Y-13578122D01*
X4109299Y-13578122D02*
X4099775Y-13597169D01*
X4099775Y-13597169D02*
X4090252Y-13606693D01*
X4090252Y-13606693D02*
X4071204Y-13616217D01*
X4071204Y-13616217D02*
X4033109Y-13616217D01*
X4033109Y-13616217D02*
X4014061Y-13625741D01*
X4014061Y-13625741D02*
X4004537Y-13635265D01*
X4004537Y-13635265D02*
X3995013Y-13654312D01*
X3995013Y-13654312D02*
X3995013Y-13692408D01*
X3995013Y-13692408D02*
X4004537Y-13711455D01*
X4004537Y-13711455D02*
X4014061Y-13720979D01*
X4014061Y-13720979D02*
X4033109Y-13730503D01*
X4033109Y-13730503D02*
X4071204Y-13730503D01*
X4071204Y-13730503D02*
X4090252Y-13720979D01*
X4090252Y-13720979D02*
X4099775Y-13711455D01*
X4099775Y-13711455D02*
X4109299Y-13692408D01*
X4109299Y-13692408D02*
X4109299Y-13654312D01*
X4109299Y-13654312D02*
X4099775Y-13635265D01*
X4099775Y-13635265D02*
X4090252Y-13625741D01*
X4090252Y-13625741D02*
X4071204Y-13616217D01*
X4223585Y-13616217D02*
X4204537Y-13606693D01*
X4204537Y-13606693D02*
X4195014Y-13597169D01*
X4195014Y-13597169D02*
X4185490Y-13578122D01*
X4185490Y-13578122D02*
X4185490Y-13568598D01*
X4185490Y-13568598D02*
X4195014Y-13549550D01*
X4195014Y-13549550D02*
X4204537Y-13540027D01*
X4204537Y-13540027D02*
X4223585Y-13530503D01*
X4223585Y-13530503D02*
X4261680Y-13530503D01*
X4261680Y-13530503D02*
X4280728Y-13540027D01*
X4280728Y-13540027D02*
X4290252Y-13549550D01*
X4290252Y-13549550D02*
X4299775Y-13568598D01*
X4299775Y-13568598D02*
X4299775Y-13578122D01*
X4299775Y-13578122D02*
X4290252Y-13597169D01*
X4290252Y-13597169D02*
X4280728Y-13606693D01*
X4280728Y-13606693D02*
X4261680Y-13616217D01*
X4261680Y-13616217D02*
X4223585Y-13616217D01*
X4223585Y-13616217D02*
X4204537Y-13625741D01*
X4204537Y-13625741D02*
X4195014Y-13635265D01*
X4195014Y-13635265D02*
X4185490Y-13654312D01*
X4185490Y-13654312D02*
X4185490Y-13692408D01*
X4185490Y-13692408D02*
X4195014Y-13711455D01*
X4195014Y-13711455D02*
X4204537Y-13720979D01*
X4204537Y-13720979D02*
X4223585Y-13730503D01*
X4223585Y-13730503D02*
X4261680Y-13730503D01*
X4261680Y-13730503D02*
X4280728Y-13720979D01*
X4280728Y-13720979D02*
X4290252Y-13711455D01*
X4290252Y-13711455D02*
X4299775Y-13692408D01*
X4299775Y-13692408D02*
X4299775Y-13654312D01*
X4299775Y-13654312D02*
X4290252Y-13635265D01*
X4290252Y-13635265D02*
X4280728Y-13625741D01*
X4280728Y-13625741D02*
X4261680Y-13616217D01*
X4385490Y-13730503D02*
X4385490Y-13597169D01*
X4385490Y-13616217D02*
X4395014Y-13606693D01*
X4395014Y-13606693D02*
X4414061Y-13597169D01*
X4414061Y-13597169D02*
X4442633Y-13597169D01*
X4442633Y-13597169D02*
X4461680Y-13606693D01*
X4461680Y-13606693D02*
X4471204Y-13625741D01*
X4471204Y-13625741D02*
X4471204Y-13730503D01*
X4471204Y-13625741D02*
X4480728Y-13606693D01*
X4480728Y-13606693D02*
X4499775Y-13597169D01*
X4499775Y-13597169D02*
X4528347Y-13597169D01*
X4528347Y-13597169D02*
X4547395Y-13606693D01*
X4547395Y-13606693D02*
X4556918Y-13625741D01*
X4556918Y-13625741D02*
X4556918Y-13730503D01*
X4652156Y-13730503D02*
X4652156Y-13597169D01*
X4652156Y-13616217D02*
X4661680Y-13606693D01*
X4661680Y-13606693D02*
X4680728Y-13597169D01*
X4680728Y-13597169D02*
X4709299Y-13597169D01*
X4709299Y-13597169D02*
X4728347Y-13606693D01*
X4728347Y-13606693D02*
X4737871Y-13625741D01*
X4737871Y-13625741D02*
X4737871Y-13730503D01*
X4737871Y-13625741D02*
X4747395Y-13606693D01*
X4747395Y-13606693D02*
X4766442Y-13597169D01*
X4766442Y-13597169D02*
X4795014Y-13597169D01*
X4795014Y-13597169D02*
X4814061Y-13606693D01*
X4814061Y-13606693D02*
X4823585Y-13625741D01*
X4823585Y-13625741D02*
X4823585Y-13730503D01*
X5214061Y-13520979D02*
X5042633Y-13778122D01*
X5471204Y-13530503D02*
X5490252Y-13530503D01*
X5490252Y-13530503D02*
X5509299Y-13540027D01*
X5509299Y-13540027D02*
X5518823Y-13549550D01*
X5518823Y-13549550D02*
X5528347Y-13568598D01*
X5528347Y-13568598D02*
X5537871Y-13606693D01*
X5537871Y-13606693D02*
X5537871Y-13654312D01*
X5537871Y-13654312D02*
X5528347Y-13692408D01*
X5528347Y-13692408D02*
X5518823Y-13711455D01*
X5518823Y-13711455D02*
X5509299Y-13720979D01*
X5509299Y-13720979D02*
X5490252Y-13730503D01*
X5490252Y-13730503D02*
X5471204Y-13730503D01*
X5471204Y-13730503D02*
X5452157Y-13720979D01*
X5452157Y-13720979D02*
X5442633Y-13711455D01*
X5442633Y-13711455D02*
X5433109Y-13692408D01*
X5433109Y-13692408D02*
X5423585Y-13654312D01*
X5423585Y-13654312D02*
X5423585Y-13606693D01*
X5423585Y-13606693D02*
X5433109Y-13568598D01*
X5433109Y-13568598D02*
X5442633Y-13549550D01*
X5442633Y-13549550D02*
X5452157Y-13540027D01*
X5452157Y-13540027D02*
X5471204Y-13530503D01*
X5623585Y-13711455D02*
X5633109Y-13720979D01*
X5633109Y-13720979D02*
X5623585Y-13730503D01*
X5623585Y-13730503D02*
X5614061Y-13720979D01*
X5614061Y-13720979D02*
X5623585Y-13711455D01*
X5623585Y-13711455D02*
X5623585Y-13730503D01*
X5823585Y-13730503D02*
X5709299Y-13730503D01*
X5766442Y-13730503D02*
X5766442Y-13530503D01*
X5766442Y-13530503D02*
X5747395Y-13559074D01*
X5747395Y-13559074D02*
X5728347Y-13578122D01*
X5728347Y-13578122D02*
X5709299Y-13587646D01*
X6004537Y-13530503D02*
X5909299Y-13530503D01*
X5909299Y-13530503D02*
X5899776Y-13625741D01*
X5899776Y-13625741D02*
X5909299Y-13616217D01*
X5909299Y-13616217D02*
X5928347Y-13606693D01*
X5928347Y-13606693D02*
X5975966Y-13606693D01*
X5975966Y-13606693D02*
X5995014Y-13616217D01*
X5995014Y-13616217D02*
X6004537Y-13625741D01*
X6004537Y-13625741D02*
X6014061Y-13644789D01*
X6014061Y-13644789D02*
X6014061Y-13692408D01*
X6014061Y-13692408D02*
X6004537Y-13711455D01*
X6004537Y-13711455D02*
X5995014Y-13720979D01*
X5995014Y-13720979D02*
X5975966Y-13730503D01*
X5975966Y-13730503D02*
X5928347Y-13730503D01*
X5928347Y-13730503D02*
X5909299Y-13720979D01*
X5909299Y-13720979D02*
X5899776Y-13711455D01*
X6080728Y-13530503D02*
X6214061Y-13530503D01*
X6214061Y-13530503D02*
X6128347Y-13730503D01*
X6328347Y-13530503D02*
X6347395Y-13530503D01*
X6347395Y-13530503D02*
X6366442Y-13540027D01*
X6366442Y-13540027D02*
X6375966Y-13549550D01*
X6375966Y-13549550D02*
X6385490Y-13568598D01*
X6385490Y-13568598D02*
X6395014Y-13606693D01*
X6395014Y-13606693D02*
X6395014Y-13654312D01*
X6395014Y-13654312D02*
X6385490Y-13692408D01*
X6385490Y-13692408D02*
X6375966Y-13711455D01*
X6375966Y-13711455D02*
X6366442Y-13720979D01*
X6366442Y-13720979D02*
X6347395Y-13730503D01*
X6347395Y-13730503D02*
X6328347Y-13730503D01*
X6328347Y-13730503D02*
X6309299Y-13720979D01*
X6309299Y-13720979D02*
X6299776Y-13711455D01*
X6299776Y-13711455D02*
X6290252Y-13692408D01*
X6290252Y-13692408D02*
X6280728Y-13654312D01*
X6280728Y-13654312D02*
X6280728Y-13606693D01*
X6280728Y-13606693D02*
X6290252Y-13568598D01*
X6290252Y-13568598D02*
X6299776Y-13549550D01*
X6299776Y-13549550D02*
X6309299Y-13540027D01*
X6309299Y-13540027D02*
X6328347Y-13530503D01*
X6471204Y-13530503D02*
X6471204Y-13568598D01*
X6547395Y-13530503D02*
X6547395Y-13568598D01*
X6842633Y-13806693D02*
X6833109Y-13797169D01*
X6833109Y-13797169D02*
X6814061Y-13768598D01*
X6814061Y-13768598D02*
X6804538Y-13749550D01*
X6804538Y-13749550D02*
X6795014Y-13720979D01*
X6795014Y-13720979D02*
X6785490Y-13673360D01*
X6785490Y-13673360D02*
X6785490Y-13635265D01*
X6785490Y-13635265D02*
X6795014Y-13587646D01*
X6795014Y-13587646D02*
X6804538Y-13559074D01*
X6804538Y-13559074D02*
X6814061Y-13540027D01*
X6814061Y-13540027D02*
X6833109Y-13511455D01*
X6833109Y-13511455D02*
X6842633Y-13501931D01*
X7004538Y-13597169D02*
X7004538Y-13730503D01*
X6956918Y-13520979D02*
X6909299Y-13663836D01*
X6909299Y-13663836D02*
X7033109Y-13663836D01*
X7099776Y-13549550D02*
X7109299Y-13540027D01*
X7109299Y-13540027D02*
X7128347Y-13530503D01*
X7128347Y-13530503D02*
X7175966Y-13530503D01*
X7175966Y-13530503D02*
X7195014Y-13540027D01*
X7195014Y-13540027D02*
X7204538Y-13549550D01*
X7204538Y-13549550D02*
X7214061Y-13568598D01*
X7214061Y-13568598D02*
X7214061Y-13587646D01*
X7214061Y-13587646D02*
X7204538Y-13616217D01*
X7204538Y-13616217D02*
X7090252Y-13730503D01*
X7090252Y-13730503D02*
X7214061Y-13730503D01*
X7452157Y-13730503D02*
X7452157Y-13530503D01*
X7537871Y-13730503D02*
X7537871Y-13625741D01*
X7537871Y-13625741D02*
X7528347Y-13606693D01*
X7528347Y-13606693D02*
X7509300Y-13597169D01*
X7509300Y-13597169D02*
X7480728Y-13597169D01*
X7480728Y-13597169D02*
X7461680Y-13606693D01*
X7461680Y-13606693D02*
X7452157Y-13616217D01*
X7661680Y-13730503D02*
X7642633Y-13720979D01*
X7642633Y-13720979D02*
X7633109Y-13711455D01*
X7633109Y-13711455D02*
X7623585Y-13692408D01*
X7623585Y-13692408D02*
X7623585Y-13635265D01*
X7623585Y-13635265D02*
X7633109Y-13616217D01*
X7633109Y-13616217D02*
X7642633Y-13606693D01*
X7642633Y-13606693D02*
X7661680Y-13597169D01*
X7661680Y-13597169D02*
X7690252Y-13597169D01*
X7690252Y-13597169D02*
X7709300Y-13606693D01*
X7709300Y-13606693D02*
X7718823Y-13616217D01*
X7718823Y-13616217D02*
X7728347Y-13635265D01*
X7728347Y-13635265D02*
X7728347Y-13692408D01*
X7728347Y-13692408D02*
X7718823Y-13711455D01*
X7718823Y-13711455D02*
X7709300Y-13720979D01*
X7709300Y-13720979D02*
X7690252Y-13730503D01*
X7690252Y-13730503D02*
X7661680Y-13730503D01*
X7842633Y-13730503D02*
X7823585Y-13720979D01*
X7823585Y-13720979D02*
X7814061Y-13701931D01*
X7814061Y-13701931D02*
X7814061Y-13530503D01*
X7995014Y-13720979D02*
X7975966Y-13730503D01*
X7975966Y-13730503D02*
X7937871Y-13730503D01*
X7937871Y-13730503D02*
X7918823Y-13720979D01*
X7918823Y-13720979D02*
X7909300Y-13701931D01*
X7909300Y-13701931D02*
X7909300Y-13625741D01*
X7909300Y-13625741D02*
X7918823Y-13606693D01*
X7918823Y-13606693D02*
X7937871Y-13597169D01*
X7937871Y-13597169D02*
X7975966Y-13597169D01*
X7975966Y-13597169D02*
X7995014Y-13606693D01*
X7995014Y-13606693D02*
X8004538Y-13625741D01*
X8004538Y-13625741D02*
X8004538Y-13644789D01*
X8004538Y-13644789D02*
X7909300Y-13663836D01*
X8080728Y-13720979D02*
X8099776Y-13730503D01*
X8099776Y-13730503D02*
X8137871Y-13730503D01*
X8137871Y-13730503D02*
X8156919Y-13720979D01*
X8156919Y-13720979D02*
X8166442Y-13701931D01*
X8166442Y-13701931D02*
X8166442Y-13692408D01*
X8166442Y-13692408D02*
X8156919Y-13673360D01*
X8156919Y-13673360D02*
X8137871Y-13663836D01*
X8137871Y-13663836D02*
X8109300Y-13663836D01*
X8109300Y-13663836D02*
X8090252Y-13654312D01*
X8090252Y-13654312D02*
X8080728Y-13635265D01*
X8080728Y-13635265D02*
X8080728Y-13625741D01*
X8080728Y-13625741D02*
X8090252Y-13606693D01*
X8090252Y-13606693D02*
X8109300Y-13597169D01*
X8109300Y-13597169D02*
X8137871Y-13597169D01*
X8137871Y-13597169D02*
X8156919Y-13606693D01*
X8233109Y-13806693D02*
X8242633Y-13797169D01*
X8242633Y-13797169D02*
X8261681Y-13768598D01*
X8261681Y-13768598D02*
X8271204Y-13749550D01*
X8271204Y-13749550D02*
X8280728Y-13720979D01*
X8280728Y-13720979D02*
X8290252Y-13673360D01*
X8290252Y-13673360D02*
X8290252Y-13635265D01*
X8290252Y-13635265D02*
X8280728Y-13587646D01*
X8280728Y-13587646D02*
X8271204Y-13559074D01*
X8271204Y-13559074D02*
X8261681Y-13540027D01*
X8261681Y-13540027D02*
X8242633Y-13511455D01*
X8242633Y-13511455D02*
X8233109Y-13501931D01*
X8595014Y-13806693D02*
X8585490Y-13797169D01*
X8585490Y-13797169D02*
X8566443Y-13768598D01*
X8566443Y-13768598D02*
X8556919Y-13749550D01*
X8556919Y-13749550D02*
X8547395Y-13720979D01*
X8547395Y-13720979D02*
X8537871Y-13673360D01*
X8537871Y-13673360D02*
X8537871Y-13635265D01*
X8537871Y-13635265D02*
X8547395Y-13587646D01*
X8547395Y-13587646D02*
X8556919Y-13559074D01*
X8556919Y-13559074D02*
X8566443Y-13540027D01*
X8566443Y-13540027D02*
X8585490Y-13511455D01*
X8585490Y-13511455D02*
X8595014Y-13501931D01*
X8671204Y-13597169D02*
X8671204Y-13730503D01*
X8671204Y-13616217D02*
X8680728Y-13606693D01*
X8680728Y-13606693D02*
X8699776Y-13597169D01*
X8699776Y-13597169D02*
X8728347Y-13597169D01*
X8728347Y-13597169D02*
X8747395Y-13606693D01*
X8747395Y-13606693D02*
X8756919Y-13625741D01*
X8756919Y-13625741D02*
X8756919Y-13730503D01*
X8880728Y-13730503D02*
X8861681Y-13720979D01*
X8861681Y-13720979D02*
X8852157Y-13711455D01*
X8852157Y-13711455D02*
X8842633Y-13692408D01*
X8842633Y-13692408D02*
X8842633Y-13635265D01*
X8842633Y-13635265D02*
X8852157Y-13616217D01*
X8852157Y-13616217D02*
X8861681Y-13606693D01*
X8861681Y-13606693D02*
X8880728Y-13597169D01*
X8880728Y-13597169D02*
X8909300Y-13597169D01*
X8909300Y-13597169D02*
X8928347Y-13606693D01*
X8928347Y-13606693D02*
X8937871Y-13616217D01*
X8937871Y-13616217D02*
X8947395Y-13635265D01*
X8947395Y-13635265D02*
X8947395Y-13692408D01*
X8947395Y-13692408D02*
X8937871Y-13711455D01*
X8937871Y-13711455D02*
X8928347Y-13720979D01*
X8928347Y-13720979D02*
X8909300Y-13730503D01*
X8909300Y-13730503D02*
X8880728Y-13730503D01*
X9004538Y-13597169D02*
X9080728Y-13597169D01*
X9033109Y-13530503D02*
X9033109Y-13701931D01*
X9033109Y-13701931D02*
X9042633Y-13720979D01*
X9042633Y-13720979D02*
X9061681Y-13730503D01*
X9061681Y-13730503D02*
X9080728Y-13730503D01*
X9299776Y-13597169D02*
X9299776Y-13797169D01*
X9299776Y-13606693D02*
X9318824Y-13597169D01*
X9318824Y-13597169D02*
X9356919Y-13597169D01*
X9356919Y-13597169D02*
X9375966Y-13606693D01*
X9375966Y-13606693D02*
X9385490Y-13616217D01*
X9385490Y-13616217D02*
X9395014Y-13635265D01*
X9395014Y-13635265D02*
X9395014Y-13692408D01*
X9395014Y-13692408D02*
X9385490Y-13711455D01*
X9385490Y-13711455D02*
X9375966Y-13720979D01*
X9375966Y-13720979D02*
X9356919Y-13730503D01*
X9356919Y-13730503D02*
X9318824Y-13730503D01*
X9318824Y-13730503D02*
X9299776Y-13720979D01*
X9509300Y-13730503D02*
X9490252Y-13720979D01*
X9490252Y-13720979D02*
X9480728Y-13701931D01*
X9480728Y-13701931D02*
X9480728Y-13530503D01*
X9671205Y-13730503D02*
X9671205Y-13625741D01*
X9671205Y-13625741D02*
X9661681Y-13606693D01*
X9661681Y-13606693D02*
X9642633Y-13597169D01*
X9642633Y-13597169D02*
X9604538Y-13597169D01*
X9604538Y-13597169D02*
X9585490Y-13606693D01*
X9671205Y-13720979D02*
X9652157Y-13730503D01*
X9652157Y-13730503D02*
X9604538Y-13730503D01*
X9604538Y-13730503D02*
X9585490Y-13720979D01*
X9585490Y-13720979D02*
X9575966Y-13701931D01*
X9575966Y-13701931D02*
X9575966Y-13682884D01*
X9575966Y-13682884D02*
X9585490Y-13663836D01*
X9585490Y-13663836D02*
X9604538Y-13654312D01*
X9604538Y-13654312D02*
X9652157Y-13654312D01*
X9652157Y-13654312D02*
X9671205Y-13644789D01*
X9737871Y-13597169D02*
X9814062Y-13597169D01*
X9766443Y-13530503D02*
X9766443Y-13701931D01*
X9766443Y-13701931D02*
X9775966Y-13720979D01*
X9775966Y-13720979D02*
X9795014Y-13730503D01*
X9795014Y-13730503D02*
X9814062Y-13730503D01*
X9956919Y-13720979D02*
X9937871Y-13730503D01*
X9937871Y-13730503D02*
X9899776Y-13730503D01*
X9899776Y-13730503D02*
X9880728Y-13720979D01*
X9880728Y-13720979D02*
X9871205Y-13701931D01*
X9871205Y-13701931D02*
X9871205Y-13625741D01*
X9871205Y-13625741D02*
X9880728Y-13606693D01*
X9880728Y-13606693D02*
X9899776Y-13597169D01*
X9899776Y-13597169D02*
X9937871Y-13597169D01*
X9937871Y-13597169D02*
X9956919Y-13606693D01*
X9956919Y-13606693D02*
X9966443Y-13625741D01*
X9966443Y-13625741D02*
X9966443Y-13644789D01*
X9966443Y-13644789D02*
X9871205Y-13663836D01*
X10137871Y-13730503D02*
X10137871Y-13530503D01*
X10137871Y-13720979D02*
X10118824Y-13730503D01*
X10118824Y-13730503D02*
X10080728Y-13730503D01*
X10080728Y-13730503D02*
X10061681Y-13720979D01*
X10061681Y-13720979D02*
X10052157Y-13711455D01*
X10052157Y-13711455D02*
X10042633Y-13692408D01*
X10042633Y-13692408D02*
X10042633Y-13635265D01*
X10042633Y-13635265D02*
X10052157Y-13616217D01*
X10052157Y-13616217D02*
X10061681Y-13606693D01*
X10061681Y-13606693D02*
X10080728Y-13597169D01*
X10080728Y-13597169D02*
X10118824Y-13597169D01*
X10118824Y-13597169D02*
X10137871Y-13606693D01*
X10214062Y-13806693D02*
X10223586Y-13797169D01*
X10223586Y-13797169D02*
X10242633Y-13768598D01*
X10242633Y-13768598D02*
X10252157Y-13749550D01*
X10252157Y-13749550D02*
X10261681Y-13720979D01*
X10261681Y-13720979D02*
X10271205Y-13673360D01*
X10271205Y-13673360D02*
X10271205Y-13635265D01*
X10271205Y-13635265D02*
X10261681Y-13587646D01*
X10261681Y-13587646D02*
X10252157Y-13559074D01*
X10252157Y-13559074D02*
X10242633Y-13540027D01*
X10242633Y-13540027D02*
X10223586Y-13511455D01*
X10223586Y-13511455D02*
X10214062Y-13501931D01*
M02*
